SplineFontDB: 3.2
FontName: BalladeTempo-Bold
FullName: Ballade Tempo
FamilyName: Ballade Tempo
Weight: Bold
Copyright: Copyright 2024 Soya Shigeta (https://shigeta.info)\nCopyright 2011 The Old Standard Project Authors (amkryukov@gmail.com)
Version: 1.0
ItalicAngle: 0
UnderlinePosition: -100
UnderlineWidth: 50
Ascent: 762
Descent: 238
InvalidEm: 0
sfntRevision: 0x00010000
LayerCount: 2
Layer: 0 1 "+gMyXYgAA" 1
Layer: 1 1 "+Uk2XYgAA" 0
XUID: [1021 383 -810783533 934518]
StyleMap: 0x0020
FSType: 0
OS2Version: 4
OS2_WeightWidthSlopeOnly: 0
OS2_UseTypoMetrics: 1
CreationTime: 1472226051
ModificationTime: 1714056083
PfmFamily: 81
TTFWeight: 700
TTFWidth: 5
LineGap: 236
VLineGap: 0
Panose: 0 0 8 0 0 0 0 0 0 0
OS2TypoAscent: 762
OS2TypoAOffset: 0
OS2TypoDescent: -238
OS2TypoDOffset: 0
OS2TypoLinegap: 236
OS2WinAscent: 948
OS2WinAOffset: 0
OS2WinDescent: 282
OS2WinDOffset: 0
HheadAscent: 762
HheadAOffset: 0
HheadDescent: -238
HheadDOffset: 0
OS2SubXSize: 650
OS2SubYSize: 600
OS2SubXOff: 0
OS2SubYOff: 75
OS2SupXSize: 650
OS2SupYSize: 600
OS2SupXOff: 0
OS2SupYOff: 350
OS2StrikeYSize: 50
OS2StrikeYPos: 284
OS2CapHeight: 712
OS2XHeight: 474
OS2Vendor: 'PfEd'
OS2CodePages: 20000197.00000000
OS2UnicodeRanges: 20000207.00000001.00000000.00000000
Lookup: 4 0 1 "Cmmon Ligatures in +MOkwxjDzZYdbVwAA lookup 10" { "Common Ligatures in +MOkwxjDzZYdbVwAA lookup 10 +MLUw1jDGMPww1jDr"  } ['liga' ('DFLT' <'dflt' > 'latn' <'dflt' > ) ]
Lookup: 258 0 0 "'kern' +aipm+DBNMKsw/DDLMPMwsAAA lookup 0" { "'kern' +aipm+DBNMKsw/DDLMPMwsAAA lookup 0 +MLUw1jDGMPww1jDr" [50,0,0] } ['kern' ('cyrl' <'dflt' > 'latn' <'dflt' > ) ]
Lookup: 258 0 0 "'kern' +aipm+DBNMKsw/DDLMPMwsAAA in +MOkwxjDzZYdbVwAA lookup 1" { "'kern' +aipm+DBNMKsw/DDLMPMwsAAA in +MOkwxjDzZYdbVwAA lookup 1 +MLUw1jDGMPww1jDr" [50,0,0] } ['kern' ('latn' <'dflt' > ) ]
Lookup: 258 0 0 "'kern' +aipm+DBNMKsw/DDLMPMwsAAA lookup 2" { "'kern' +aipm+DBNMKsw/DDLMPMwsAAA lookup 2 +MLUw1jDGMPww1jDr" [50,0,0] } ['kern' () ]

StartChar: .notdef
Encoding: 65536 -1 0
Width: 500
GlyphClass: 1
Flags: W
LayerCount: 2
Fore
SplineSet
410 762 m 1,0,-1
 410 -238 l 1,1,-1
 93 -238 l 1,2,-1
 93 762 l 1,3,-1
 410 762 l 1,0,-1
333 695 m 1,4,-1
 168 695 l 1,5,-1
 168 662 l 1,6,-1
 233 662 l 1,7,-1
 233 625 l 1,8,-1
 167 625 l 1,9,-1
 167 592 l 1,10,-1
 333 592 l 1,11,-1
 333 625 l 1,12,-1
 267 625 l 1,13,-1
 267 662 l 1,14,-1
 333 662 l 1,15,-1
 333 695 l 1,4,-1
267 566 m 1,16,-1
 167 566 l 1,17,-1
 167 462 l 1,18,-1
 333 462 l 1,19,-1
 333 496 l 1,20,-1
 267 496 l 1,21,-1
 267 566 l 1,16,-1
233 532 m 1,22,-1
 233 496 l 1,23,-1
 200 496 l 1,24,-1
 200 532 l 1,25,-1
 233 532 l 1,22,-1
333 435 m 1,26,-1
 167 435 l 1,27,-1
 167 402 l 1,28,-1
 233 402 l 1,29,-1
 233 365 l 1,30,-1
 167 365 l 1,31,-1
 167 332 l 1,32,-1
 267 332 l 1,33,-1
 267 402 l 1,34,-1
 333 402 l 1,35,-1
 333 435 l 1,26,-1
333 375 m 1,36,-1
 300 375 l 1,37,-1
 300 309 l 1,38,-1
 167 309 l 1,39,-1
 167 275 l 1,40,-1
 333 275 l 1,41,-1
 333 375 l 1,36,-1
333 253 m 1,42,-1
 233 253 l 1,43,-1
 233 197 l 1,44,-1
 267 197 l 1,45,-1
 267 220 l 1,46,-1
 300 220 l 1,47,-1
 300 173 l 1,48,-1
 200 173 l 1,49,-1
 200 253 l 1,50,-1
 167 253 l 1,51,-1
 167 140 l 1,52,-1
 333 140 l 1,53,-1
 333 253 l 1,42,-1
333 80 m 1,54,-1
 167 80 l 1,55,-1
 167 -33 l 1,56,-1
 333 -33 l 1,57,-1
 333 80 l 1,54,-1
300 47 m 1,58,-1
 300 0 l 1,59,-1
 200 0 l 1,60,-1
 200 47 l 1,61,-1
 300 47 l 1,58,-1
333 -56 m 1,62,-1
 167 -56 l 1,63,-1
 167 -89 l 1,64,-1
 237 -89 l 1,65,-1
 167 -136 l 1,66,-1
 167 -169 l 1,67,-1
 333 -169 l 1,68,-1
 333 -136 l 1,69,-1
 231 -136 l 1,70,-1
 301 -89 l 1,71,-1
 333 -89 l 1,72,-1
 333 -56 l 1,62,-1
EndSplineSet
Validated: 1
EndChar

StartChar: exclam
Encoding: 33 33 4
Width: 280
GlyphClass: 1
Flags: W
LayerCount: 2
Fore
SplineSet
112 350 m 2,0,1
 109 384 109 384 85 477 c 0,2,3
 72 526 72 526 65 562.5 c 128,-1,4
 58 599 58 599 58 632 c 0,5,6
 58 678 58 678 81 704 c 128,-1,7
 104 730 104 730 140 730 c 256,8,9
 176 730 176 730 199 704 c 128,-1,10
 222 678 222 678 222 632 c 0,11,12
 222 599 222 599 215 562.5 c 128,-1,13
 208 526 208 526 195 477 c 0,14,15
 173 392 173 392 168 350 c 2,16,-1
 152 205 l 1,17,-1
 128 205 l 1,18,-1
 112 350 l 2,0,1
84 10 m 128,-1,20
 62 32 62 32 62 66 c 256,21,22
 62 100 62 100 84 122 c 128,-1,23
 106 144 106 144 140 144 c 256,24,25
 174 144 174 144 196 122 c 128,-1,26
 218 100 218 100 218 66 c 256,27,28
 218 32 218 32 196 10 c 128,-1,29
 174 -12 174 -12 140 -12 c 256,30,19
 106 -12 106 -12 84 10 c 128,-1,20
EndSplineSet
Validated: 1
EndChar

StartChar: quotedbl
Encoding: 34 34 5
Width: 394
GlyphClass: 1
Flags: W
LayerCount: 2
Fore
SplineSet
77 621 m 2,0,1
 72 656 72 656 72 672 c 0,2,3
 72 699 72 699 85 714.5 c 128,-1,4
 98 730 98 730 120 730 c 256,5,6
 142 730 142 730 155 714.5 c 128,-1,7
 168 699 168 699 168 672 c 0,8,9
 168 656 168 656 163 621 c 2,10,-1
 142 482 l 1,11,-1
 98 482 l 1,12,-1
 77 621 l 2,0,1
231 621 m 2,13,14
 226 656 226 656 226 672 c 0,15,16
 226 699 226 699 239 714.5 c 128,-1,17
 252 730 252 730 274 730 c 256,18,19
 296 730 296 730 309 714.5 c 128,-1,20
 322 699 322 699 322 672 c 0,21,22
 322 656 322 656 317 621 c 2,23,-1
 296 482 l 1,24,-1
 252 482 l 1,25,-1
 231 621 l 2,13,14
EndSplineSet
Validated: 1
EndChar

StartChar: numbersign
Encoding: 35 35 6
Width: 712
GlyphClass: 1
Flags: W
LayerCount: 2
Fore
SplineSet
150 0 m 1,0,-1
 179 182 l 1,1,-1
 66 182 l 1,2,-1
 66 246 l 1,3,-1
 189 246 l 1,4,-1
 223 464 l 1,5,-1
 72 464 l 1,6,-1
 72 528 l 1,7,-1
 233 528 l 1,8,-1
 262 712 l 1,9,-1
 328 712 l 1,10,-1
 299 528 l 1,11,-1
 465 528 l 1,12,-1
 494 712 l 1,13,-1
 560 712 l 1,14,-1
 531 528 l 1,15,-1
 646 528 l 1,16,-1
 646 464 l 1,17,-1
 521 464 l 1,18,-1
 487 246 l 1,19,-1
 637 246 l 1,20,-1
 637 182 l 1,21,-1
 477 182 l 1,22,-1
 448 0 l 1,23,-1
 382 0 l 1,24,-1
 410 182 l 1,25,-1
 245 182 l 1,26,-1
 216 0 l 1,27,-1
 150 0 l 1,0,-1
255 246 m 1,28,-1
 421 246 l 1,29,-1
 455 464 l 1,30,-1
 289 464 l 1,31,-1
 255 246 l 1,28,-1
EndSplineSet
Validated: 1
EndChar

StartChar: dollar
Encoding: 36 36 7
Width: 580
GlyphClass: 1
Flags: W
LayerCount: 2
Fore
SplineSet
226 -9 m 1,0,1
 151 5 151 5 101.5 47.5 c 128,-1,2
 52 90 52 90 52 166 c 0,3,4
 52 207 52 207 74.5 233.5 c 128,-1,5
 97 260 97 260 131 260 c 0,6,7
 153 260 153 260 168.5 244.5 c 128,-1,8
 184 229 184 229 184 210 c 0,9,10
 184 184 184 184 174.5 171.5 c 128,-1,11
 165 159 165 159 141 145 c 0,12,13
 124 135 124 135 119 128 c 128,-1,14
 114 121 114 121 114 108 c 0,15,16
 114 80 114 80 145 57.5 c 128,-1,17
 176 35 176 35 226 24 c 1,18,-1
 226 320 l 1,19,-1
 173 353 l 2,20,21
 76 413 76 413 76 527 c 0,22,23
 76 607 76 607 118 654 c 128,-1,24
 160 701 160 701 226 718 c 1,25,-1
 226 796 l 1,26,-1
 258 796 l 1,27,-1
 258 725 l 1,28,29
 282 728 282 728 304 728 c 0,30,31
 318 728 318 728 342 726 c 1,32,-1
 342 796 l 1,33,-1
 374 796 l 1,34,-1
 374 721 l 1,35,36
 443 707 443 707 485.5 667.5 c 128,-1,37
 528 628 528 628 528 566 c 0,38,39
 528 524 528 524 508 491 c 128,-1,40
 488 458 488 458 456 458 c 0,41,42
 430 458 430 458 414.5 472 c 128,-1,43
 399 486 399 486 399 508 c 0,44,45
 399 527 399 527 410.5 541 c 128,-1,46
 422 555 422 555 438 563 c 0,47,48
 459 573 459 573 467.5 581 c 128,-1,49
 476 589 476 589 476 603 c 0,50,51
 476 629 476 629 448.5 652.5 c 128,-1,52
 421 676 421 676 374 688 c 1,53,-1
 374 399 l 1,54,-1
 413 375 l 2,55,56
 467 341 467 341 496.5 296 c 128,-1,57
 526 251 526 251 526 189 c 0,58,59
 526 109 526 109 484 60 c 128,-1,60
 442 11 442 11 374 -7 c 1,61,-1
 374 -84 l 1,62,-1
 342 -84 l 1,63,-1
 342 -13 l 1,64,65
 321 -16 321 -16 301 -16 c 0,66,67
 273 -16 273 -16 258 -14 c 1,68,-1
 258 -84 l 1,69,-1
 226 -84 l 1,70,-1
 226 -9 l 1,0,1
342 693 m 1,71,72
 323 696 323 696 300 696 c 0,73,74
 275 696 275 696 258 692 c 1,75,-1
 258 471 l 1,76,-1
 342 419 l 1,77,-1
 342 693 l 1,71,72
226 682 m 1,78,79
 192 669 192 669 172 644.5 c 128,-1,80
 152 620 152 620 152 589 c 0,81,82
 152 534 152 534 226 491 c 1,83,-1
 226 682 l 1,78,79
342 19 m 1,85,-1
 342 248 l 1,86,-1
 258 300 l 1,87,-1
 258 18 l 1,88,89
 286 16 286 16 301 16 c 0,90,84
 324 16 324 16 342 19 c 1,85,-1
429 67 m 128,-1,92
 446 93 446 93 446 121 c 0,93,94
 446 161 446 161 425 185.5 c 128,-1,95
 404 210 404 210 374 228 c 1,96,-1
 374 27 l 1,97,91
 412 41 412 41 429 67 c 128,-1,92
EndSplineSet
Validated: 1
EndChar

StartChar: percent
Encoding: 37 37 8
Width: 860
GlyphClass: 1
Flags: W
LayerCount: 2
Fore
SplineSet
161.5 386.5 m 128,-1,1
 129 409 129 409 109.5 450.5 c 128,-1,2
 90 492 90 492 90 546 c 256,3,4
 90 600 90 600 109.5 642 c 128,-1,5
 129 684 129 684 161.5 707 c 128,-1,6
 194 730 194 730 230 730 c 256,7,8
 266 730 266 730 299 707 c 128,-1,9
 332 684 332 684 352 642 c 128,-1,10
 372 600 372 600 372 546 c 256,11,12
 372 492 372 492 352 450.5 c 128,-1,13
 332 409 332 409 299.5 386.5 c 128,-1,14
 267 364 267 364 230 364 c 0,15,0
 194 364 194 364 161.5 386.5 c 128,-1,1
188 -18 m 1,16,-1
 620 730 l 1,17,-1
 670 730 l 1,18,-1
 238 -18 l 1,19,-1
 188 -18 l 1,16,-1
265.5 420 m 128,-1,21
 276 456 276 456 276 546 c 256,22,23
 276 636 276 636 265 673 c 128,-1,24
 254 710 254 710 230 710 c 256,25,26
 206 710 206 710 196 673.5 c 128,-1,27
 186 637 186 637 186 546 c 256,28,29
 186 455 186 455 196 419.5 c 128,-1,30
 206 384 206 384 230 384 c 0,31,20
 255 384 255 384 265.5 420 c 128,-1,21
559.5 6.5 m 128,-1,33
 527 29 527 29 507.5 70.5 c 128,-1,34
 488 112 488 112 488 166 c 256,35,36
 488 220 488 220 507.5 262 c 128,-1,37
 527 304 527 304 559.5 327 c 128,-1,38
 592 350 592 350 628 350 c 256,39,40
 664 350 664 350 697 327 c 128,-1,41
 730 304 730 304 750 262 c 128,-1,42
 770 220 770 220 770 166 c 256,43,44
 770 112 770 112 750 70.5 c 128,-1,45
 730 29 730 29 697.5 6.5 c 128,-1,46
 665 -16 665 -16 628 -16 c 0,47,32
 592 -16 592 -16 559.5 6.5 c 128,-1,33
663.5 40 m 128,-1,49
 674 76 674 76 674 166 c 256,50,51
 674 256 674 256 663 293 c 128,-1,52
 652 330 652 330 628 330 c 256,53,54
 604 330 604 330 594 293.5 c 128,-1,55
 584 257 584 257 584 166 c 256,56,57
 584 75 584 75 594 39.5 c 128,-1,58
 604 4 604 4 628 4 c 0,59,48
 653 4 653 4 663.5 40 c 128,-1,49
EndSplineSet
Validated: 1
EndChar

StartChar: ampersand
Encoding: 38 38 9
Width: 786
GlyphClass: 1
Flags: W
LayerCount: 2
Fore
SplineSet
101 23.5 m 128,-1,1
 44 65 44 65 44 141 c 0,2,3
 44 205 44 205 91 261.5 c 128,-1,4
 138 318 138 318 230 382 c 2,5,-1
 253 398 l 1,6,-1
 242 415 l 2,7,8
 215 457 215 457 203.5 488 c 128,-1,9
 192 519 192 519 192 566 c 0,10,11
 192 617 192 617 215.5 654.5 c 128,-1,12
 239 692 239 692 277.5 711.5 c 128,-1,13
 316 731 316 731 361 731 c 0,14,15
 403 731 403 731 429.5 711.5 c 128,-1,16
 456 692 456 692 468 664 c 128,-1,17
 480 636 480 636 480 607 c 0,18,19
 480 554 480 554 450.5 515 c 128,-1,20
 421 476 421 476 363 433 c 1,21,-1
 539 169 l 1,22,23
 569 205 569 205 588 247.5 c 128,-1,24
 607 290 607 290 607 318 c 0,25,26
 607 337 607 337 596 347.5 c 128,-1,27
 585 358 585 358 569 358 c 2,28,-1
 531 358 l 1,29,-1
 531 390 l 1,30,-1
 742 390 l 1,31,-1
 742 358 l 1,32,-1
 734 358 l 2,33,34
 680 358 680 358 646 286 c 0,35,36
 601 192 601 192 558 142 c 1,37,38
 588 92 588 92 609.5 67 c 128,-1,39
 631 42 631 42 655 42 c 0,40,41
 675 42 675 42 690.5 59 c 128,-1,42
 706 76 706 76 720 105 c 1,43,-1
 740 95 l 1,44,45
 726 55 726 55 690 18.5 c 128,-1,46
 654 -18 654 -18 603 -18 c 0,47,48
 570 -18 570 -18 535.5 3.5 c 128,-1,49
 501 25 501 25 477 61 c 1,50,51
 440 31 440 31 375 6.5 c 128,-1,52
 310 -18 310 -18 248 -18 c 0,53,0
 158 -18 158 -18 101 23.5 c 128,-1,1
412.5 530.5 m 128,-1,55
 436 564 436 564 436 615 c 0,56,57
 436 651 436 651 415.5 675 c 128,-1,58
 395 699 395 699 362 699 c 0,59,60
 331 699 331 699 307.5 678 c 128,-1,61
 284 657 284 657 284 622 c 0,62,63
 284 580 284 580 295 552.5 c 128,-1,64
 306 525 306 525 344 463 c 1,65,54
 389 497 389 497 412.5 530.5 c 128,-1,55
404.5 54.5 m 128,-1,67
 435 67 435 67 459 88 c 1,68,-1
 273 369 l 1,69,70
 239 338 239 338 220.5 315 c 128,-1,71
 202 292 202 292 193 263 c 128,-1,72
 184 234 184 234 184 193 c 0,73,74
 184 147 184 147 207.5 112.5 c 128,-1,75
 231 78 231 78 267.5 60 c 128,-1,76
 304 42 304 42 340 42 c 0,77,66
 374 42 374 42 404.5 54.5 c 128,-1,67
EndSplineSet
Validated: 1
EndChar

StartChar: quotesingle
Encoding: 39 39 10
Width: 240
GlyphClass: 1
Flags: W
LayerCount: 2
Fore
SplineSet
77 621 m 2,0,1
 72 656 72 656 72 672 c 0,2,3
 72 699 72 699 85 714.5 c 128,-1,4
 98 730 98 730 120 730 c 256,5,6
 142 730 142 730 155 714.5 c 128,-1,7
 168 699 168 699 168 672 c 0,8,9
 168 656 168 656 163 621 c 2,10,-1
 142 482 l 1,11,-1
 98 482 l 1,12,-1
 77 621 l 2,0,1
EndSplineSet
Validated: 1
EndChar

StartChar: parenleft
Encoding: 40 40 11
Width: 370
GlyphClass: 1
Flags: W
LayerCount: 2
Fore
SplineSet
131.5 5 m 128,-1,1
 60 122 60 122 60 266 c 256,2,3
 60 410 60 410 131.5 527 c 128,-1,4
 203 644 203 644 338 730 c 1,5,-1
 354 704 l 1,6,7
 265 633 265 633 230.5 567 c 128,-1,8
 196 501 196 501 196 408 c 2,9,-1
 196 124 l 2,10,11
 196 31 196 31 230.5 -35 c 128,-1,12
 265 -101 265 -101 354 -172 c 1,13,-1
 338 -198 l 1,14,0
 203 -112 203 -112 131.5 5 c 128,-1,1
EndSplineSet
Validated: 1
EndChar

StartChar: parenright
Encoding: 41 41 12
Width: 370
GlyphClass: 1
Flags: W
LayerCount: 2
Fore
SplineSet
16 -172 m 1,0,1
 105 -101 105 -101 139.5 -35 c 128,-1,2
 174 31 174 31 174 124 c 2,3,-1
 174 408 l 2,4,5
 174 501 174 501 139.5 567 c 128,-1,6
 105 633 105 633 16 704 c 1,7,-1
 32 730 l 1,8,9
 167 644 167 644 238.5 527 c 128,-1,10
 310 410 310 410 310 266 c 256,11,12
 310 122 310 122 238.5 5 c 128,-1,13
 167 -112 167 -112 32 -198 c 1,14,-1
 16 -172 l 1,0,1
EndSplineSet
Validated: 1
EndChar

StartChar: asterisk
Encoding: 42 42 13
Width: 502
GlyphClass: 1
Flags: W
LayerCount: 2
Fore
SplineSet
222 303 m 128,-1,1
 209 316 209 316 209 335 c 0,2,3
 209 360 209 360 224 384 c 0,4,5
 243 419 243 419 243 453 c 0,6,7
 243 462 243 462 241.5 465 c 128,-1,8
 240 468 240 468 235 468 c 256,9,10
 230 468 230 468 221 462 c 0,11,12
 196 443 196 443 174 410 c 0,13,14
 146 369 146 369 116 369 c 0,15,16
 97 369 97 369 83.5 382.5 c 128,-1,17
 70 396 70 396 70 415 c 0,18,19
 70 439 70 439 88.5 453 c 128,-1,20
 107 467 107 467 139 467 c 0,21,22
 186 467 186 467 213 484 c 0,23,24
 215 485 215 485 219 488 c 128,-1,25
 223 491 223 491 223 495 c 256,26,27
 223 499 223 499 219 502 c 128,-1,28
 215 505 215 505 213 506 c 0,29,30
 186 523 186 523 139 523 c 0,31,32
 107 523 107 523 88.5 537 c 128,-1,33
 70 551 70 551 70 575 c 0,34,35
 70 594 70 594 83.5 607.5 c 128,-1,36
 97 621 97 621 116 621 c 0,37,38
 146 621 146 621 174 580 c 0,39,40
 196 547 196 547 221 528 c 0,41,42
 230 522 230 522 235 522 c 256,43,44
 240 522 240 522 241.5 525 c 128,-1,45
 243 528 243 528 243 537 c 0,46,47
 243 571 243 571 224 606 c 0,48,49
 209 630 209 630 209 655 c 0,50,51
 209 674 209 674 222 687 c 128,-1,52
 235 700 235 700 255 700 c 256,53,54
 275 700 275 700 288 687 c 128,-1,55
 301 674 301 674 301 655 c 0,56,57
 301 630 301 630 286 606 c 0,58,59
 267 571 267 571 267 537 c 0,60,61
 267 528 267 528 268.5 525 c 128,-1,62
 270 522 270 522 275 522 c 256,63,64
 280 522 280 522 289 528 c 0,65,66
 314 547 314 547 336 580 c 0,67,68
 364 621 364 621 394 621 c 0,69,70
 413 621 413 621 426.5 607.5 c 128,-1,71
 440 594 440 594 440 575 c 0,72,73
 440 551 440 551 421.5 537 c 128,-1,74
 403 523 403 523 371 523 c 0,75,76
 324 523 324 523 297 506 c 0,77,78
 295 505 295 505 291 502 c 128,-1,79
 287 499 287 499 287 495 c 256,80,81
 287 491 287 491 291 488 c 128,-1,82
 295 485 295 485 297 484 c 0,83,84
 324 467 324 467 371 467 c 0,85,86
 403 467 403 467 421.5 453 c 128,-1,87
 440 439 440 439 440 415 c 0,88,89
 440 396 440 396 426.5 382.5 c 128,-1,90
 413 369 413 369 394 369 c 0,91,92
 364 369 364 369 336 410 c 0,93,94
 314 443 314 443 289 462 c 0,95,96
 280 468 280 468 275 468 c 256,97,98
 270 468 270 468 268.5 465 c 128,-1,99
 267 462 267 462 267 453 c 0,100,101
 267 419 267 419 286 384 c 0,102,103
 301 360 301 360 301 335 c 0,104,105
 301 316 301 316 288 303 c 128,-1,106
 275 290 275 290 255 290 c 256,107,0
 235 290 235 290 222 303 c 128,-1,1
EndSplineSet
Validated: 1
EndChar

StartChar: plus
Encoding: 43 43 14
Width: 940
GlyphClass: 1
Flags: W
LayerCount: 2
Fore
SplineSet
436 -156 m 1,0,-1
 436 240 l 1,1,-1
 42 240 l 1,2,-1
 42 304 l 1,3,-1
 436 304 l 1,4,-1
 436 700 l 1,5,-1
 504 700 l 1,6,-1
 504 304 l 1,7,-1
 898 304 l 1,8,-1
 898 240 l 1,9,-1
 504 240 l 1,10,-1
 504 -156 l 1,11,-1
 436 -156 l 1,0,-1
EndSplineSet
Validated: 1
EndChar

StartChar: comma
Encoding: 44 44 15
Width: 280
GlyphClass: 1
Flags: W
LayerCount: 2
Fore
SplineSet
52 -168 m 1,0,1
 115 -145 115 -145 153.5 -101.5 c 128,-1,2
 192 -58 192 -58 192 -10 c 0,3,4
 192 -3 192 -3 187.5 2.5 c 128,-1,5
 183 8 183 8 175 8 c 256,6,7
 167 8 167 8 151 0 c 0,8,9
 133 -9 133 -9 117 -9 c 0,10,11
 89 -9 89 -9 67.5 10 c 128,-1,12
 46 29 46 29 46 63 c 0,13,14
 46 103 46 103 72 125.5 c 128,-1,15
 98 148 98 148 132 148 c 0,16,17
 181 148 181 148 209.5 115.5 c 128,-1,18
 238 83 238 83 238 32 c 0,19,20
 238 -50 238 -50 190.5 -109 c 128,-1,21
 143 -168 143 -168 66 -196 c 1,22,-1
 52 -168 l 1,0,1
EndSplineSet
Validated: 1
EndChar

StartChar: hyphen
Encoding: 45 45 16
Width: 370
GlyphClass: 1
Flags: W
LayerCount: 2
Fore
SplineSet
56 208 m 1,0,-1
 56 310 l 1,1,-1
 314 310 l 1,2,-1
 314 208 l 1,3,-1
 56 208 l 1,0,-1
EndSplineSet
Validated: 1
EndChar

StartChar: period
Encoding: 46 46 17
Width: 280
GlyphClass: 1
Flags: W
LayerCount: 2
Fore
SplineSet
84 10 m 128,-1,1
 62 32 62 32 62 66 c 256,2,3
 62 100 62 100 84 122 c 128,-1,4
 106 144 106 144 140 144 c 256,5,6
 174 144 174 144 196 122 c 128,-1,7
 218 100 218 100 218 66 c 256,8,9
 218 32 218 32 196 10 c 128,-1,10
 174 -12 174 -12 140 -12 c 256,11,0
 106 -12 106 -12 84 10 c 128,-1,1
EndSplineSet
Validated: 1
EndChar

StartChar: slash
Encoding: 47 47 18
Width: 450
GlyphClass: 1
Flags: W
LayerCount: 2
Fore
SplineSet
50 -198 m 1,0,-1
 332 730 l 1,1,-1
 400 730 l 1,2,-1
 118 -198 l 1,3,-1
 50 -198 l 1,0,-1
EndSplineSet
Validated: 1
EndChar

StartChar: zero
Encoding: 48 48 19
Width: 530
GlyphClass: 1
Flags: W
LayerCount: 2
Fore
SplineSet
138.5 40 m 128,-1,1
 84 96 84 96 54.5 182.5 c 128,-1,2
 25 269 25 269 25 356 c 256,3,4
 25 443 25 443 54.5 529.5 c 128,-1,5
 84 616 84 616 138.5 672 c 128,-1,6
 193 728 193 728 265 728 c 256,7,8
 337 728 337 728 391.5 672 c 128,-1,9
 446 616 446 616 475.5 529.5 c 128,-1,10
 505 443 505 443 505 356 c 256,11,12
 505 269 505 269 475.5 182.5 c 128,-1,13
 446 96 446 96 391.5 40 c 128,-1,14
 337 -16 337 -16 265 -16 c 256,15,0
 193 -16 193 -16 138.5 40 c 128,-1,1
318.5 56.5 m 128,-1,17
 335 97 335 97 335 144 c 2,18,-1
 335 568 l 2,19,20
 335 615 335 615 318.5 655.5 c 128,-1,21
 302 696 302 696 265 696 c 256,22,23
 228 696 228 696 211.5 655.5 c 128,-1,24
 195 615 195 615 195 568 c 2,25,-1
 195 144 l 2,26,27
 195 97 195 97 211.5 56.5 c 128,-1,28
 228 16 228 16 265 16 c 256,29,16
 302 16 302 16 318.5 56.5 c 128,-1,17
EndSplineSet
Validated: 1
EndChar

StartChar: one
Encoding: 49 49 20
Width: 390
GlyphClass: 1
Flags: W
LayerCount: 2
Fore
SplineSet
25 32 m 1,0,-1
 97 32 l 2,1,2
 111 32 111 32 116 37.5 c 128,-1,3
 121 43 121 43 121 56 c 2,4,-1
 121 603 l 1,5,-1
 25 603 l 1,6,-1
 25 639 l 1,7,-1
 62 639 l 2,8,9
 106 639 106 639 143.5 658 c 128,-1,10
 181 677 181 677 194 712 c 1,11,-1
 269 712 l 1,12,-1
 269 56 l 2,13,14
 269 43 269 43 274.5 37.5 c 128,-1,15
 280 32 280 32 293 32 c 2,16,-1
 365 32 l 1,17,-1
 365 0 l 1,18,-1
 25 0 l 1,19,-1
 25 32 l 1,0,-1
EndSplineSet
Validated: 1
EndChar

StartChar: two
Encoding: 50 50 21
Width: 490
GlyphClass: 1
Flags: W
LayerCount: 2
Fore
SplineSet
167 58 m 0,1,2
 148 79 148 79 135.5 87.5 c 128,-1,3
 123 96 123 96 105 96 c 0,4,5
 91 96 91 96 82 87.5 c 128,-1,6
 73 79 73 79 73 64 c 2,7,-1
 73 0 l 1,8,-1
 33 0 l 1,9,-1
 33 47 l 2,10,11
 33 86 33 86 40.5 120.5 c 128,-1,12
 48 155 48 155 76 201.5 c 128,-1,13
 104 248 104 248 162 303 c 0,14,15
 235 374 235 374 275 432.5 c 128,-1,16
 315 491 315 491 315 560 c 0,17,18
 315 616 315 616 292 654 c 128,-1,19
 269 692 269 692 214 692 c 0,20,21
 176 692 176 692 150.5 667.5 c 128,-1,22
 125 643 125 643 125 610 c 0,23,24
 125 570 125 570 153 550 c 0,25,26
 175 534 175 534 186.5 518.5 c 128,-1,27
 198 503 198 503 198 480 c 0,28,29
 198 454 198 454 179 437 c 128,-1,30
 160 420 160 420 131 420 c 0,31,32
 88 420 88 420 56.5 451 c 128,-1,33
 25 482 25 482 25 534 c 0,34,35
 25 587 25 587 53.5 631.5 c 128,-1,36
 82 676 82 676 131.5 702 c 128,-1,37
 181 728 181 728 241 728 c 0,38,39
 351 728 351 728 408 677.5 c 128,-1,40
 465 627 465 627 465 544 c 0,41,42
 465 487 465 487 429.5 441 c 128,-1,43
 394 395 394 395 343.5 361.5 c 128,-1,44
 293 328 293 328 216 287 c 0,45,46
 173 263 173 263 135 226 c 128,-1,47
 97 189 97 189 83 137 c 1,48,-1
 87 135 l 1,49,50
 123 164 123 164 168 164 c 0,51,52
 186 164 186 164 211.5 159 c 128,-1,53
 237 154 237 154 254 148 c 0,54,55
 304 132 304 132 345 132 c 0,56,57
 381 132 381 132 405 153.5 c 128,-1,58
 429 175 429 175 429 204 c 256,59,60
 429 233 429 233 424 271 c 1,61,-1
 455 271 l 1,62,63
 461 228 461 228 461 193 c 0,64,65
 461 142 461 142 444.5 94.5 c 128,-1,66
 428 47 428 47 391 15.5 c 128,-1,67
 354 -16 354 -16 297 -16 c 0,68,0
 233 -16 233 -16 167 58 c 0,1,2
EndSplineSet
Validated: 1
EndChar

StartChar: three
Encoding: 51 51 22
Width: 510
GlyphClass: 1
Flags: W
LayerCount: 2
Fore
SplineSet
80.5 26.5 m 128,-1,1
 25 69 25 69 25 141 c 0,2,3
 25 182 25 182 52.5 212.5 c 128,-1,4
 80 243 80 243 121 243 c 0,5,6
 155 243 155 243 175 224 c 128,-1,7
 195 205 195 205 195 177 c 0,8,9
 195 128 195 128 149 108 c 0,10,11
 138 103 138 103 129.5 94 c 128,-1,12
 121 85 121 85 121 74 c 0,13,14
 121 47 121 47 147.5 31.5 c 128,-1,15
 174 16 174 16 219 16 c 0,16,17
 325 16 325 16 325 193 c 0,18,19
 325 276 325 276 296 316 c 128,-1,20
 267 356 267 356 224 356 c 2,21,-1
 123 356 l 1,22,-1
 123 392 l 1,23,-1
 222 392 l 2,24,25
 269 392 269 392 290.5 427.5 c 128,-1,26
 312 463 312 463 312 538 c 0,27,28
 312 629 312 629 290.5 662.5 c 128,-1,29
 269 696 269 696 225 696 c 0,30,31
 187 696 187 696 160 674.5 c 128,-1,32
 133 653 133 653 133 619 c 0,33,34
 133 597 133 597 163 577 c 0,35,36
 198 554 198 554 198 517 c 0,37,38
 198 493 198 493 180.5 475 c 128,-1,39
 163 457 163 457 133 457 c 0,40,41
 96 457 96 457 69.5 486.5 c 128,-1,42
 43 516 43 516 43 561 c 0,43,44
 43 611 43 611 69 649 c 128,-1,45
 95 687 95 687 139.5 707.5 c 128,-1,46
 184 728 184 728 237 728 c 0,47,48
 338 728 338 728 400 680 c 128,-1,49
 462 632 462 632 462 550 c 0,50,51
 462 479 462 479 413.5 437 c 128,-1,52
 365 395 365 395 298 381 c 1,53,-1
 298 372 l 1,54,55
 345 368 345 368 388 343.5 c 128,-1,56
 431 319 431 319 458 279 c 128,-1,57
 485 239 485 239 485 189 c 0,58,59
 485 90 485 90 413.5 37 c 128,-1,60
 342 -16 342 -16 222 -16 c 0,61,0
 136 -16 136 -16 80.5 26.5 c 128,-1,1
EndSplineSet
Validated: 1
EndChar

StartChar: four
Encoding: 52 52 23
Width: 526
GlyphClass: 1
Flags: W
LayerCount: 2
Fore
SplineSet
125 32 m 1,0,-1
 221 32 l 2,1,2
 235 32 235 32 240 37.5 c 128,-1,3
 245 43 245 43 245 56 c 2,4,-1
 245 204 l 1,5,-1
 25 204 l 1,6,-1
 25 241 l 1,7,-1
 288 713 l 1,8,-1
 393 713 l 1,9,-1
 393 240 l 1,10,-1
 501 240 l 1,11,-1
 501 204 l 1,12,-1
 393 204 l 1,13,-1
 393 56 l 2,14,15
 393 43 393 43 398.5 37.5 c 128,-1,16
 404 32 404 32 417 32 c 2,17,-1
 489 32 l 1,18,-1
 489 0 l 1,19,-1
 125 0 l 1,20,-1
 125 32 l 1,0,-1
75 240 m 1,21,-1
 245 240 l 1,22,-1
 245 544 l 1,23,-1
 75 240 l 1,21,-1
EndSplineSet
Validated: 1
EndChar

StartChar: five
Encoding: 53 53 24
Width: 490
GlyphClass: 1
Flags: W
LayerCount: 2
Fore
SplineSet
116.5 4.5 m 128,-1,1
 73 25 73 25 49 60.5 c 128,-1,2
 25 96 25 96 25 138 c 0,3,4
 25 169 25 169 39.5 193.5 c 128,-1,5
 54 218 54 218 76.5 231.5 c 128,-1,6
 99 245 99 245 122 245 c 0,7,8
 154 245 154 245 171 225.5 c 128,-1,9
 188 206 188 206 188 180 c 0,10,11
 188 140 188 140 145 118 c 0,12,13
 115 107 115 107 115 76 c 0,14,15
 115 53 115 53 140.5 34.5 c 128,-1,16
 166 16 166 16 213 16 c 0,17,18
 270 16 270 16 287.5 71 c 128,-1,19
 305 126 305 126 305 221 c 0,20,21
 305 293 305 293 297 335.5 c 128,-1,22
 289 378 289 378 268 399 c 128,-1,23
 247 420 247 420 208 420 c 0,24,25
 189 420 189 420 163 406.5 c 128,-1,26
 137 393 137 393 115.5 369.5 c 128,-1,27
 94 346 94 346 87 318 c 1,28,-1
 61 318 l 1,29,-1
 61 703 l 1,30,-1
 81 716 l 1,31,32
 143 678 143 678 219 678 c 0,33,34
 258 678 258 678 305.5 691.5 c 128,-1,35
 353 705 353 705 389 728 c 1,36,-1
 407 710 l 1,37,38
 354 631 354 631 273.5 593.5 c 128,-1,39
 193 556 193 556 101 556 c 1,40,-1
 101 400 l 1,41,-1
 107 398 l 1,42,43
 134 426 134 426 165 439 c 128,-1,44
 196 452 196 452 235 452 c 0,45,46
 304 452 304 452 356 424 c 128,-1,47
 408 396 408 396 436.5 344 c 128,-1,48
 465 292 465 292 465 224 c 0,49,50
 465 151 465 151 431 96.5 c 128,-1,51
 397 42 397 42 340 13 c 128,-1,52
 283 -16 283 -16 216 -16 c 0,53,0
 160 -16 160 -16 116.5 4.5 c 128,-1,1
EndSplineSet
Validated: 1
EndChar

StartChar: six
Encoding: 54 54 25
Width: 512
GlyphClass: 1
Flags: W
LayerCount: 2
Fore
SplineSet
138.5 32 m 128,-1,1
 84 80 84 80 54.5 161 c 128,-1,2
 25 242 25 242 25 339 c 0,3,4
 25 454 25 454 57.5 542 c 128,-1,5
 90 630 90 630 151 679 c 128,-1,6
 212 728 212 728 295 728 c 0,7,8
 342 728 342 728 376 708.5 c 128,-1,9
 410 689 410 689 427.5 658 c 128,-1,10
 445 627 445 627 445 592 c 0,11,12
 445 549 445 549 420 519 c 128,-1,13
 395 489 395 489 355 489 c 0,14,15
 325 489 325 489 306.5 507.5 c 128,-1,16
 288 526 288 526 288 556 c 0,17,18
 288 602 288 602 333 618 c 0,19,20
 353 625 353 625 363 632 c 128,-1,21
 373 639 373 639 373 650 c 0,22,23
 373 670 373 670 352 683 c 128,-1,24
 331 696 331 696 294 696 c 0,25,26
 238 696 238 696 211.5 648 c 128,-1,27
 185 600 185 600 185 533 c 2,28,-1
 185 390 l 1,29,-1
 191 387 l 1,30,31
 207 403 207 403 233 411.5 c 128,-1,32
 259 420 259 420 288 420 c 0,33,34
 388 420 388 420 437.5 361 c 128,-1,35
 487 302 487 302 487 210 c 0,36,37
 487 153 487 153 463.5 101.5 c 128,-1,38
 440 50 440 50 390.5 17 c 128,-1,39
 341 -16 341 -16 267 -16 c 256,40,0
 193 -16 193 -16 138.5 32 c 128,-1,1
315.5 39.5 m 128,-1,42
 331 63 331 63 335 99.5 c 128,-1,43
 339 136 339 136 339 200 c 0,44,45
 339 281 339 281 325.5 331.5 c 128,-1,46
 312 382 312 382 275 382 c 0,47,48
 221 382 221 382 201 340 c 0,49,50
 191 321 191 321 188 287 c 128,-1,51
 185 253 185 253 185 195 c 0,52,53
 185 104 185 104 204 60 c 128,-1,54
 223 16 223 16 266 16 c 0,55,41
 300 16 300 16 315.5 39.5 c 128,-1,42
EndSplineSet
Validated: 1
EndChar

StartChar: seven
Encoding: 55 55 26
Width: 472
GlyphClass: 1
Flags: W
LayerCount: 2
Fore
SplineSet
164.5 12 m 128,-1,1
 141 40 141 40 141 88 c 0,2,3
 141 148 141 148 170.5 201 c 128,-1,4
 200 254 200 254 253 316 c 0,5,6
 331 406 331 406 369 470 c 0,7,8
 394 514 394 514 405 563 c 1,9,-1
 401 566 l 1,10,11
 370 540 370 540 332 540 c 0,12,13
 292 540 292 540 245 558 c 0,14,15
 203 572 203 572 163 572 c 0,16,17
 122 572 122 572 96 551.5 c 128,-1,18
 70 531 70 531 66 488 c 2,19,-1
 61 428 l 1,20,-1
 25 428 l 1,21,-1
 48 712 l 1,22,-1
 84 712 l 1,23,-1
 79 646 l 1,24,-1
 83 644 l 1,25,26
 141 720 141 720 210 720 c 0,27,28
 241 720 241 720 261.5 703.5 c 128,-1,29
 282 687 282 687 303 657 c 0,30,31
 323 628 323 628 339 612 c 128,-1,32
 355 596 355 596 371 596 c 0,33,34
 403 596 403 596 403 626 c 0,35,36
 403 644 403 644 383 656 c 0,37,38
 358 670 358 670 358 693 c 0,39,40
 358 705 358 705 366 712.5 c 128,-1,41
 374 720 374 720 388 720 c 0,42,43
 414 720 414 720 430.5 690 c 128,-1,44
 447 660 447 660 447 628 c 0,45,46
 447 563 447 563 428 509.5 c 128,-1,47
 409 456 409 456 368 389 c 0,48,49
 330 326 330 326 315.5 249.5 c 128,-1,50
 301 173 301 173 301 87 c 0,51,52
 301 35 301 35 280.5 9.5 c 128,-1,53
 260 -16 260 -16 224 -16 c 256,54,0
 188 -16 188 -16 164.5 12 c 128,-1,1
EndSplineSet
Validated: 1
EndChar

StartChar: eight
Encoding: 56 56 27
Width: 532
GlyphClass: 1
Flags: W
LayerCount: 2
Fore
SplineSet
145.5 6 m 128,-1,1
 92 28 92 28 58.5 69.5 c 128,-1,2
 25 111 25 111 25 167 c 0,3,4
 25 230 25 230 62 274 c 128,-1,5
 99 318 99 318 146 338 c 1,6,-1
 146 340 l 1,7,8
 39 403 39 403 39 521 c 0,9,10
 39 587 39 587 73.5 634 c 128,-1,11
 108 681 108 681 161.5 704.5 c 128,-1,12
 215 728 215 728 271 728 c 0,13,14
 337 728 337 728 381.5 703 c 128,-1,15
 426 678 426 678 446.5 641 c 128,-1,16
 467 604 467 604 467 569 c 0,17,18
 467 519 467 519 435.5 478 c 128,-1,19
 404 437 404 437 361 415 c 1,20,-1
 361 411 l 1,21,-1
 380 401 l 2,22,23
 439 372 439 372 473 322 c 128,-1,24
 507 272 507 272 507 221 c 0,25,26
 507 156 507 156 478 102 c 128,-1,27
 449 48 449 48 392 16 c 128,-1,28
 335 -16 335 -16 255 -16 c 0,29,0
 199 -16 199 -16 145.5 6 c 128,-1,1
396 480.5 m 128,-1,31
 419 519 419 519 419 564 c 0,32,33
 419 605 419 605 398 635 c 128,-1,34
 377 665 377 665 344.5 680.5 c 128,-1,35
 312 696 312 696 278 696 c 0,36,37
 224 696 224 696 177.5 670 c 128,-1,38
 131 644 131 644 131 588 c 0,39,40
 131 548 131 548 149 527 c 128,-1,41
 167 506 167 506 202 489 c 2,42,-1
 333 426 l 1,43,30
 373 442 373 442 396 480.5 c 128,-1,31
360 32.5 m 128,-1,45
 394 49 394 49 412.5 76 c 128,-1,46
 431 103 431 103 431 134 c 0,47,48
 431 174 431 174 406 200 c 128,-1,49
 381 226 381 226 341 246 c 2,50,-1
 175 328 l 1,51,52
 135 306 135 306 114 275.5 c 128,-1,53
 93 245 93 245 93 183 c 0,54,55
 93 119 93 119 125.5 81.5 c 128,-1,56
 158 44 158 44 201.5 30 c 128,-1,57
 245 16 245 16 282 16 c 0,58,44
 326 16 326 16 360 32.5 c 128,-1,45
EndSplineSet
Validated: 1
EndChar

StartChar: nine
Encoding: 57 57 28
Width: 512
GlyphClass: 1
Flags: W
LayerCount: 2
Fore
SplineSet
136 3.5 m 128,-1,1
 102 23 102 23 84.5 54 c 128,-1,2
 67 85 67 85 67 120 c 0,3,4
 67 163 67 163 92 193 c 128,-1,5
 117 223 117 223 157 223 c 0,6,7
 187 223 187 223 205.5 204.5 c 128,-1,8
 224 186 224 186 224 156 c 0,9,10
 224 110 224 110 179 94 c 0,11,12
 159 87 159 87 149 80 c 128,-1,13
 139 73 139 73 139 62 c 0,14,15
 139 42 139 42 160 29 c 128,-1,16
 181 16 181 16 218 16 c 0,17,18
 274 16 274 16 300.5 64 c 128,-1,19
 327 112 327 112 327 179 c 2,20,-1
 327 322 l 1,21,-1
 321 325 l 1,22,23
 305 309 305 309 279 300.5 c 128,-1,24
 253 292 253 292 224 292 c 0,25,26
 124 292 124 292 74.5 351 c 128,-1,27
 25 410 25 410 25 502 c 0,28,29
 25 559 25 559 48.5 610.5 c 128,-1,30
 72 662 72 662 121.5 695 c 128,-1,31
 171 728 171 728 245 728 c 256,32,33
 319 728 319 728 373.5 680 c 128,-1,34
 428 632 428 632 457.5 551 c 128,-1,35
 487 470 487 470 487 373 c 0,36,37
 487 258 487 258 454.5 170 c 128,-1,38
 422 82 422 82 361 33 c 128,-1,39
 300 -16 300 -16 217 -16 c 0,40,0
 170 -16 170 -16 136 3.5 c 128,-1,1
311 372 m 0,42,43
 321 391 321 391 324 425 c 128,-1,44
 327 459 327 459 327 517 c 0,45,46
 327 608 327 608 308 652 c 128,-1,47
 289 696 289 696 246 696 c 0,48,49
 212 696 212 696 196.5 672.5 c 128,-1,50
 181 649 181 649 177 612.5 c 128,-1,51
 173 576 173 576 173 512 c 0,52,53
 173 431 173 431 186.5 380.5 c 128,-1,54
 200 330 200 330 237 330 c 0,55,41
 291 330 291 330 311 372 c 0,42,43
EndSplineSet
Validated: 1
EndChar

StartChar: colon
Encoding: 58 58 29
Width: 280
GlyphClass: 1
Flags: W
LayerCount: 2
Fore
SplineSet
84 352 m 128,-1,1
 62 374 62 374 62 408 c 256,2,3
 62 442 62 442 84 464 c 128,-1,4
 106 486 106 486 140 486 c 256,5,6
 174 486 174 486 196 464 c 128,-1,7
 218 442 218 442 218 408 c 256,8,9
 218 374 218 374 196 352 c 128,-1,10
 174 330 174 330 140 330 c 256,11,0
 106 330 106 330 84 352 c 128,-1,1
84 10 m 128,-1,13
 62 32 62 32 62 66 c 256,14,15
 62 100 62 100 84 122 c 128,-1,16
 106 144 106 144 140 144 c 256,17,18
 174 144 174 144 196 122 c 128,-1,19
 218 100 218 100 218 66 c 256,20,21
 218 32 218 32 196 10 c 128,-1,22
 174 -12 174 -12 140 -12 c 256,23,12
 106 -12 106 -12 84 10 c 128,-1,13
EndSplineSet
Validated: 1
EndChar

StartChar: semicolon
Encoding: 59 59 30
Width: 280
GlyphClass: 1
Flags: W
LayerCount: 2
Fore
SplineSet
84 352 m 128,-1,1
 62 374 62 374 62 408 c 256,2,3
 62 442 62 442 84 464 c 128,-1,4
 106 486 106 486 140 486 c 256,5,6
 174 486 174 486 196 464 c 128,-1,7
 218 442 218 442 218 408 c 256,8,9
 218 374 218 374 196 352 c 128,-1,10
 174 330 174 330 140 330 c 256,11,0
 106 330 106 330 84 352 c 128,-1,1
52 -168 m 1,12,13
 115 -145 115 -145 153.5 -101.5 c 128,-1,14
 192 -58 192 -58 192 -10 c 0,15,16
 192 -3 192 -3 187.5 2.5 c 128,-1,17
 183 8 183 8 175 8 c 256,18,19
 167 8 167 8 151 0 c 0,20,21
 133 -9 133 -9 117 -9 c 0,22,23
 89 -9 89 -9 67.5 10 c 128,-1,24
 46 29 46 29 46 63 c 0,25,26
 46 103 46 103 72 125.5 c 128,-1,27
 98 148 98 148 132 148 c 0,28,29
 181 148 181 148 209.5 115.5 c 128,-1,30
 238 83 238 83 238 32 c 0,31,32
 238 -50 238 -50 190.5 -109 c 128,-1,33
 143 -168 143 -168 66 -196 c 1,34,-1
 52 -168 l 1,12,13
EndSplineSet
Validated: 1
EndChar

StartChar: less
Encoding: 60 60 31
Width: 940
GlyphClass: 1
Flags: W
LayerCount: 2
Fore
SplineSet
822 -156 m 1,0,-1
 84 252 l 1,1,-1
 84 292 l 1,2,-1
 822 700 l 1,3,-1
 854 644 l 1,4,-1
 180 272 l 1,5,-1
 854 -100 l 1,6,-1
 822 -156 l 1,0,-1
EndSplineSet
Validated: 1
EndChar

StartChar: equal
Encoding: 61 61 32
Width: 940
GlyphClass: 1
Flags: W
LayerCount: 2
Fore
SplineSet
48 344 m 1,0,-1
 48 408 l 1,1,-1
 892 408 l 1,2,-1
 892 344 l 1,3,-1
 48 344 l 1,0,-1
48 136 m 1,4,-1
 48 200 l 1,5,-1
 892 200 l 1,6,-1
 892 136 l 1,7,-1
 48 136 l 1,4,-1
EndSplineSet
Validated: 1
EndChar

StartChar: greater
Encoding: 62 62 33
Width: 940
GlyphClass: 1
Flags: W
LayerCount: 2
Fore
SplineSet
118 -156 m 1,0,-1
 86 -100 l 1,1,-1
 760 272 l 1,2,-1
 86 644 l 1,3,-1
 118 700 l 1,4,-1
 856 292 l 1,5,-1
 856 252 l 1,6,-1
 118 -156 l 1,0,-1
EndSplineSet
Validated: 1
EndChar

StartChar: question
Encoding: 63 63 34
Width: 470
GlyphClass: 1
Flags: W
LayerCount: 2
Fore
SplineSet
177.5 197 m 128,-1,1
 150 218 150 218 150 257 c 0,2,3
 150 292 150 292 163.5 325 c 128,-1,4
 177 358 177 358 202 397 c 0,5,6
 237 451 237 451 253.5 494.5 c 128,-1,7
 270 538 270 538 270 601 c 0,8,9
 270 640 270 640 251 666 c 128,-1,10
 232 692 232 692 198 692 c 0,11,12
 158 692 158 692 132 659.5 c 128,-1,13
 106 627 106 627 106 584 c 0,14,15
 106 547 106 547 114.5 525 c 128,-1,16
 123 503 123 503 144 476 c 1,17,-1
 121 459 l 1,18,19
 96 490 96 490 84 518 c 128,-1,20
 72 546 72 546 72 586 c 0,21,22
 72 624 72 624 90.5 657.5 c 128,-1,23
 109 691 109 691 144.5 711.5 c 128,-1,24
 180 732 180 732 229 732 c 0,25,26
 276 732 276 732 313 713 c 128,-1,27
 350 694 350 694 371 661.5 c 128,-1,28
 392 629 392 629 392 588 c 0,29,30
 392 541 392 541 358 493 c 128,-1,31
 324 445 324 445 269 394 c 0,32,33
 227 355 227 355 205.5 324.5 c 128,-1,34
 184 294 184 294 184 256 c 0,35,36
 184 231 184 231 202 218.5 c 128,-1,37
 220 206 220 206 245 206 c 0,38,39
 271 206 271 206 286 224.5 c 128,-1,40
 301 243 301 243 301 272 c 0,41,42
 301 284 301 284 296 298 c 1,43,-1
 320 308 l 1,44,45
 325 297 325 297 327 289.5 c 128,-1,46
 329 282 329 282 329 271 c 0,47,48
 329 229 329 229 304.5 202.5 c 128,-1,49
 280 176 280 176 245 176 c 0,50,0
 205 176 205 176 177.5 197 c 128,-1,1
192 10 m 128,-1,52
 170 32 170 32 170 66 c 256,53,54
 170 100 170 100 192 122 c 128,-1,55
 214 144 214 144 248 144 c 256,56,57
 282 144 282 144 304 122 c 128,-1,58
 326 100 326 100 326 66 c 256,59,60
 326 32 326 32 304 10 c 128,-1,61
 282 -12 282 -12 248 -12 c 256,62,51
 214 -12 214 -12 192 10 c 128,-1,52
EndSplineSet
Validated: 1
EndChar

StartChar: at
Encoding: 64 64 35
Width: 820
GlyphClass: 1
Flags: W
LayerCount: 2
Fore
SplineSet
222 27.5 m 128,-1,1
 140 73 140 73 92 156 c 128,-1,2
 44 239 44 239 44 347 c 0,3,4
 44 451 44 451 94 539 c 128,-1,5
 144 627 144 627 230.5 678.5 c 128,-1,6
 317 730 317 730 422 730 c 0,7,8
 529 730 529 730 609 683 c 128,-1,9
 689 636 689 636 732.5 557.5 c 128,-1,10
 776 479 776 479 776 386 c 0,11,12
 776 332 776 332 749.5 272 c 128,-1,13
 723 212 723 212 671.5 171 c 128,-1,14
 620 130 620 130 548 130 c 0,15,16
 511 130 511 130 485 150.5 c 128,-1,17
 459 171 459 171 455 206 c 1,18,-1
 451 207 l 1,19,20
 431 180 431 180 397 155 c 128,-1,21
 363 130 363 130 321 130 c 0,22,23
 272 130 272 130 236 162 c 128,-1,24
 200 194 200 194 200 254 c 0,25,26
 200 317 200 317 216 379.5 c 128,-1,27
 232 442 232 442 263 481 c 0,28,29
 304 532 304 532 347.5 555 c 128,-1,30
 391 578 391 578 432 578 c 0,31,32
 457 578 457 578 475 561.5 c 128,-1,33
 493 545 493 545 499 523 c 1,34,-1
 503 523 l 1,35,-1
 514 566 l 1,36,-1
 621 566 l 1,37,-1
 548 257 l 2,38,39
 543 230 543 230 543 214 c 0,40,41
 543 188 543 188 555 175 c 128,-1,42
 567 162 567 162 579 162 c 0,43,44
 620 162 620 162 648 199 c 128,-1,45
 676 236 676 236 690 290.5 c 128,-1,46
 704 345 704 345 704 397 c 0,47,48
 704 489 704 489 667 557.5 c 128,-1,49
 630 626 630 626 564 662 c 128,-1,50
 498 698 498 698 412 698 c 0,51,52
 331 698 331 698 263 653 c 128,-1,53
 195 608 195 608 155.5 527 c 128,-1,54
 116 446 116 446 116 344 c 0,55,56
 116 244 116 244 153 169.5 c 128,-1,57
 190 95 190 95 260 54.5 c 128,-1,58
 330 14 330 14 426 14 c 0,59,60
 474 14 474 14 518 31.5 c 128,-1,61
 562 49 562 49 594 70 c 1,62,-1
 609 43 l 1,63,64
 577 20 577 20 525 1 c 128,-1,65
 473 -18 473 -18 404 -18 c 0,66,0
 304 -18 304 -18 222 27.5 c 128,-1,1
413 208 m 128,-1,68
 444 262 444 262 459 335 c 0,69,70
 483 436 483 436 483 475 c 0,71,72
 483 511 483 511 472 532.5 c 128,-1,73
 461 554 461 554 442 554 c 0,74,75
 412 554 412 554 388 526.5 c 128,-1,76
 364 499 364 499 341 434 c 0,77,78
 327 395 327 395 317.5 336 c 128,-1,79
 308 277 308 277 308 223 c 0,80,81
 308 192 308 192 319.5 173 c 128,-1,82
 331 154 331 154 345 154 c 0,83,67
 382 154 382 154 413 208 c 128,-1,68
EndSplineSet
Validated: 1
EndChar

StartChar: A
Encoding: 65 65 36
Width: 721
GlyphClass: 1
Flags: W
LayerCount: 2
Fore
SplineSet
22 32 m 1,0,-1
 56 32 l 2,1,2
 86 32 86 32 109 55.5 c 128,-1,3
 132 79 132 79 144 113 c 2,4,-1
 355 730 l 1,5,-1
 397 730 l 1,6,-1
 611 83 l 2,7,8
 628 32 628 32 670 32 c 2,9,-1
 710 32 l 1,10,-1
 710 0 l 1,11,-1
 359 0 l 1,12,-1
 359 32 l 1,13,-1
 431 32 l 2,14,15
 443 32 443 32 450.5 41.5 c 128,-1,16
 458 51 458 51 458 64 c 0,17,18
 458 75 458 75 452 93 c 2,19,-1
 420 189 l 1,20,-1
 210 189 l 1,21,-1
 189 128 l 2,22,23
 178 100 178 100 178 77 c 0,24,25
 178 59 178 59 192.5 45.5 c 128,-1,26
 207 32 207 32 230 32 c 2,27,-1
 277 32 l 1,28,-1
 277 0 l 1,29,-1
 22 0 l 1,30,-1
 22 32 l 1,0,-1
223 226 m 1,31,-1
 408 226 l 1,32,-1
 317 501 l 1,33,-1
 223 226 l 1,31,-1
EndSplineSet
Validated: 1
EndChar

StartChar: B
Encoding: 66 66 37
Width: 655
GlyphClass: 1
Flags: W
LayerCount: 2
Fore
SplineSet
31 32 m 1,0,-1
 101 32 l 2,1,2
 115 32 115 32 120 37.5 c 128,-1,3
 125 43 125 43 125 56 c 2,4,-1
 125 656 l 2,5,6
 125 670 125 670 120 675 c 128,-1,7
 115 680 115 680 101 680 c 2,8,-1
 31 680 l 1,9,-1
 31 712 l 1,10,-1
 383 712 l 2,11,12
 442 712 442 712 493.5 690 c 128,-1,13
 545 668 545 668 576 629.5 c 128,-1,14
 607 591 607 591 607 542 c 0,15,16
 607 476 607 476 558 435 c 128,-1,17
 509 394 509 394 438 375 c 1,18,-1
 438 369 l 1,19,20
 484 362 484 362 528.5 339.5 c 128,-1,21
 573 317 573 317 602 280 c 128,-1,22
 631 243 631 243 631 194 c 0,23,24
 631 133 631 133 599 89 c 128,-1,25
 567 45 567 45 513.5 22.5 c 128,-1,26
 460 0 460 0 396 0 c 2,27,-1
 31 0 l 1,28,-1
 31 32 l 1,0,-1
365 388 m 2,29,30
 419 388 419 388 438 426.5 c 128,-1,31
 457 465 457 465 457 542 c 0,32,33
 457 607 457 607 434 643.5 c 128,-1,34
 411 680 411 680 371 680 c 2,35,-1
 297 680 l 2,36,37
 284 680 284 680 278.5 675 c 128,-1,38
 273 670 273 670 273 656 c 2,39,-1
 273 388 l 1,40,-1
 365 388 l 2,29,30
365 32 m 2,41,42
 418 32 418 32 444.5 67.5 c 128,-1,43
 471 103 471 103 471 194 c 256,44,45
 471 285 471 285 444.5 320.5 c 128,-1,46
 418 356 418 356 365 356 c 2,47,-1
 273 356 l 1,48,-1
 273 56 l 2,49,50
 273 43 273 43 278.5 37.5 c 128,-1,51
 284 32 284 32 297 32 c 2,52,-1
 365 32 l 2,41,42
EndSplineSet
Validated: 1
EndChar

StartChar: C
Encoding: 67 67 38
Width: 601
GlyphClass: 1
Flags: W
LayerCount: 2
Fore
SplineSet
166.5 34.5 m 128,-1,1
 101 87 101 87 68 172.5 c 128,-1,2
 35 258 35 258 35 356 c 0,3,4
 35 457 35 457 69 542.5 c 128,-1,5
 103 628 103 628 166.5 679 c 128,-1,6
 230 730 230 730 315 730 c 0,7,8
 352 730 352 730 383.5 717.5 c 128,-1,9
 415 705 415 705 450 681 c 0,10,11
 473 666 473 666 484 666 c 0,12,13
 492 666 492 666 497 670.5 c 128,-1,14
 502 675 502 675 506 685 c 2,15,-1
 524 722 l 1,16,-1
 557 722 l 1,17,-1
 557 415 l 1,18,-1
 525 415 l 1,19,20
 502 544 502 544 445.5 621 c 128,-1,21
 389 698 389 698 315 698 c 0,22,23
 268 698 268 698 236.5 652 c 128,-1,24
 205 606 205 606 205 506 c 2,25,-1
 205 206 l 2,26,27
 205 107 205 107 240.5 60.5 c 128,-1,28
 276 14 276 14 325 14 c 0,29,30
 444 14 444 14 502 123 c 0,31,32
 531 176 531 176 541 275 c 1,33,-1
 577 275 l 1,34,35
 574 231 574 231 563.5 186.5 c 128,-1,36
 553 142 553 142 536 109 c 0,37,38
 505 49 505 49 451.5 15.5 c 128,-1,39
 398 -18 398 -18 325 -18 c 0,40,0
 232 -18 232 -18 166.5 34.5 c 128,-1,1
EndSplineSet
Validated: 1
EndChar

StartChar: D
Encoding: 68 68 39
Width: 730
GlyphClass: 1
Flags: W
LayerCount: 2
Fore
SplineSet
31 32 m 1,0,-1
 101 32 l 2,1,2
 115 32 115 32 120 37.5 c 128,-1,3
 125 43 125 43 125 56 c 2,4,-1
 125 656 l 2,5,6
 125 670 125 670 120 675 c 128,-1,7
 115 680 115 680 101 680 c 2,8,-1
 31 680 l 1,9,-1
 31 712 l 1,10,-1
 403 712 l 2,11,12
 486 712 486 712 555 667.5 c 128,-1,13
 624 623 624 623 664.5 543.5 c 128,-1,14
 705 464 705 464 705 362 c 256,15,16
 705 260 705 260 664.5 177 c 128,-1,17
 624 94 624 94 554.5 47 c 128,-1,18
 485 0 485 0 403 0 c 2,19,-1
 31 0 l 1,20,-1
 31 32 l 1,0,-1
386 32 m 2,21,22
 450 32 450 32 492.5 76.5 c 128,-1,23
 535 121 535 121 535 206 c 2,24,-1
 535 506 l 2,25,26
 535 591 535 591 492.5 635.5 c 128,-1,27
 450 680 450 680 386 680 c 2,28,-1
 297 680 l 2,29,30
 284 680 284 680 278.5 675 c 128,-1,31
 273 670 273 670 273 656 c 2,32,-1
 273 56 l 2,33,34
 273 43 273 43 278.5 37.5 c 128,-1,35
 284 32 284 32 297 32 c 2,36,-1
 386 32 l 2,21,22
EndSplineSet
Validated: 1
EndChar

StartChar: E
Encoding: 69 69 40
Width: 633
GlyphClass: 1
Flags: W
LayerCount: 2
Fore
SplineSet
31 32 m 1,0,-1
 101 32 l 2,1,2
 115 32 115 32 120 37.5 c 128,-1,3
 125 43 125 43 125 56 c 2,4,-1
 125 656 l 2,5,6
 125 670 125 670 120 675 c 128,-1,7
 115 680 115 680 101 680 c 2,8,-1
 31 680 l 1,9,-1
 31 712 l 1,10,-1
 593 712 l 1,11,-1
 599 480 l 1,12,-1
 567 480 l 1,13,14
 567 487 567 487 556.5 525 c 128,-1,15
 546 563 546 563 527 594 c 0,16,17
 504 634 504 634 474 657 c 128,-1,18
 444 680 444 680 407 680 c 2,19,-1
 297 680 l 2,20,21
 284 680 284 680 278.5 675 c 128,-1,22
 273 670 273 670 273 656 c 2,23,-1
 273 380 l 1,24,-1
 324 380 l 2,25,26
 351 380 351 380 374 402 c 128,-1,27
 397 424 397 424 410.5 456.5 c 128,-1,28
 424 489 424 489 424 518 c 1,29,-1
 456 518 l 1,30,-1
 456 205 l 1,31,-1
 424 205 l 1,32,33
 424 235 424 235 410.5 267.5 c 128,-1,34
 397 300 397 300 374 322 c 128,-1,35
 351 344 351 344 324 344 c 2,36,-1
 273 344 l 1,37,-1
 273 56 l 2,38,39
 273 43 273 43 278.5 37.5 c 128,-1,40
 284 32 284 32 297 32 c 2,41,-1
 406 32 l 2,42,43
 461 32 461 32 498 76 c 128,-1,44
 535 120 535 120 554 174 c 0,45,46
 562 197 562 197 568 231 c 128,-1,47
 574 265 574 265 575 276 c 1,48,-1
 607 276 l 1,49,-1
 601 0 l 1,50,-1
 31 0 l 1,51,-1
 31 32 l 1,0,-1
EndSplineSet
Validated: 1
EndChar

StartChar: F
Encoding: 70 70 41
Width: 621
GlyphClass: 1
Flags: W
LayerCount: 2
Fore
SplineSet
31 32 m 1,0,-1
 101 32 l 2,1,2
 115 32 115 32 120 37.5 c 128,-1,3
 125 43 125 43 125 56 c 2,4,-1
 125 656 l 2,5,6
 125 670 125 670 120 675 c 128,-1,7
 115 680 115 680 101 680 c 2,8,-1
 31 680 l 1,9,-1
 31 712 l 1,10,-1
 595 712 l 1,11,-1
 603 438 l 1,12,-1
 571 438 l 1,13,14
 571 446 571 446 561 492 c 128,-1,15
 551 538 551 538 535 571 c 0,16,17
 514 616 514 616 478.5 648 c 128,-1,18
 443 680 443 680 399 680 c 2,19,-1
 297 680 l 2,20,21
 284 680 284 680 278.5 675 c 128,-1,22
 273 670 273 670 273 656 c 2,23,-1
 273 380 l 1,24,-1
 324 380 l 2,25,26
 351 380 351 380 374 402 c 128,-1,27
 397 424 397 424 410.5 456.5 c 128,-1,28
 424 489 424 489 424 518 c 1,29,-1
 456 518 l 1,30,-1
 456 205 l 1,31,-1
 424 205 l 1,32,33
 424 235 424 235 410.5 267.5 c 128,-1,34
 397 300 397 300 374 322 c 128,-1,35
 351 344 351 344 324 344 c 2,36,-1
 273 344 l 1,37,-1
 273 56 l 2,38,39
 273 43 273 43 278.5 37.5 c 128,-1,40
 284 32 284 32 297 32 c 2,41,-1
 388 32 l 1,42,-1
 388 0 l 1,43,-1
 31 0 l 1,44,-1
 31 32 l 1,0,-1
EndSplineSet
Validated: 1
EndChar

StartChar: G
Encoding: 71 71 42
Width: 669
GlyphClass: 1
Flags: W
LayerCount: 2
Fore
SplineSet
166.5 33 m 128,-1,1
 103 84 103 84 69 169.5 c 128,-1,2
 35 255 35 255 35 356 c 0,3,4
 35 456 35 456 73 542 c 128,-1,5
 111 628 111 628 179 679 c 128,-1,6
 247 730 247 730 333 730 c 0,7,8
 376 730 376 730 407.5 717.5 c 128,-1,9
 439 705 439 705 475 681 c 0,10,11
 498 666 498 666 509 666 c 0,12,13
 522 666 522 666 531 685 c 2,14,-1
 548 722 l 1,15,-1
 581 722 l 1,16,-1
 581 434 l 1,17,-1
 550 434 l 1,18,19
 515 561 515 561 460.5 629.5 c 128,-1,20
 406 698 406 698 333 698 c 0,21,22
 272 698 272 698 238.5 653.5 c 128,-1,23
 205 609 205 609 205 506 c 2,24,-1
 205 206 l 2,25,26
 205 14 205 14 315 14 c 0,27,28
 367 14 367 14 400 58 c 128,-1,29
 433 102 433 102 433 161 c 2,30,-1
 433 298 l 2,31,32
 433 312 433 312 428 317 c 128,-1,33
 423 322 423 322 409 322 c 2,34,-1
 321 322 l 1,35,-1
 321 354 l 1,36,-1
 653 354 l 1,37,-1
 653 322 l 1,38,-1
 605 322 l 2,39,40
 592 322 592 322 586.5 317 c 128,-1,41
 581 312 581 312 581 298 c 2,42,-1
 581 -13 l 1,43,-1
 549 -13 l 1,44,-1
 525 78 l 2,45,46
 522 88 522 88 516 95.5 c 128,-1,47
 510 103 510 103 501 103 c 0,48,49
 483 103 483 103 470 82 c 0,50,51
 445 44 445 44 405 13 c 128,-1,52
 365 -18 365 -18 315 -18 c 0,53,0
 230 -18 230 -18 166.5 33 c 128,-1,1
EndSplineSet
Validated: 1
EndChar

StartChar: H
Encoding: 72 72 43
Width: 772
GlyphClass: 1
Flags: W
LayerCount: 2
Fore
SplineSet
31 32 m 1,0,-1
 101 32 l 2,1,2
 115 32 115 32 120 37.5 c 128,-1,3
 125 43 125 43 125 56 c 2,4,-1
 125 656 l 2,5,6
 125 670 125 670 120 675 c 128,-1,7
 115 680 115 680 101 680 c 2,8,-1
 31 680 l 1,9,-1
 31 712 l 1,10,-1
 367 712 l 1,11,-1
 367 680 l 1,12,-1
 297 680 l 2,13,14
 284 680 284 680 278.5 675 c 128,-1,15
 273 670 273 670 273 656 c 2,16,-1
 273 392 l 1,17,-1
 509 392 l 1,18,-1
 509 656 l 2,19,20
 509 670 509 670 504 675 c 128,-1,21
 499 680 499 680 485 680 c 2,22,-1
 413 680 l 1,23,-1
 413 712 l 1,24,-1
 751 712 l 1,25,-1
 751 680 l 1,26,-1
 681 680 l 2,27,28
 668 680 668 680 662.5 675 c 128,-1,29
 657 670 657 670 657 656 c 2,30,-1
 657 56 l 2,31,32
 657 43 657 43 662.5 37.5 c 128,-1,33
 668 32 668 32 681 32 c 2,34,-1
 751 32 l 1,35,-1
 751 0 l 1,36,-1
 415 0 l 1,37,-1
 415 32 l 1,38,-1
 485 32 l 2,39,40
 499 32 499 32 504 37.5 c 128,-1,41
 509 43 509 43 509 56 c 2,42,-1
 509 356 l 1,43,-1
 273 356 l 1,44,-1
 273 56 l 2,45,46
 273 43 273 43 278.5 37.5 c 128,-1,47
 284 32 284 32 297 32 c 2,48,-1
 367 32 l 1,49,-1
 367 0 l 1,50,-1
 31 0 l 1,51,-1
 31 32 l 1,0,-1
EndSplineSet
Validated: 1
EndChar

StartChar: I
Encoding: 73 73 44
Width: 388
GlyphClass: 1
Flags: W
LayerCount: 2
Fore
SplineSet
31 32 m 1,0,-1
 101 32 l 2,1,2
 115 32 115 32 120 37.5 c 128,-1,3
 125 43 125 43 125 56 c 2,4,-1
 125 656 l 2,5,6
 125 670 125 670 120 675 c 128,-1,7
 115 680 115 680 101 680 c 2,8,-1
 31 680 l 1,9,-1
 31 712 l 1,10,-1
 367 712 l 1,11,-1
 367 680 l 1,12,-1
 297 680 l 2,13,14
 284 680 284 680 278.5 675 c 128,-1,15
 273 670 273 670 273 656 c 2,16,-1
 273 56 l 2,17,18
 273 43 273 43 278.5 37.5 c 128,-1,19
 284 32 284 32 297 32 c 2,20,-1
 367 32 l 1,21,-1
 367 0 l 1,22,-1
 31 0 l 1,23,-1
 31 32 l 1,0,-1
EndSplineSet
Validated: 1
EndChar

StartChar: J
Encoding: 74 74 45
Width: 508
GlyphClass: 1
Flags: W
LayerCount: 2
Fore
SplineSet
106.5 2 m 128,-1,1
 66 22 66 22 42 60.5 c 128,-1,2
 18 99 18 99 18 154 c 0,3,4
 18 189 18 189 31 215.5 c 128,-1,5
 44 242 44 242 65 256.5 c 128,-1,6
 86 271 86 271 108 271 c 0,7,8
 140 271 140 271 159.5 250.5 c 128,-1,9
 179 230 179 230 179 202 c 0,10,11
 179 168 179 168 161 147.5 c 128,-1,12
 143 127 143 127 118 118 c 0,13,14
 101 112 101 112 93.5 102.5 c 128,-1,15
 86 93 86 93 86 76 c 0,16,17
 86 63 86 63 98.5 48 c 128,-1,18
 111 33 111 33 133.5 23.5 c 128,-1,19
 156 14 156 14 184 14 c 0,20,21
 260 14 260 14 260 130 c 2,22,-1
 260 656 l 2,23,24
 260 670 260 670 255 675 c 128,-1,25
 250 680 250 680 236 680 c 2,26,-1
 156 680 l 1,27,-1
 156 712 l 1,28,-1
 494 712 l 1,29,-1
 494 680 l 1,30,-1
 432 680 l 2,31,32
 419 680 419 680 413.5 675 c 128,-1,33
 408 670 408 670 408 656 c 2,34,-1
 408 194 l 2,35,36
 408 129 408 129 377 81 c 128,-1,37
 346 33 346 33 297.5 7.5 c 128,-1,38
 249 -18 249 -18 196 -18 c 0,39,0
 147 -18 147 -18 106.5 2 c 128,-1,1
EndSplineSet
Validated: 1
EndChar

StartChar: K
Encoding: 75 75 46
Width: 729
GlyphClass: 1
Flags: W
LayerCount: 2
Fore
SplineSet
31 32 m 1,0,-1
 101 32 l 2,1,2
 115 32 115 32 120 37.5 c 128,-1,3
 125 43 125 43 125 56 c 2,4,-1
 125 656 l 2,5,6
 125 670 125 670 120 675 c 128,-1,7
 115 680 115 680 101 680 c 2,8,-1
 31 680 l 1,9,-1
 31 712 l 1,10,-1
 359 712 l 1,11,-1
 359 680 l 1,12,-1
 297 680 l 2,13,14
 284 680 284 680 278.5 675 c 128,-1,15
 273 670 273 670 273 656 c 2,16,-1
 273 360 l 1,17,-1
 466 584 l 2,18,19
 480 600 480 600 485.5 611.5 c 128,-1,20
 491 623 491 623 491 638 c 0,21,22
 491 656 491 656 481 668 c 128,-1,23
 471 680 471 680 455 680 c 2,24,-1
 426 680 l 1,25,-1
 426 712 l 1,26,-1
 673 712 l 1,27,-1
 673 680 l 1,28,-1
 638 680 l 2,29,30
 617 680 617 680 594.5 665.5 c 128,-1,31
 572 651 572 651 555 630 c 2,32,-1
 421 475 l 1,33,-1
 632 76 l 2,34,35
 645 51 645 51 657 41.5 c 128,-1,36
 669 32 669 32 692 32 c 2,37,-1
 719 32 l 1,38,-1
 719 0 l 1,39,-1
 405 0 l 1,40,-1
 405 32 l 1,41,-1
 445 32 l 2,42,43
 454 32 454 32 460 38.5 c 128,-1,44
 466 45 466 45 466 53 c 0,45,46
 466 59 466 59 464.5 66.5 c 128,-1,47
 463 74 463 74 461 78 c 2,48,-1
 316 354 l 1,49,-1
 273 305 l 1,50,-1
 273 56 l 2,51,52
 273 43 273 43 278.5 37.5 c 128,-1,53
 284 32 284 32 297 32 c 2,54,-1
 359 32 l 1,55,-1
 359 0 l 1,56,-1
 31 0 l 1,57,-1
 31 32 l 1,0,-1
EndSplineSet
Validated: 1
EndChar

StartChar: L
Encoding: 76 76 47
Width: 622
GlyphClass: 1
Flags: W
LayerCount: 2
Fore
SplineSet
31 32 m 1,0,-1
 101 32 l 2,1,2
 114 32 114 32 119.5 38.5 c 128,-1,3
 125 45 125 45 125 59 c 2,4,-1
 125 656 l 2,5,6
 125 670 125 670 120 675 c 128,-1,7
 115 680 115 680 101 680 c 2,8,-1
 31 680 l 1,9,-1
 31 712 l 1,10,-1
 367 712 l 1,11,-1
 367 680 l 1,12,-1
 297 680 l 2,13,14
 284 680 284 680 278.5 675 c 128,-1,15
 273 670 273 670 273 656 c 2,16,-1
 273 59 l 2,17,18
 273 45 273 45 278.5 38.5 c 128,-1,19
 284 32 284 32 297 32 c 2,20,-1
 398 32 l 2,21,22
 452 32 452 32 490.5 88 c 128,-1,23
 529 144 529 144 548 206 c 0,24,25
 555 229 555 229 563 263 c 128,-1,26
 571 297 571 297 573 308 c 1,27,-1
 605 308 l 1,28,-1
 597 0 l 1,29,-1
 31 0 l 1,30,-1
 31 32 l 1,0,-1
EndSplineSet
Validated: 1
EndChar

StartChar: M
Encoding: 77 77 48
Width: 850
GlyphClass: 1
Flags: W
LayerCount: 2
Fore
SplineSet
175 537 m 1,0,-1
 168 537 l 1,1,-1
 168 122 l 2,2,3
 168 77 168 77 198.5 54.5 c 128,-1,4
 229 32 229 32 272 32 c 1,5,-1
 272 0 l 1,6,-1
 24 0 l 1,7,-1
 24 32 l 1,8,9
 67 32 67 32 97.5 54.5 c 128,-1,10
 128 77 128 77 128 122 c 2,11,-1
 128 656 l 2,12,13
 128 670 128 670 123 675 c 128,-1,14
 118 680 118 680 104 680 c 2,15,-1
 24 680 l 1,16,-1
 24 712 l 1,17,-1
 263 712 l 1,18,-1
 446 220 l 1,19,-1
 580 712 l 1,20,-1
 834 712 l 1,21,-1
 834 680 l 1,22,-1
 764 680 l 2,23,24
 751 680 751 680 745.5 675 c 128,-1,25
 740 670 740 670 740 656 c 2,26,-1
 740 56 l 2,27,28
 740 43 740 43 745.5 37.5 c 128,-1,29
 751 32 751 32 764 32 c 2,30,-1
 834 32 l 1,31,-1
 834 0 l 1,32,-1
 498 0 l 1,33,-1
 498 32 l 1,34,-1
 568 32 l 2,35,36
 582 32 582 32 587 37.5 c 128,-1,37
 592 43 592 43 592 56 c 2,38,-1
 592 625 l 1,39,-1
 418 -12 l 1,40,-1
 379 -12 l 1,41,-1
 175 537 l 1,0,-1
EndSplineSet
Validated: 1
EndChar

StartChar: N
Encoding: 78 78 49
Width: 736
GlyphClass: 1
Flags: W
LayerCount: 2
Fore
SplineSet
194 517 m 1,0,-1
 190 517 l 1,1,-1
 190 136 l 2,2,3
 190 90 190 90 225.5 61 c 128,-1,4
 261 32 261 32 316 32 c 1,5,-1
 316 0 l 1,6,-1
 24 0 l 1,7,-1
 24 32 l 1,8,9
 79 32 79 32 114.5 61 c 128,-1,10
 150 90 150 90 150 136 c 2,11,-1
 150 563 l 2,12,13
 150 574 150 574 148 579 c 128,-1,14
 146 584 146 584 139 594 c 2,15,-1
 99 654 l 2,16,17
 89 669 89 669 77 674.5 c 128,-1,18
 65 680 65 680 42 680 c 2,19,-1
 24 680 l 1,20,-1
 24 712 l 1,21,-1
 246 712 l 1,22,-1
 566 255 l 1,23,-1
 566 576 l 2,24,25
 566 622 566 622 530.5 651 c 128,-1,26
 495 680 495 680 440 680 c 1,27,-1
 440 712 l 1,28,-1
 732 712 l 1,29,-1
 732 680 l 1,30,31
 677 680 677 680 641.5 651 c 128,-1,32
 606 622 606 622 606 576 c 2,33,-1
 606 -18 l 1,34,-1
 568 -18 l 1,35,-1
 194 517 l 1,0,-1
EndSplineSet
Validated: 1
EndChar

StartChar: O
Encoding: 79 79 50
Width: 652
GlyphClass: 1
Flags: W
LayerCount: 2
Fore
SplineSet
185.5 35 m 128,-1,1
 117 88 117 88 76 174.5 c 128,-1,2
 35 261 35 261 35 356 c 256,3,4
 35 451 35 451 76 537.5 c 128,-1,5
 117 624 117 624 185.5 677 c 128,-1,6
 254 730 254 730 331 730 c 256,7,8
 408 730 408 730 476.5 677 c 128,-1,9
 545 624 545 624 586 537.5 c 128,-1,10
 627 451 627 451 627 356 c 256,11,12
 627 261 627 261 586 174.5 c 128,-1,13
 545 88 545 88 476.5 35 c 128,-1,14
 408 -18 408 -18 331 -18 c 256,15,0
 254 -18 254 -18 185.5 35 c 128,-1,1
424.5 58.5 m 128,-1,17
 457 103 457 103 457 206 c 2,18,-1
 457 506 l 2,19,20
 457 609 457 609 424.5 653.5 c 128,-1,21
 392 698 392 698 331 698 c 256,22,23
 270 698 270 698 237.5 653.5 c 128,-1,24
 205 609 205 609 205 506 c 2,25,-1
 205 206 l 2,26,27
 205 103 205 103 237.5 58.5 c 128,-1,28
 270 14 270 14 331 14 c 256,29,16
 392 14 392 14 424.5 58.5 c 128,-1,17
EndSplineSet
Validated: 1
EndChar

StartChar: P
Encoding: 80 80 51
Width: 649
GlyphClass: 1
Flags: W
LayerCount: 2
Fore
SplineSet
31 32 m 1,0,-1
 101 32 l 2,1,2
 115 32 115 32 120 37.5 c 128,-1,3
 125 43 125 43 125 56 c 2,4,-1
 125 656 l 2,5,6
 125 670 125 670 120 675 c 128,-1,7
 115 680 115 680 101 680 c 2,8,-1
 31 680 l 1,9,-1
 31 712 l 1,10,-1
 387 712 l 2,11,12
 457 712 457 712 511.5 688.5 c 128,-1,13
 566 665 566 665 596.5 622.5 c 128,-1,14
 627 580 627 580 627 526 c 0,15,16
 627 471 627 471 596.5 428 c 128,-1,17
 566 385 566 385 511.5 360.5 c 128,-1,18
 457 336 457 336 387 336 c 2,19,-1
 273 336 l 1,20,-1
 273 56 l 2,21,22
 273 43 273 43 278.5 37.5 c 128,-1,23
 284 32 284 32 297 32 c 2,24,-1
 385 32 l 1,25,-1
 385 0 l 1,26,-1
 31 0 l 1,27,-1
 31 32 l 1,0,-1
372 368 m 2,28,29
 424 368 424 368 445.5 410 c 128,-1,30
 467 452 467 452 467 526 c 0,31,32
 467 599 467 599 446 639.5 c 128,-1,33
 425 680 425 680 372 680 c 2,34,-1
 297 680 l 2,35,36
 284 680 284 680 278.5 675 c 128,-1,37
 273 670 273 670 273 656 c 2,38,-1
 273 368 l 1,39,-1
 372 368 l 2,28,29
EndSplineSet
Validated: 1
EndChar

StartChar: Q
Encoding: 81 81 52
Width: 654
GlyphClass: 1
Flags: W
LayerCount: 2
Fore
SplineSet
441 -222.5 m 128,-1,1
 414 -207 414 -207 397 -178 c 128,-1,2
 380 -149 380 -149 380 -110 c 0,3,4
 380 -48 380 -48 384 -11 c 1,5,6
 360 -18 360 -18 332 -18 c 0,7,8
 253 -18 253 -18 184.5 35.5 c 128,-1,9
 116 89 116 89 75.5 175.5 c 128,-1,10
 35 262 35 262 35 356 c 0,11,12
 35 451 35 451 76 537.5 c 128,-1,13
 117 624 117 624 185.5 677 c 128,-1,14
 254 730 254 730 331 730 c 256,15,16
 408 730 408 730 476.5 677 c 128,-1,17
 545 624 545 624 586 537.5 c 128,-1,18
 627 451 627 451 627 356 c 0,19,20
 627 284 627 284 602.5 215 c 128,-1,21
 578 146 578 146 534.5 92 c 128,-1,22
 491 38 491 38 436 9 c 1,23,24
 440 -48 440 -48 460.5 -79 c 128,-1,25
 481 -110 481 -110 520 -110 c 0,26,27
 560 -110 560 -110 579.5 -76.5 c 128,-1,28
 599 -43 599 -43 599 8 c 0,29,30
 599 29 599 29 596 56 c 1,31,-1
 626 56 l 1,32,33
 631 24 631 24 631 -21 c 0,34,35
 631 -62 631 -62 626.5 -97.5 c 128,-1,36
 622 -133 622 -133 607 -164 c 0,37,38
 591 -198 591 -198 562 -218 c 128,-1,39
 533 -238 533 -238 497 -238 c 0,40,0
 468 -238 468 -238 441 -222.5 c 128,-1,1
242 56 m 1,41,42
 239 68 239 68 239 80 c 0,43,44
 239 114 239 114 262.5 140 c 128,-1,45
 286 166 286 166 327 166 c 0,46,47
 369 166 369 166 396 139 c 128,-1,48
 423 112 423 112 429 71 c 1,49,-1
 432 71 l 1,50,51
 457 121 457 121 457 206 c 2,52,-1
 457 506 l 2,53,54
 457 609 457 609 424.5 653.5 c 128,-1,55
 392 698 392 698 331 698 c 256,56,57
 270 698 270 698 237.5 653.5 c 128,-1,58
 205 609 205 609 205 506 c 2,59,-1
 205 206 l 2,60,61
 205 102 205 102 240 55 c 1,62,-1
 242 56 l 1,41,42
386 25 m 1,64,65
 386 75 386 75 372.5 104 c 128,-1,66
 359 133 359 133 316 133 c 0,67,68
 295 133 295 133 281 115 c 128,-1,69
 267 97 267 97 267 75 c 0,70,71
 267 30 267 30 297 18 c 0,72,73
 305 14 305 14 331 14 c 0,74,63
 359 14 359 14 386 25 c 1,64,65
EndSplineSet
Validated: 1
EndChar

StartChar: R
Encoding: 82 82 53
Width: 691
GlyphClass: 1
Flags: W
LayerCount: 2
Fore
SplineSet
462.5 14 m 128,-1,1
 425 52 425 52 425 126 c 2,2,-1
 425 250 l 2,3,4
 425 298 425 298 401.5 331 c 128,-1,5
 378 364 378 364 329 364 c 2,6,-1
 273 364 l 1,7,-1
 273 56 l 2,8,9
 273 43 273 43 278.5 37.5 c 128,-1,10
 284 32 284 32 297 32 c 2,11,-1
 385 32 l 1,12,-1
 385 0 l 1,13,-1
 31 0 l 1,14,-1
 31 32 l 1,15,-1
 101 32 l 2,16,17
 115 32 115 32 120 37.5 c 128,-1,18
 125 43 125 43 125 56 c 2,19,-1
 125 656 l 2,20,21
 125 670 125 670 120 675 c 128,-1,22
 115 680 115 680 101 680 c 2,23,-1
 31 680 l 1,24,-1
 31 712 l 1,25,-1
 355 712 l 2,26,27
 463 712 463 712 529 664.5 c 128,-1,28
 595 617 595 617 595 536 c 0,29,30
 595 467 595 467 544.5 427 c 128,-1,31
 494 387 494 387 411 377 c 1,32,-1
 411 370 l 1,33,34
 489 356 489 356 531 314.5 c 128,-1,35
 573 273 573 273 573 185 c 2,36,-1
 573 74 l 2,37,38
 573 32 573 32 601 32 c 0,39,40
 627 32 627 32 639 75 c 128,-1,41
 651 118 651 118 651 180 c 1,42,-1
 683 180 l 1,43,44
 683 83 683 83 657 29.5 c 128,-1,45
 631 -24 631 -24 564 -24 c 0,46,0
 500 -24 500 -24 462.5 14 c 128,-1,1
340 396 m 2,47,48
 393 396 393 396 414 435 c 128,-1,49
 435 474 435 474 435 544 c 0,50,51
 435 612 435 612 414 646 c 128,-1,52
 393 680 393 680 340 680 c 2,53,-1
 297 680 l 2,54,55
 284 680 284 680 278.5 675 c 128,-1,56
 273 670 273 670 273 656 c 2,57,-1
 273 396 l 1,58,-1
 340 396 l 2,47,48
EndSplineSet
Validated: 1
EndChar

StartChar: S
Encoding: 83 83 54
Width: 550
GlyphClass: 1
Flags: W
LayerCount: 2
Fore
SplineSet
223 -5.5 m 128,-1,1
 188 7 188 7 165 26 c 0,2,3
 142 43 142 43 132 49.5 c 128,-1,4
 122 56 122 56 113 56 c 0,5,6
 92 56 92 56 87 22 c 2,7,-1
 82 -10 l 1,8,-1
 51 -10 l 1,9,-1
 45 306 l 1,10,-1
 77 306 l 1,11,12
 91 230 91 230 124.5 163 c 128,-1,13
 158 96 158 96 205.5 55 c 128,-1,14
 253 14 253 14 308 14 c 0,15,16
 387 14 387 14 416 49 c 128,-1,17
 445 84 445 84 445 128 c 0,18,19
 445 154 445 154 426.5 174.5 c 128,-1,20
 408 195 408 195 373 218 c 2,21,-1
 159 356 l 2,22,23
 112 386 112 386 79.5 431 c 128,-1,24
 47 476 47 476 47 538 c 0,25,26
 47 635 47 635 103.5 682.5 c 128,-1,27
 160 730 160 730 243 730 c 0,28,29
 314 730 314 730 385 680 c 0,30,31
 408 662 408 662 421 662 c 0,32,33
 439 662 439 662 443 685 c 2,34,-1
 449 712 l 1,35,-1
 481 712 l 1,36,-1
 491 452 l 1,37,-1
 459 452 l 1,38,39
 440 521 440 521 406 577 c 128,-1,40
 372 633 372 633 327.5 665.5 c 128,-1,41
 283 698 283 698 235 698 c 0,42,43
 182 698 182 698 156.5 677 c 128,-1,44
 131 656 131 656 131 614 c 0,45,46
 131 557 131 557 220 499 c 2,47,-1
 435 360 l 2,48,49
 476 333 476 333 500.5 286 c 128,-1,50
 525 239 525 239 525 188 c 0,51,52
 525 136 525 136 500 89 c 128,-1,53
 475 42 475 42 425 12 c 128,-1,54
 375 -18 375 -18 302 -18 c 0,55,0
 258 -18 258 -18 223 -5.5 c 128,-1,1
EndSplineSet
Validated: 1
EndChar

StartChar: T
Encoding: 84 84 55
Width: 666
GlyphClass: 1
Flags: W
LayerCount: 2
Fore
SplineSet
160 32 m 1,0,-1
 240 32 l 2,1,2
 254 32 254 32 259 37.5 c 128,-1,3
 264 43 264 43 264 56 c 2,4,-1
 264 646 l 2,5,6
 264 662 264 662 254 671 c 128,-1,7
 244 680 244 680 227 680 c 0,8,9
 180 680 180 680 141 628.5 c 128,-1,10
 102 577 102 577 83 508 c 0,11,12
 72 471 72 471 67.5 445.5 c 128,-1,13
 63 420 63 420 62 414 c 1,14,-1
 30 414 l 1,15,-1
 38 712 l 1,16,-1
 638 712 l 1,17,-1
 646 414 l 1,18,-1
 614 414 l 1,19,20
 613 420 613 420 608.5 445.5 c 128,-1,21
 604 471 604 471 593 508 c 0,22,23
 574 577 574 577 535 628.5 c 128,-1,24
 496 680 496 680 449 680 c 0,25,26
 432 680 432 680 422 671 c 128,-1,27
 412 662 412 662 412 646 c 2,28,-1
 412 56 l 2,29,30
 412 43 412 43 417.5 37.5 c 128,-1,31
 423 32 423 32 436 32 c 2,32,-1
 516 32 l 1,33,-1
 516 0 l 1,34,-1
 160 0 l 1,35,-1
 160 32 l 1,0,-1
EndSplineSet
Validated: 1
EndChar

StartChar: U
Encoding: 85 85 56
Width: 744
GlyphClass: 1
Flags: W
LayerCount: 2
Fore
SplineSet
236 17.5 m 128,-1,1
 177 53 177 53 149.5 110.5 c 128,-1,2
 122 168 122 168 122 237 c 2,3,-1
 122 656 l 2,4,5
 122 670 122 670 117 675 c 128,-1,6
 112 680 112 680 98 680 c 2,7,-1
 34 680 l 1,8,-1
 34 712 l 1,9,-1
 358 712 l 1,10,-1
 358 680 l 1,11,-1
 294 680 l 2,12,13
 281 680 281 680 275.5 675 c 128,-1,14
 270 670 270 670 270 656 c 2,15,-1
 270 198 l 2,16,17
 270 106 270 106 305 64 c 128,-1,18
 340 22 340 22 413 22 c 0,19,20
 462 22 462 22 501 46 c 128,-1,21
 540 70 540 70 562 110 c 128,-1,22
 584 150 584 150 584 198 c 2,23,-1
 584 590 l 2,24,25
 584 635 584 635 553.5 657.5 c 128,-1,26
 523 680 523 680 480 680 c 1,27,-1
 480 712 l 1,28,-1
 728 712 l 1,29,-1
 728 680 l 1,30,31
 685 680 685 680 654.5 657.5 c 128,-1,32
 624 635 624 635 624 590 c 2,33,-1
 624 208 l 2,34,35
 624 145 624 145 595.5 93.5 c 128,-1,36
 567 42 567 42 512.5 12 c 128,-1,37
 458 -18 458 -18 385 -18 c 0,38,0
 295 -18 295 -18 236 17.5 c 128,-1,1
EndSplineSet
Validated: 1
EndChar

StartChar: V
Encoding: 86 86 57
Width: 738
GlyphClass: 1
Flags: W
LayerCount: 2
Fore
SplineSet
135 622 m 2,0,1
 124 655 124 655 106.5 667.5 c 128,-1,2
 89 680 89 680 56 680 c 2,3,-1
 23 680 l 1,4,-1
 23 712 l 1,5,-1
 370 712 l 1,6,-1
 370 680 l 1,7,-1
 320 680 l 2,8,9
 306 680 306 680 296 672.5 c 128,-1,10
 286 665 286 665 286 655 c 0,11,12
 286 644 286 644 290 633 c 2,13,-1
 438 212 l 1,14,-1
 553 569 l 2,15,16
 563 599 563 599 563 620 c 0,17,18
 563 642 563 642 549 661 c 128,-1,19
 535 680 535 680 507 680 c 2,20,-1
 457 680 l 1,21,-1
 457 712 l 1,22,-1
 727 712 l 1,23,-1
 727 680 l 1,24,-1
 696 680 l 2,25,26
 629 680 629 680 600 589 c 2,27,-1
 403 -18 l 1,28,-1
 361 -18 l 1,29,-1
 135 622 l 2,0,1
EndSplineSet
Validated: 1
EndChar

StartChar: W
Encoding: 87 87 58
Width: 1045
GlyphClass: 1
Flags: W
LayerCount: 2
Fore
SplineSet
136 615 m 2,0,1
 125 648 125 648 104 664 c 128,-1,2
 83 680 83 680 41 680 c 2,3,-1
 22 680 l 1,4,-1
 22 712 l 1,5,-1
 347 712 l 1,6,-1
 347 680 l 1,7,-1
 318 680 l 2,8,9
 304 680 304 680 295.5 670 c 128,-1,10
 287 660 287 660 287 645 c 0,11,12
 287 633 287 633 292 620 c 2,13,-1
 418 235 l 1,14,-1
 512 555 l 1,15,-1
 490 622 l 2,16,17
 479 655 479 655 461.5 667.5 c 128,-1,18
 444 680 444 680 411 680 c 2,19,-1
 394 680 l 1,20,-1
 394 712 l 1,21,-1
 722 712 l 1,22,-1
 722 680 l 1,23,-1
 673 680 l 2,24,25
 659 680 659 680 650 671 c 128,-1,26
 641 662 641 662 641 651 c 0,27,28
 641 641 641 641 644 629 c 2,29,-1
 771 239 l 1,30,-1
 862 568 l 2,31,32
 864 575 864 575 866.5 592.5 c 128,-1,33
 869 610 869 610 869 622 c 0,34,35
 869 644 869 644 856.5 662 c 128,-1,36
 844 680 844 680 816 680 c 2,37,-1
 766 680 l 1,38,-1
 766 712 l 1,39,-1
 1036 712 l 1,40,-1
 1036 680 l 1,41,-1
 1005 680 l 2,42,43
 938 680 938 680 909 589 c 2,44,-1
 740 -18 l 1,45,-1
 698 -18 l 1,46,-1
 534 488 l 1,47,-1
 386 -18 l 1,48,-1
 344 -18 l 1,49,-1
 136 615 l 2,0,1
EndSplineSet
Validated: 1
EndChar

StartChar: X
Encoding: 88 88 59
Width: 714
GlyphClass: 1
Flags: W
LayerCount: 2
Fore
SplineSet
26 32 m 1,0,-1
 57 32 l 2,1,2
 90 32 90 32 114.5 50.5 c 128,-1,3
 139 69 139 69 160 99 c 2,4,-1
 307 322 l 1,5,-1
 141 628 l 2,6,7
 127 653 127 653 106 666.5 c 128,-1,8
 85 680 85 680 51 680 c 2,9,-1
 36 680 l 1,10,-1
 36 712 l 1,11,-1
 350 712 l 1,12,-1
 350 680 l 1,13,-1
 329 680 l 2,14,15
 320 680 320 680 312 672.5 c 128,-1,16
 304 665 304 665 304 652 c 0,17,18
 304 640 304 640 312 624 c 2,19,-1
 400 462 l 1,20,-1
 478 581 l 2,21,22
 494 605 494 605 494 636 c 0,23,24
 494 653 494 653 482.5 666.5 c 128,-1,25
 471 680 471 680 450 680 c 2,26,-1
 420 680 l 1,27,-1
 420 712 l 1,28,-1
 674 712 l 1,29,-1
 674 680 l 1,30,-1
 644 680 l 2,31,32
 614 680 614 680 593.5 668.5 c 128,-1,33
 573 657 573 657 556 631 c 2,34,-1
 420 425 l 1,35,-1
 603 85 l 2,36,37
 618 58 618 58 639.5 45 c 128,-1,38
 661 32 661 32 684 32 c 2,39,-1
 704 32 l 1,40,-1
 704 0 l 1,41,-1
 372 0 l 1,42,-1
 372 32 l 1,43,-1
 405 32 l 2,44,45
 420 32 420 32 428 41.5 c 128,-1,46
 436 51 436 51 436 68 c 0,47,48
 436 83 436 83 424 104 c 2,49,-1
 327 284 l 1,50,-1
 231 139 l 2,51,52
 206 101 206 101 206 76 c 0,53,54
 206 58 206 58 215 45 c 128,-1,55
 224 32 224 32 242 32 c 2,56,-1
 286 32 l 1,57,-1
 286 0 l 1,58,-1
 26 0 l 1,59,-1
 26 32 l 1,0,-1
EndSplineSet
Validated: 1
EndChar

StartChar: Y
Encoding: 89 89 60
Width: 702
GlyphClass: 1
Flags: W
LayerCount: 2
Fore
SplineSet
199 32 m 1,0,-1
 263 32 l 2,1,2
 277 32 277 32 282 37.5 c 128,-1,3
 287 43 287 43 287 56 c 2,4,-1
 287 269 l 1,5,-1
 117 636 l 2,6,7
 105 661 105 661 92 670.5 c 128,-1,8
 79 680 79 680 58 680 c 2,9,-1
 23 680 l 1,10,-1
 23 712 l 1,11,-1
 337 712 l 1,12,-1
 337 680 l 1,13,-1
 309 680 l 2,14,15
 295 680 295 680 288 670 c 128,-1,16
 281 660 281 660 281 648 c 0,17,18
 281 632 281 632 287 620 c 2,19,-1
 419 333 l 1,20,-1
 511 562 l 2,21,22
 525 594 525 594 525 619 c 0,23,24
 525 643 525 643 512 661.5 c 128,-1,25
 499 680 499 680 471 680 c 2,26,-1
 443 680 l 1,27,-1
 443 712 l 1,28,-1
 691 712 l 1,29,-1
 691 680 l 1,30,-1
 661 680 l 2,31,32
 627 680 627 680 604.5 658.5 c 128,-1,33
 582 637 582 637 570 607 c 2,34,-1
 435 278 l 1,35,-1
 435 56 l 2,36,37
 435 43 435 43 440.5 37.5 c 128,-1,38
 446 32 446 32 459 32 c 2,39,-1
 523 32 l 1,40,-1
 523 0 l 1,41,-1
 199 0 l 1,42,-1
 199 32 l 1,0,-1
EndSplineSet
Validated: 1
EndChar

StartChar: Z
Encoding: 90 90 61
Width: 595
GlyphClass: 1
Flags: W
LayerCount: 2
Fore
SplineSet
34 32 m 1,0,-1
 386 680 l 1,1,-1
 260 680 l 2,2,3
 222 680 222 680 177.5 640.5 c 128,-1,4
 133 601 133 601 109 542 c 0,5,6
 98 515 98 515 92 488 c 128,-1,7
 86 461 86 461 86 456 c 1,8,-1
 54 456 l 1,9,-1
 66 712 l 1,10,-1
 554 712 l 1,11,-1
 554 678 l 1,12,-1
 203 32 l 1,13,-1
 340 32 l 2,14,15
 392 32 392 32 435 73 c 128,-1,16
 478 114 478 114 502 162 c 0,17,18
 520 197 520 197 530 236.5 c 128,-1,19
 540 276 540 276 540 282 c 1,20,-1
 572 282 l 1,21,-1
 556 0 l 1,22,-1
 34 0 l 1,23,-1
 34 32 l 1,0,-1
EndSplineSet
Validated: 1
EndChar

StartChar: bracketleft
Encoding: 91 91 62
Width: 380
GlyphClass: 1
Flags: W
LayerCount: 2
Fore
SplineSet
80 712 m 1,0,-1
 310 712 l 1,1,-1
 310 684 l 1,2,-1
 216 684 l 2,3,4
 192 684 192 684 192 660 c 2,5,-1
 192 -128 l 2,6,7
 192 -152 192 -152 216 -152 c 2,8,-1
 310 -152 l 1,9,-1
 310 -180 l 1,10,-1
 80 -180 l 1,11,-1
 80 712 l 1,0,-1
EndSplineSet
Validated: 1
EndChar

StartChar: backslash
Encoding: 92 92 63
Width: 450
GlyphClass: 1
Flags: W
LayerCount: 2
Fore
SplineSet
332 -198 m 1,0,-1
 50 730 l 1,1,-1
 118 730 l 1,2,-1
 400 -198 l 1,3,-1
 332 -198 l 1,0,-1
EndSplineSet
Validated: 1
EndChar

StartChar: bracketright
Encoding: 93 93 64
Width: 380
GlyphClass: 1
Flags: W
LayerCount: 2
Fore
SplineSet
70 -152 m 1,0,-1
 164 -152 l 2,1,2
 188 -152 188 -152 188 -128 c 2,3,-1
 188 660 l 2,4,5
 188 684 188 684 164 684 c 2,6,-1
 70 684 l 1,7,-1
 70 712 l 1,8,-1
 300 712 l 1,9,-1
 300 -180 l 1,10,-1
 70 -180 l 1,11,-1
 70 -152 l 1,0,-1
EndSplineSet
Validated: 1
EndChar

StartChar: asciicircum
Encoding: 94 94 65
Width: 580
GlyphClass: 1
Flags: W
LayerCount: 2
Fore
SplineSet
54 372 m 1,0,-1
 280 730 l 1,1,-1
 300 730 l 1,2,-1
 526 372 l 1,3,-1
 448 372 l 1,4,-1
 290 622 l 1,5,-1
 132 372 l 1,6,-1
 54 372 l 1,0,-1
EndSplineSet
Validated: 1
EndChar

StartChar: underscore
Encoding: 95 95 66
Width: 520
GlyphClass: 1
Flags: W
LayerCount: 2
Fore
SplineSet
0 -168 m 1,0,-1
 0 -104 l 1,1,-1
 520 -104 l 1,2,-1
 520 -168 l 1,3,-1
 0 -168 l 1,0,-1
EndSplineSet
Validated: 1
EndChar

StartChar: grave
Encoding: 96 96 67
Width: 380
GlyphClass: 1
Flags: W
LayerCount: 2
Fore
SplineSet
128 624 m 2,0,1
 100 645 100 645 100 672 c 0,2,3
 100 690 100 690 112 701 c 128,-1,4
 124 712 124 712 142 712 c 0,5,6
 156 712 156 712 168 705 c 128,-1,7
 180 698 180 698 191 680 c 2,8,-1
 280 542 l 1,9,-1
 260 524 l 1,10,-1
 128 624 l 2,0,1
EndSplineSet
Validated: 1
EndChar

StartChar: a
Encoding: 97 97 68
Width: 475
GlyphClass: 1
Flags: W
LayerCount: 2
Fore
SplineSet
61.5 15 m 128,-1,1
 23 42 23 42 23 106 c 0,2,3
 23 171 23 171 70.5 208.5 c 128,-1,4
 118 246 118 246 191 271 c 2,5,-1
 265 297 l 1,6,-1
 265 365 l 2,7,8
 265 416 265 416 244 439 c 128,-1,9
 223 462 223 462 190 462 c 0,10,11
 162 462 162 462 141.5 449.5 c 128,-1,12
 121 437 121 437 121 415 c 0,13,14
 121 409 121 409 124.5 400.5 c 128,-1,15
 128 392 128 392 137 386 c 0,16,17
 152 377 152 377 158.5 367 c 128,-1,18
 165 357 165 357 165 341 c 0,19,20
 165 317 165 317 147.5 303.5 c 128,-1,21
 130 290 130 290 109 290 c 0,22,23
 83 290 83 290 64.5 307.5 c 128,-1,24
 46 325 46 325 46 358 c 0,25,26
 46 396 46 396 69 425.5 c 128,-1,27
 92 455 92 455 128 470.5 c 128,-1,28
 164 486 164 486 201 486 c 0,29,30
 273 486 273 486 327 447.5 c 128,-1,31
 381 409 381 409 381 325 c 2,32,-1
 381 72 l 2,33,34
 381 36 381 36 401 36 c 0,35,36
 419 36 419 36 428 66 c 128,-1,37
 437 96 437 96 437 135 c 1,38,-1
 465 135 l 1,39,40
 465 62 465 62 443 28 c 0,41,42
 432 10 432 10 412 -1 c 128,-1,43
 392 -12 392 -12 366 -12 c 0,44,45
 325 -12 325 -12 304 0.5 c 128,-1,46
 283 13 283 13 269 42 c 1,47,-1
 267 42 l 1,48,49
 227 -12 227 -12 155 -12 c 0,50,0
 100 -12 100 -12 61.5 15 c 128,-1,1
265 72 m 1,52,-1
 265 270 l 1,53,-1
 209 250 l 2,54,55
 176 238 176 238 160.5 204.5 c 128,-1,56
 145 171 145 171 145 115 c 0,57,58
 145 66 145 66 163 47 c 128,-1,59
 181 28 181 28 204 28 c 0,60,51
 243 28 243 28 265 72 c 1,52,-1
EndSplineSet
Validated: 1
EndChar

StartChar: b
Encoding: 98 98 69
Width: 498
GlyphClass: 1
Flags: W
LayerCount: 2
Fore
SplineSet
233.5 6 m 128,-1,1
 209 24 209 24 190 53 c 0,2,3
 178 72 178 72 170 79 c 128,-1,4
 162 86 162 86 151 86 c 0,5,6
 134 86 134 86 122 58 c 2,7,-1
 94 0 l 1,8,-1
 78 0 l 1,9,-1
 78 672 l 2,10,11
 78 681 78 681 74.5 684.5 c 128,-1,12
 71 688 71 688 62 688 c 2,13,-1
 6 688 l 1,14,-1
 6 712 l 1,15,-1
 194 712 l 1,16,-1
 194 417 l 1,17,-1
 200 415 l 1,18,19
 216 448 216 448 241 467 c 128,-1,20
 266 486 266 486 298 486 c 0,21,22
 350 486 350 486 390 450.5 c 128,-1,23
 430 415 430 415 452 358 c 128,-1,24
 474 301 474 301 474 237 c 0,25,26
 474 174 474 174 451 116.5 c 128,-1,27
 428 59 428 59 387 23.5 c 128,-1,28
 346 -12 346 -12 294 -12 c 0,29,0
 258 -12 258 -12 233.5 6 c 128,-1,1
346 237 m 256,31,32
 346 454 346 454 280 454 c 0,33,34
 262 454 262 454 242 430 c 128,-1,35
 222 406 222 406 208 356 c 128,-1,36
 194 306 194 306 194 234 c 0,37,38
 194 175 194 175 206 126 c 128,-1,39
 218 77 218 77 237.5 48.5 c 128,-1,40
 257 20 257 20 280 20 c 0,41,30
 346 20 346 20 346 237 c 256,31,32
EndSplineSet
Validated: 1
EndChar

StartChar: c
Encoding: 99 99 70
Width: 421
GlyphClass: 1
Flags: W
LayerCount: 2
Fore
SplineSet
126.5 21.5 m 128,-1,1
 78 55 78 55 51 112 c 128,-1,2
 24 169 24 169 24 237 c 256,3,4
 24 305 24 305 50.5 362 c 128,-1,5
 77 419 77 419 125.5 452.5 c 128,-1,6
 174 486 174 486 235 486 c 0,7,8
 283 486 283 486 315.5 466 c 128,-1,9
 348 446 348 446 364 415 c 128,-1,10
 380 384 380 384 380 351 c 0,11,12
 380 315 380 315 358 288.5 c 128,-1,13
 336 262 336 262 305 262 c 0,14,15
 282 262 282 262 267 275.5 c 128,-1,16
 252 289 252 289 252 312 c 0,17,18
 252 339 252 339 284 365 c 0,19,20
 308 385 308 385 308 406 c 256,21,22
 308 427 308 427 292.5 444.5 c 128,-1,23
 277 462 277 462 243 462 c 0,24,25
 196 462 196 462 174 402.5 c 128,-1,26
 152 343 152 343 152 237 c 0,27,28
 152 184 152 184 154 154.5 c 128,-1,29
 156 125 156 125 163 99 c 0,30,31
 172 62 172 62 197.5 40 c 128,-1,32
 223 18 223 18 257 18 c 0,33,34
 306 18 306 18 336 61 c 128,-1,35
 366 104 366 104 372 162 c 1,36,-1
 398 162 l 1,37,38
 392 93 392 93 353 40.5 c 128,-1,39
 314 -12 314 -12 237 -12 c 0,40,0
 175 -12 175 -12 126.5 21.5 c 128,-1,1
EndSplineSet
Validated: 1
EndChar

StartChar: d
Encoding: 100 100 71
Width: 503
GlyphClass: 1
Flags: W
LayerCount: 2
Fore
SplineSet
111 23.5 m 128,-1,1
 70 59 70 59 47 116.5 c 128,-1,2
 24 174 24 174 24 237 c 0,3,4
 24 301 24 301 46 358 c 128,-1,5
 68 415 68 415 108 450.5 c 128,-1,6
 148 486 148 486 200 486 c 0,7,8
 232 486 232 486 257 467 c 128,-1,9
 282 448 282 448 298 415 c 1,10,-1
 304 417 l 1,11,-1
 304 672 l 2,12,13
 304 681 304 681 300.5 684.5 c 128,-1,14
 297 688 297 688 288 688 c 2,15,-1
 232 688 l 1,16,-1
 232 712 l 1,17,-1
 420 712 l 1,18,-1
 420 40 l 2,19,20
 420 31 420 31 423.5 27.5 c 128,-1,21
 427 24 427 24 436 24 c 2,22,-1
 492 24 l 1,23,-1
 492 0 l 1,24,-1
 304 0 l 1,25,-1
 304 58 l 1,26,-1
 298 58 l 1,27,28
 285 30 285 30 260.5 9 c 128,-1,29
 236 -12 236 -12 204 -12 c 0,30,0
 152 -12 152 -12 111 23.5 c 128,-1,1
260.5 48.5 m 128,-1,32
 280 77 280 77 292 126 c 128,-1,33
 304 175 304 175 304 234 c 0,34,35
 304 306 304 306 290 356 c 128,-1,36
 276 406 276 406 256 430 c 128,-1,37
 236 454 236 454 218 454 c 0,38,39
 152 454 152 454 152 237 c 256,40,41
 152 20 152 20 218 20 c 0,42,31
 241 20 241 20 260.5 48.5 c 128,-1,32
EndSplineSet
Validated: 1
EndChar

StartChar: e
Encoding: 101 101 72
Width: 423
GlyphClass: 1
Flags: W
LayerCount: 2
Fore
SplineSet
126.5 21.5 m 128,-1,1
 78 55 78 55 51 112 c 128,-1,2
 24 169 24 169 24 237 c 0,3,4
 24 307 24 307 51 364 c 128,-1,5
 78 421 78 421 124.5 453.5 c 128,-1,6
 171 486 171 486 226 486 c 0,7,8
 287 486 287 486 331 442.5 c 128,-1,9
 375 399 375 399 389 328 c 0,10,11
 396 296 396 296 396 228 c 1,12,-1
 152 228 l 1,13,14
 152 180 152 180 154 152.5 c 128,-1,15
 156 125 156 125 163 99 c 0,16,17
 172 62 172 62 197.5 40 c 128,-1,18
 223 18 223 18 257 18 c 0,19,20
 306 18 306 18 336 61 c 128,-1,21
 366 104 366 104 372 162 c 1,22,-1
 398 162 l 1,23,24
 392 93 392 93 353 40.5 c 128,-1,25
 314 -12 314 -12 237 -12 c 0,26,0
 175 -12 175 -12 126.5 21.5 c 128,-1,1
280 256 m 1,27,28
 280 361 280 361 266.5 411.5 c 128,-1,29
 253 462 253 462 216 462 c 256,30,31
 179 462 179 462 165.5 411.5 c 128,-1,32
 152 361 152 361 152 256 c 1,33,-1
 280 256 l 1,27,28
EndSplineSet
Validated: 1
EndChar

StartChar: f
Encoding: 102 102 73
Width: 363
GlyphClass: 1
Flags: W
LayerCount: 2
Fore
SplineSet
15 24 m 1,0,-1
 71 24 l 2,1,2
 80 24 80 24 83.5 27.5 c 128,-1,3
 87 31 87 31 87 40 c 2,4,-1
 87 446 l 1,5,-1
 15 446 l 1,6,-1
 15 474 l 1,7,-1
 87 474 l 1,8,-1
 87 522 l 2,9,10
 87 585 87 585 114.5 630 c 128,-1,11
 142 675 142 675 184.5 697.5 c 128,-1,12
 227 720 227 720 270 720 c 0,13,14
 325 720 325 720 358 687 c 128,-1,15
 391 654 391 654 391 603 c 0,16,17
 391 573 391 573 369.5 551 c 128,-1,18
 348 529 348 529 317 529 c 0,19,20
 294 529 294 529 276 544 c 128,-1,21
 258 559 258 559 258 584 c 0,22,23
 258 613 258 613 286 638 c 0,24,25
 303 653 303 653 303 670 c 0,26,27
 303 684 303 684 291.5 690 c 128,-1,28
 280 696 280 696 266 696 c 0,29,30
 241 696 241 696 222 666 c 128,-1,31
 203 636 203 636 203 564 c 2,32,-1
 203 474 l 1,33,-1
 275 474 l 1,34,-1
 275 446 l 1,35,-1
 203 446 l 1,36,-1
 203 40 l 2,37,38
 203 31 203 31 206.5 27.5 c 128,-1,39
 210 24 210 24 219 24 c 2,40,-1
 275 24 l 1,41,-1
 275 0 l 1,42,-1
 15 0 l 1,43,-1
 15 24 l 1,0,-1
EndSplineSet
Validated: 1
EndChar

StartChar: g
Encoding: 103 103 74
Width: 527
GlyphClass: 1
Flags: W
LayerCount: 2
Fore
SplineSet
85.5 -205 m 128,-1,1
 21 -172 21 -172 21 -114 c 0,2,3
 21 -81 21 -81 46 -53.5 c 128,-1,4
 71 -26 71 -26 115 -16 c 1,5,-1
 115 -13 l 1,6,7
 85 -11 85 -11 61 12 c 128,-1,8
 37 35 37 35 37 69 c 0,9,10
 37 164 37 164 149 186 c 1,11,-1
 149 190 l 1,12,13
 110 207 110 207 80.5 242 c 128,-1,14
 51 277 51 277 51 330 c 0,15,16
 51 375 51 375 76.5 411 c 128,-1,17
 102 447 102 447 143.5 466.5 c 128,-1,18
 185 486 185 486 233 486 c 0,19,20
 315 486 315 486 372 434 c 1,21,-1
 375 434 l 1,22,23
 406 486 406 486 449 486 c 0,24,25
 481 486 481 486 501 466.5 c 128,-1,26
 521 447 521 447 521 420 c 0,27,28
 521 390 521 390 504.5 368 c 128,-1,29
 488 346 488 346 465 346 c 0,30,31
 449 346 449 346 437 355.5 c 128,-1,32
 425 365 425 365 425 381 c 256,33,34
 425 397 425 397 441 417 c 0,35,36
 447 423 447 423 452 431 c 128,-1,37
 457 439 457 439 457 445 c 0,38,39
 457 461 457 461 436 461 c 0,40,41
 409 461 409 461 385 419 c 1,42,43
 417 384 417 384 417 322 c 0,44,45
 417 286 417 286 394 251.5 c 128,-1,46
 371 217 371 217 328.5 195 c 128,-1,47
 286 173 286 173 231 173 c 0,48,49
 170 173 170 173 133 162.5 c 128,-1,50
 96 152 96 152 96 120 c 0,51,52
 96 85 96 85 145 85 c 2,53,-1
 303 85 l 2,54,55
 374 85 374 85 421 51 c 128,-1,56
 468 17 468 17 468 -51 c 0,57,58
 468 -101 468 -101 441 -143.5 c 128,-1,59
 414 -186 414 -186 363 -212 c 128,-1,60
 312 -238 312 -238 243 -238 c 0,61,0
 150 -238 150 -238 85.5 -205 c 128,-1,1
281 229.5 m 128,-1,63
 295 261 295 261 295 330 c 256,64,65
 295 399 295 399 281 430.5 c 128,-1,66
 267 462 267 462 235 462 c 0,67,68
 202 462 202 462 187.5 430.5 c 128,-1,69
 173 399 173 399 173 330 c 256,70,71
 173 261 173 261 187.5 229.5 c 128,-1,72
 202 198 202 198 235 198 c 0,73,62
 267 198 267 198 281 229.5 c 128,-1,63
349 -178 m 128,-1,75
 401 -150 401 -150 401 -98 c 0,76,77
 401 -60 401 -60 359 -43.5 c 128,-1,78
 317 -27 317 -27 252 -27 c 0,79,80
 175 -27 175 -27 116 -45.5 c 128,-1,81
 57 -64 57 -64 57 -115 c 0,82,83
 57 -159 57 -159 108.5 -182.5 c 128,-1,84
 160 -206 160 -206 228 -206 c 0,85,74
 297 -206 297 -206 349 -178 c 128,-1,75
EndSplineSet
Validated: 1
EndChar

StartChar: h
Encoding: 104 104 75
Width: 531
GlyphClass: 1
Flags: W
LayerCount: 2
Fore
SplineSet
13 24 m 1,0,-1
 69 24 l 2,1,2
 78 24 78 24 81.5 27.5 c 128,-1,3
 85 31 85 31 85 40 c 2,4,-1
 85 672 l 2,5,6
 85 681 85 681 81.5 684.5 c 128,-1,7
 78 688 78 688 69 688 c 2,8,-1
 13 688 l 1,9,-1
 13 712 l 1,10,-1
 201 712 l 1,11,-1
 201 385 l 1,12,-1
 206 384 l 1,13,14
 226 431 226 431 257.5 458.5 c 128,-1,15
 289 486 289 486 330 486 c 0,16,17
 355 486 355 486 373 480.5 c 128,-1,18
 391 475 391 475 407 464 c 0,19,20
 432 446 432 446 446.5 414 c 128,-1,21
 461 382 461 382 461 348 c 2,22,-1
 461 40 l 2,23,24
 461 31 461 31 464.5 27.5 c 128,-1,25
 468 24 468 24 477 24 c 2,26,-1
 515 24 l 1,27,-1
 515 0 l 1,28,-1
 297 0 l 1,29,-1
 297 24 l 1,30,-1
 329 24 l 2,31,32
 338 24 338 24 341.5 27.5 c 128,-1,33
 345 31 345 31 345 40 c 2,34,-1
 345 377 l 2,35,36
 345 454 345 454 299 454 c 0,37,38
 278 454 278 454 255 426 c 128,-1,39
 232 398 232 398 216.5 352 c 128,-1,40
 201 306 201 306 201 254 c 2,41,-1
 201 40 l 2,42,43
 201 31 201 31 204.5 27.5 c 128,-1,44
 208 24 208 24 217 24 c 2,45,-1
 249 24 l 1,46,-1
 249 0 l 1,47,-1
 13 0 l 1,48,-1
 13 24 l 1,0,-1
EndSplineSet
Validated: 1
EndChar

StartChar: i
Encoding: 105 105 76
Width: 260
GlyphClass: 1
Flags: W
LayerCount: 2
Fore
SplineSet
75.5 597.5 m 128,-1,1
 54 619 54 619 54 650 c 0,2,3
 54 682 54 682 75.5 703 c 128,-1,4
 97 724 97 724 128 724 c 0,5,6
 160 724 160 724 181 703 c 128,-1,7
 202 682 202 682 202 650 c 0,8,9
 202 619 202 619 181 597.5 c 128,-1,10
 160 576 160 576 128 576 c 0,11,0
 97 576 97 576 75.5 597.5 c 128,-1,1
20 24 m 1,12,-1
 58 24 l 2,13,14
 67 24 67 24 70.5 27.5 c 128,-1,15
 74 31 74 31 74 40 c 2,16,-1
 74 434 l 2,17,18
 74 443 74 443 70.5 446.5 c 128,-1,19
 67 450 67 450 58 450 c 2,20,-1
 20 450 l 1,21,-1
 20 474 l 1,22,-1
 190 474 l 1,23,-1
 190 40 l 2,24,25
 190 31 190 31 193.5 27.5 c 128,-1,26
 197 24 197 24 206 24 c 2,27,-1
 244 24 l 1,28,-1
 244 0 l 1,29,-1
 20 0 l 1,30,-1
 20 24 l 1,12,-1
EndSplineSet
Validated: 1
EndChar

StartChar: j
Encoding: 106 106 77
Width: 312
GlyphClass: 1
Flags: W
LayerCount: 2
Fore
SplineSet
151.5 597.5 m 128,-1,1
 130 619 130 619 130 650 c 0,2,3
 130 682 130 682 151.5 703 c 128,-1,4
 173 724 173 724 204 724 c 0,5,6
 236 724 236 724 257 703 c 128,-1,7
 278 682 278 682 278 650 c 0,8,9
 278 619 278 619 257 597.5 c 128,-1,10
 236 576 236 576 204 576 c 0,11,0
 173 576 173 576 151.5 597.5 c 128,-1,1
10.5 -206.5 m 128,-1,13
 -26 -175 -26 -175 -26 -126 c 0,14,15
 -26 -92 -26 -92 -3.5 -69.5 c 128,-1,16
 19 -47 19 -47 48 -47 c 0,17,18
 71 -47 71 -47 89 -61 c 128,-1,19
 107 -75 107 -75 107 -100 c 0,20,21
 107 -131 107 -131 79 -156 c 0,22,23
 62 -171 62 -171 62 -188 c 0,24,25
 62 -202 62 -202 73.5 -208 c 128,-1,26
 85 -214 85 -214 99 -214 c 0,27,28
 122 -214 122 -214 134 -185.5 c 128,-1,29
 146 -157 146 -157 146 -82 c 2,30,-1
 146 434 l 2,31,32
 146 443 146 443 142.5 446.5 c 128,-1,33
 139 450 139 450 130 450 c 2,34,-1
 74 450 l 1,35,-1
 74 474 l 1,36,-1
 262 474 l 1,37,-1
 262 -40 l 2,38,39
 262 -104 262 -104 240 -148.5 c 128,-1,40
 218 -193 218 -193 181.5 -215.5 c 128,-1,41
 145 -238 145 -238 103 -238 c 0,42,12
 47 -238 47 -238 10.5 -206.5 c 128,-1,13
EndSplineSet
Validated: 1
EndChar

StartChar: k
Encoding: 107 107 78
Width: 537
GlyphClass: 1
Flags: W
LayerCount: 2
Fore
SplineSet
13 24 m 1,0,-1
 69 24 l 2,1,2
 78 24 78 24 81.5 27.5 c 128,-1,3
 85 31 85 31 85 40 c 2,4,-1
 85 672 l 2,5,6
 85 681 85 681 82 684.5 c 128,-1,7
 79 688 79 688 69 688 c 2,8,-1
 13 688 l 1,9,-1
 13 712 l 1,10,-1
 201 712 l 1,11,-1
 201 213 l 1,12,-1
 331 376 l 2,13,14
 351 401 351 401 351 421 c 0,15,16
 351 434 351 434 342.5 441.5 c 128,-1,17
 334 449 334 449 323 449 c 2,18,-1
 293 449 l 1,19,-1
 293 474 l 1,20,-1
 484 474 l 1,21,-1
 484 449 l 1,22,-1
 461 449 l 2,23,24
 437 449 437 449 417.5 433.5 c 128,-1,25
 398 418 398 418 372 384 c 2,26,-1
 313 310 l 1,27,-1
 469 57 l 2,28,29
 479 40 479 40 487 32 c 128,-1,30
 495 24 495 24 506 24 c 2,31,-1
 527 24 l 1,32,-1
 527 0 l 1,33,-1
 296 0 l 1,34,-1
 296 24 l 1,35,-1
 314 24 l 2,36,37
 323 24 323 24 331 29.5 c 128,-1,38
 339 35 339 35 339 46 c 0,39,40
 339 70 339 70 325 92 c 2,41,-1
 244 224 l 1,42,-1
 201 171 l 1,43,-1
 201 40 l 2,44,45
 201 31 201 31 205 27.5 c 128,-1,46
 209 24 209 24 219 24 c 2,47,-1
 255 24 l 1,48,-1
 255 0 l 1,49,-1
 13 0 l 1,50,-1
 13 24 l 1,0,-1
EndSplineSet
Validated: 1
EndChar

StartChar: l
Encoding: 108 108 79
Width: 284
GlyphClass: 1
Flags: W
LayerCount: 2
Fore
SplineSet
13 24 m 1,0,-1
 69 24 l 2,1,2
 78 24 78 24 81.5 27.5 c 128,-1,3
 85 31 85 31 85 40 c 2,4,-1
 85 672 l 2,5,6
 85 681 85 681 81.5 684.5 c 128,-1,7
 78 688 78 688 69 688 c 2,8,-1
 13 688 l 1,9,-1
 13 712 l 1,10,-1
 201 712 l 1,11,-1
 201 40 l 2,12,13
 201 31 201 31 204.5 27.5 c 128,-1,14
 208 24 208 24 217 24 c 2,15,-1
 273 24 l 1,16,-1
 273 0 l 1,17,-1
 13 0 l 1,18,-1
 13 24 l 1,0,-1
EndSplineSet
Validated: 1
EndChar

StartChar: m
Encoding: 109 109 80
Width: 764
GlyphClass: 1
Flags: W
LayerCount: 2
Fore
SplineSet
20 24 m 1,0,-1
 58 24 l 2,1,2
 67 24 67 24 70.5 27.5 c 128,-1,3
 74 31 74 31 74 40 c 2,4,-1
 74 434 l 2,5,6
 74 443 74 443 70.5 446.5 c 128,-1,7
 67 450 67 450 58 450 c 2,8,-1
 20 450 l 1,9,-1
 20 474 l 1,10,-1
 190 474 l 1,11,-1
 190 375 l 1,12,-1
 195 374 l 1,13,14
 240 486 240 486 320 486 c 0,15,16
 382 486 382 486 406.5 455 c 128,-1,17
 431 424 431 424 440 376 c 1,18,-1
 445 376 l 1,19,20
 463 427 463 427 494.5 456.5 c 128,-1,21
 526 486 526 486 563 486 c 0,22,23
 588 486 588 486 606 480.5 c 128,-1,24
 624 475 624 475 640 464 c 0,25,26
 665 446 665 446 679.5 414 c 128,-1,27
 694 382 694 382 694 348 c 2,28,-1
 694 40 l 2,29,30
 694 31 694 31 697.5 27.5 c 128,-1,31
 701 24 701 24 710 24 c 2,32,-1
 748 24 l 1,33,-1
 748 0 l 1,34,-1
 530 0 l 1,35,-1
 530 24 l 1,36,-1
 562 24 l 2,37,38
 571 24 571 24 574.5 27.5 c 128,-1,39
 578 31 578 31 578 40 c 2,40,-1
 578 377 l 2,41,42
 578 454 578 454 532 454 c 0,43,44
 511 454 511 454 490 426.5 c 128,-1,45
 469 399 469 399 455.5 352.5 c 128,-1,46
 442 306 442 306 442 254 c 2,47,-1
 442 40 l 2,48,49
 442 31 442 31 445.5 27.5 c 128,-1,50
 449 24 449 24 458 24 c 2,51,-1
 490 24 l 1,52,-1
 490 0 l 1,53,-1
 278 0 l 1,54,-1
 278 24 l 1,55,-1
 310 24 l 2,56,57
 319 24 319 24 322.5 27.5 c 128,-1,58
 326 31 326 31 326 40 c 2,59,-1
 326 395 l 2,60,61
 326 425 326 425 319 439.5 c 128,-1,62
 312 454 312 454 288 454 c 0,63,64
 267 454 267 454 244 426 c 128,-1,65
 221 398 221 398 205.5 352 c 128,-1,66
 190 306 190 306 190 254 c 2,67,-1
 190 40 l 2,68,69
 190 31 190 31 193.5 27.5 c 128,-1,70
 197 24 197 24 206 24 c 2,71,-1
 238 24 l 1,72,-1
 238 0 l 1,73,-1
 20 0 l 1,74,-1
 20 24 l 1,0,-1
EndSplineSet
Validated: 1
EndChar

StartChar: n
Encoding: 110 110 81
Width: 520
GlyphClass: 1
Flags: W
LayerCount: 2
Fore
SplineSet
20 24 m 1,0,-1
 58 24 l 2,1,2
 67 24 67 24 70.5 27.5 c 128,-1,3
 74 31 74 31 74 40 c 2,4,-1
 74 434 l 2,5,6
 74 443 74 443 70.5 446.5 c 128,-1,7
 67 450 67 450 58 450 c 2,8,-1
 20 450 l 1,9,-1
 20 474 l 1,10,-1
 190 474 l 1,11,-1
 190 385 l 1,12,-1
 195 384 l 1,13,14
 215 431 215 431 246.5 458.5 c 128,-1,15
 278 486 278 486 319 486 c 0,16,17
 344 486 344 486 362 480.5 c 128,-1,18
 380 475 380 475 396 464 c 0,19,20
 421 446 421 446 435.5 414 c 128,-1,21
 450 382 450 382 450 348 c 2,22,-1
 450 40 l 2,23,24
 450 31 450 31 453.5 27.5 c 128,-1,25
 457 24 457 24 466 24 c 2,26,-1
 504 24 l 1,27,-1
 504 0 l 1,28,-1
 286 0 l 1,29,-1
 286 24 l 1,30,-1
 318 24 l 2,31,32
 327 24 327 24 330.5 27.5 c 128,-1,33
 334 31 334 31 334 40 c 2,34,-1
 334 377 l 2,35,36
 334 454 334 454 288 454 c 0,37,38
 267 454 267 454 244 426 c 128,-1,39
 221 398 221 398 205.5 352 c 128,-1,40
 190 306 190 306 190 254 c 2,41,-1
 190 40 l 2,42,43
 190 31 190 31 193.5 27.5 c 128,-1,44
 197 24 197 24 206 24 c 2,45,-1
 238 24 l 1,46,-1
 238 0 l 1,47,-1
 20 0 l 1,48,-1
 20 24 l 1,0,-1
EndSplineSet
Validated: 1
EndChar

StartChar: o
Encoding: 111 111 82
Width: 456
GlyphClass: 1
Flags: W
LayerCount: 2
Fore
SplineSet
127 20.5 m 128,-1,1
 80 53 80 53 52 110 c 128,-1,2
 24 167 24 167 24 237 c 256,3,4
 24 307 24 307 52 364 c 128,-1,5
 80 421 80 421 127 453.5 c 128,-1,6
 174 486 174 486 228 486 c 256,7,8
 282 486 282 486 329 453.5 c 128,-1,9
 376 421 376 421 404 364 c 128,-1,10
 432 307 432 307 432 237 c 256,11,12
 432 167 432 167 404 110 c 128,-1,13
 376 53 376 53 329 20.5 c 128,-1,14
 282 -12 282 -12 228 -12 c 256,15,0
 174 -12 174 -12 127 20.5 c 128,-1,1
287.5 65 m 128,-1,17
 304 118 304 118 304 237 c 256,18,19
 304 356 304 356 287.5 409 c 128,-1,20
 271 462 271 462 228 462 c 256,21,22
 185 462 185 462 168.5 409 c 128,-1,23
 152 356 152 356 152 237 c 256,24,25
 152 118 152 118 168.5 65 c 128,-1,26
 185 12 185 12 228 12 c 256,27,16
 271 12 271 12 287.5 65 c 128,-1,17
EndSplineSet
Validated: 1
EndChar

StartChar: p
Encoding: 112 112 83
Width: 506
GlyphClass: 1
Flags: W
LayerCount: 2
Fore
SplineSet
14 -204 m 1,0,-1
 70 -204 l 2,1,2
 79 -204 79 -204 82.5 -200.5 c 128,-1,3
 86 -197 86 -197 86 -188 c 2,4,-1
 86 434 l 2,5,6
 86 443 86 443 82.5 446.5 c 128,-1,7
 79 450 79 450 70 450 c 2,8,-1
 14 450 l 1,9,-1
 14 474 l 1,10,-1
 202 474 l 1,11,-1
 202 416 l 1,12,-1
 208 416 l 1,13,14
 221 444 221 444 245.5 465 c 128,-1,15
 270 486 270 486 302 486 c 0,16,17
 354 486 354 486 395 450.5 c 128,-1,18
 436 415 436 415 459 357.5 c 128,-1,19
 482 300 482 300 482 237 c 0,20,21
 482 173 482 173 460 116 c 128,-1,22
 438 59 438 59 398 23.5 c 128,-1,23
 358 -12 358 -12 306 -12 c 0,24,25
 274 -12 274 -12 249 7 c 128,-1,26
 224 26 224 26 208 59 c 1,27,-1
 202 57 l 1,28,-1
 202 -188 l 2,29,30
 202 -197 202 -197 205.5 -200.5 c 128,-1,31
 209 -204 209 -204 218 -204 c 2,32,-1
 274 -204 l 1,33,-1
 274 -228 l 1,34,-1
 14 -228 l 1,35,-1
 14 -204 l 1,0,-1
354 237 m 256,37,38
 354 454 354 454 288 454 c 0,39,40
 265 454 265 454 245.5 425.5 c 128,-1,41
 226 397 226 397 214 348 c 128,-1,42
 202 299 202 299 202 240 c 0,43,44
 202 168 202 168 216 118 c 128,-1,45
 230 68 230 68 250 44 c 128,-1,46
 270 20 270 20 288 20 c 0,47,36
 354 20 354 20 354 237 c 256,37,38
EndSplineSet
Validated: 1
EndChar

StartChar: q
Encoding: 113 113 84
Width: 487
GlyphClass: 1
Flags: W
LayerCount: 2
Fore
SplineSet
232 -204 m 1,0,-1
 288 -204 l 2,1,2
 297 -204 297 -204 300.5 -200.5 c 128,-1,3
 304 -197 304 -197 304 -188 c 2,4,-1
 304 57 l 1,5,-1
 298 59 l 1,6,7
 282 26 282 26 257 7 c 128,-1,8
 232 -12 232 -12 200 -12 c 0,9,10
 148 -12 148 -12 108 23.5 c 128,-1,11
 68 59 68 59 46 116 c 128,-1,12
 24 173 24 173 24 237 c 0,13,14
 24 300 24 300 47 357.5 c 128,-1,15
 70 415 70 415 111 450.5 c 128,-1,16
 152 486 152 486 204 486 c 0,17,18
 240 486 240 486 264.5 468 c 128,-1,19
 289 450 289 450 308 421 c 0,20,21
 320 402 320 402 328 395 c 128,-1,22
 336 388 336 388 347 388 c 0,23,24
 364 388 364 388 376 416 c 2,25,-1
 404 474 l 1,26,-1
 420 474 l 1,27,-1
 420 -188 l 2,28,29
 420 -197 420 -197 423.5 -200.5 c 128,-1,30
 427 -204 427 -204 436 -204 c 2,31,-1
 474 -204 l 1,32,-1
 474 -228 l 1,33,-1
 232 -228 l 1,34,-1
 232 -204 l 1,0,-1
256 44 m 128,-1,36
 276 68 276 68 290 118 c 128,-1,37
 304 168 304 168 304 240 c 0,38,39
 304 299 304 299 292 348 c 128,-1,40
 280 397 280 397 260.5 425.5 c 128,-1,41
 241 454 241 454 218 454 c 0,42,43
 152 454 152 454 152 237 c 256,44,45
 152 20 152 20 218 20 c 0,46,35
 236 20 236 20 256 44 c 128,-1,36
EndSplineSet
Validated: 1
EndChar

StartChar: r
Encoding: 114 114 85
Width: 401
GlyphClass: 1
Flags: W
LayerCount: 2
Fore
SplineSet
20 24 m 1,0,-1
 58 24 l 2,1,2
 67 24 67 24 70.5 27.5 c 128,-1,3
 74 31 74 31 74 40 c 2,4,-1
 74 434 l 2,5,6
 74 443 74 443 70.5 446.5 c 128,-1,7
 67 450 67 450 58 450 c 2,8,-1
 20 450 l 1,9,-1
 20 474 l 1,10,-1
 190 474 l 1,11,-1
 190 375 l 1,12,-1
 195 374 l 1,13,14
 211 420 211 420 240.5 453 c 128,-1,15
 270 486 270 486 306 486 c 256,16,17
 342 486 342 486 365 460 c 128,-1,18
 388 434 388 434 388 394 c 0,19,20
 388 357 388 357 367 330.5 c 128,-1,21
 346 304 346 304 315 304 c 0,22,23
 288 304 288 304 269 320.5 c 128,-1,24
 250 337 250 337 250 361 c 256,25,26
 250 385 250 385 274 413 c 0,27,28
 288 429 288 429 288 436 c 0,29,30
 288 446 288 446 277 446 c 0,31,32
 257 446 257 446 236.5 417 c 128,-1,33
 216 388 216 388 203 341 c 128,-1,34
 190 294 190 294 190 241 c 2,35,-1
 190 40 l 2,36,37
 190 31 190 31 193.5 27.5 c 128,-1,38
 197 24 197 24 206 24 c 2,39,-1
 238 24 l 1,40,-1
 238 0 l 1,41,-1
 20 0 l 1,42,-1
 20 24 l 1,0,-1
EndSplineSet
Validated: 1
EndChar

StartChar: s
Encoding: 115 115 86
Width: 385
GlyphClass: 1
Flags: W
LayerCount: 2
Fore
SplineSet
29 186 m 1,0,-1
 51 186 l 1,1,-1
 96 107 l 2,2,3
 150 12 150 12 232 12 c 0,4,5
 269 12 269 12 287 30.5 c 128,-1,6
 305 49 305 49 305 72 c 0,7,8
 305 92 305 92 294.5 106.5 c 128,-1,9
 284 121 284 121 258.5 136.5 c 128,-1,10
 233 152 233 152 180 178 c 0,11,12
 116 209 116 209 72.5 248 c 128,-1,13
 29 287 29 287 29 350 c 0,14,15
 29 412 29 412 68 449 c 128,-1,16
 107 486 107 486 163 486 c 0,17,18
 210 486 210 486 263 452 c 0,19,20
 282 440 282 440 293 440 c 0,21,22
 305 440 305 440 309 456 c 2,23,-1
 315 476 l 1,24,-1
 333 476 l 1,25,-1
 333 316 l 1,26,-1
 311 316 l 1,27,-1
 292 354 l 2,28,29
 265 408 265 408 230 435 c 128,-1,30
 195 462 195 462 159 462 c 0,31,32
 132 462 132 462 114.5 449 c 128,-1,33
 97 436 97 436 97 407 c 0,34,35
 97 348 97 348 203 298 c 0,36,37
 268 267 268 267 302.5 243 c 128,-1,38
 337 219 337 219 353 191 c 128,-1,39
 369 163 369 163 369 122 c 0,40,41
 369 60 369 60 329.5 24 c 128,-1,42
 290 -12 290 -12 231 -12 c 0,43,44
 181 -12 181 -12 127 20 c 0,45,46
 103 36 103 36 91 36 c 0,47,48
 78 36 78 36 68 28.5 c 128,-1,49
 58 21 58 21 54 9 c 2,50,-1
 47 -12 l 1,51,-1
 29 -12 l 1,52,-1
 29 186 l 1,0,-1
EndSplineSet
Validated: 1
EndChar

StartChar: t
Encoding: 116 116 87
Width: 342
GlyphClass: 1
Flags: W
LayerCount: 2
Fore
SplineSet
104.5 20.5 m 128,-1,1
 70 53 70 53 70 112 c 2,2,-1
 70 446 l 1,3,-1
 10 446 l 1,4,-1
 10 474 l 1,5,6
 69 482 69 482 103.5 523 c 128,-1,7
 138 564 138 564 138 630 c 2,8,-1
 138 666 l 1,9,-1
 186 666 l 1,10,-1
 186 474 l 1,11,-1
 288 474 l 1,12,-1
 288 446 l 1,13,-1
 186 446 l 1,14,-1
 186 105 l 2,15,16
 186 72 186 72 195 52 c 128,-1,17
 204 32 204 32 232 32 c 0,18,19
 274 32 274 32 288 89.5 c 128,-1,20
 302 147 302 147 302 218 c 1,21,-1
 330 218 l 1,22,23
 330 161 330 161 322.5 113 c 128,-1,24
 315 65 315 65 299 39 c 0,25,26
 267 -12 267 -12 202 -12 c 0,27,0
 139 -12 139 -12 104.5 20.5 c 128,-1,1
EndSplineSet
Validated: 1
EndChar

StartChar: u
Encoding: 117 117 88
Width: 522
GlyphClass: 1
Flags: W
LayerCount: 2
Fore
SplineSet
164 -6.5 m 128,-1,1
 146 -1 146 -1 130 10 c 0,2,3
 105 28 105 28 90.5 60 c 128,-1,4
 76 92 76 92 76 126 c 2,5,-1
 76 434 l 2,6,7
 76 443 76 443 72.5 446.5 c 128,-1,8
 69 450 69 450 60 450 c 2,9,-1
 12 450 l 1,10,-1
 12 474 l 1,11,-1
 192 474 l 1,12,-1
 192 97 l 2,13,14
 192 20 192 20 238 20 c 0,15,16
 259 20 259 20 282 48 c 128,-1,17
 305 76 305 76 320.5 122 c 128,-1,18
 336 168 336 168 336 220 c 2,19,-1
 336 434 l 2,20,21
 336 443 336 443 332.5 446.5 c 128,-1,22
 329 450 329 450 320 450 c 2,23,-1
 272 450 l 1,24,-1
 272 474 l 1,25,-1
 452 474 l 1,26,-1
 452 40 l 2,27,28
 452 31 452 31 455.5 27.5 c 128,-1,29
 459 24 459 24 468 24 c 2,30,-1
 506 24 l 1,31,-1
 506 0 l 1,32,-1
 336 0 l 1,33,-1
 336 89 l 1,34,-1
 331 90 l 1,35,36
 311 43 311 43 279.5 15.5 c 128,-1,37
 248 -12 248 -12 207 -12 c 0,38,0
 182 -12 182 -12 164 -6.5 c 128,-1,1
EndSplineSet
Validated: 1
EndChar

StartChar: v
Encoding: 118 118 89
Width: 506
GlyphClass: 1
Flags: W
LayerCount: 2
Fore
SplineSet
90 392 m 2,0,1
 79 424 79 424 65.5 437 c 128,-1,2
 52 450 52 450 26 450 c 2,3,-1
 9 450 l 1,4,-1
 9 474 l 1,5,-1
 254 474 l 1,6,-1
 254 450 l 1,7,-1
 225 450 l 2,8,9
 216 450 216 450 208.5 443 c 128,-1,10
 201 436 201 436 201 424 c 0,11,12
 201 414 201 414 207 396 c 2,13,-1
 296 149 l 1,14,-1
 375 368 l 2,15,16
 382 390 382 390 382 412 c 0,17,18
 382 426 382 426 372 438 c 128,-1,19
 362 450 362 450 347 450 c 2,20,-1
 321 450 l 1,21,-1
 321 474 l 1,22,-1
 491 474 l 1,23,-1
 491 450 l 1,24,-1
 469 450 l 2,25,26
 435 450 435 450 413 388 c 2,27,-1
 269 -12 l 1,28,-1
 237 -12 l 1,29,-1
 90 392 l 2,0,1
EndSplineSet
Validated: 1
EndChar

StartChar: w
Encoding: 119 119 90
Width: 755
GlyphClass: 1
Flags: W
LayerCount: 2
Fore
SplineSet
91 392 m 2,0,1
 80 423 80 423 66 436.5 c 128,-1,2
 52 450 52 450 26 450 c 2,3,-1
 9 450 l 1,4,-1
 9 474 l 1,5,-1
 240 474 l 1,6,-1
 240 450 l 1,7,-1
 221 450 l 2,8,9
 212 450 212 450 206.5 443 c 128,-1,10
 201 436 201 436 201 424 c 0,11,12
 201 414 201 414 207 396 c 2,13,-1
 297 145 l 1,14,-1
 370 349 l 1,15,-1
 355 392 l 2,16,17
 344 423 344 423 331.5 436.5 c 128,-1,18
 319 450 319 450 298 450 c 2,19,-1
 285 450 l 1,20,-1
 285 474 l 1,21,-1
 518 474 l 1,22,-1
 518 450 l 1,23,-1
 489 450 l 2,24,25
 480 450 480 450 472.5 443 c 128,-1,26
 465 436 465 436 465 424 c 0,27,28
 465 414 465 414 471 396 c 2,29,-1
 551 158 l 1,30,-1
 627 369 l 2,31,32
 634 391 634 391 634 414 c 0,33,34
 634 428 634 428 624 439 c 128,-1,35
 614 450 614 450 599 450 c 2,36,-1
 573 450 l 1,37,-1
 573 474 l 1,38,-1
 743 474 l 1,39,-1
 743 450 l 1,40,-1
 721 450 l 2,41,42
 687 450 687 450 665 388 c 2,43,-1
 521 -12 l 1,44,-1
 489 -12 l 1,45,-1
 384 307 l 1,46,-1
 269 -12 l 1,47,-1
 237 -12 l 1,48,-1
 91 392 l 2,0,1
EndSplineSet
Validated: 1
EndChar

StartChar: x
Encoding: 120 120 91
Width: 498
GlyphClass: 1
Flags: W
LayerCount: 2
Fore
SplineSet
12 24 m 1,0,-1
 50 24 l 2,1,2
 68 24 68 24 85.5 41.5 c 128,-1,3
 103 59 103 59 120 84 c 2,4,-1
 204 204 l 1,5,-1
 77 414 l 2,6,7
 67 432 67 432 57.5 441 c 128,-1,8
 48 450 48 450 34 450 c 2,9,-1
 12 450 l 1,10,-1
 12 474 l 1,11,-1
 241 474 l 1,12,-1
 241 450 l 1,13,-1
 227 450 l 2,14,15
 220 450 220 450 214 445 c 128,-1,16
 208 440 208 440 208 428 c 256,17,18
 208 416 208 416 216 404 c 2,19,-1
 275 306 l 1,20,-1
 336 395 l 2,21,22
 348 413 348 413 348 429 c 0,23,24
 348 439 348 439 339.5 444.5 c 128,-1,25
 331 450 331 450 321 450 c 2,26,-1
 281 450 l 1,27,-1
 281 474 l 1,28,-1
 458 474 l 1,29,-1
 458 450 l 1,30,-1
 431 450 l 2,31,32
 417 450 417 450 403.5 436 c 128,-1,33
 390 422 390 422 370 393 c 2,34,-1
 291 279 l 1,35,-1
 421 64 l 2,36,37
 431 47 431 47 443 35.5 c 128,-1,38
 455 24 455 24 472 24 c 2,39,-1
 488 24 l 1,40,-1
 488 0 l 1,41,-1
 261 0 l 1,42,-1
 261 24 l 1,43,-1
 276 24 l 2,44,45
 283 24 283 24 287 29.5 c 128,-1,46
 291 35 291 35 291 45 c 0,47,48
 291 59 291 59 281 75 c 2,49,-1
 220 177 l 1,50,-1
 166 99 l 2,51,52
 154 82 154 82 154 56 c 0,53,54
 154 42 154 42 161.5 33 c 128,-1,55
 169 24 169 24 179 24 c 2,56,-1
 216 24 l 1,57,-1
 216 0 l 1,58,-1
 12 0 l 1,59,-1
 12 24 l 1,0,-1
EndSplineSet
Validated: 1
EndChar

StartChar: y
Encoding: 121 121 92
Width: 503
GlyphClass: 1
Flags: W
LayerCount: 2
Fore
SplineSet
79 -212.5 m 128,-1,1
 54 -187 54 -187 54 -147 c 0,2,3
 54 -114 54 -114 75 -89 c 128,-1,4
 96 -64 96 -64 128 -64 c 0,5,6
 152 -64 152 -64 167.5 -78.5 c 128,-1,7
 183 -93 183 -93 183 -114 c 0,8,9
 183 -127 183 -127 177.5 -138 c 128,-1,10
 172 -149 172 -149 164 -156 c 0,11,12
 150 -168 150 -168 150 -182 c 0,13,14
 150 -191 150 -191 155.5 -198.5 c 128,-1,15
 161 -206 161 -206 173 -206 c 0,16,17
 190 -206 190 -206 201.5 -185 c 128,-1,18
 213 -164 213 -164 223 -132 c 2,19,-1
 256 -22 l 1,20,-1
 83 392 l 2,21,22
 69 425 69 425 57.5 437.5 c 128,-1,23
 46 450 46 450 21 450 c 2,24,-1
 6 450 l 1,25,-1
 6 474 l 1,26,-1
 251 474 l 1,27,-1
 251 450 l 1,28,-1
 222 450 l 2,29,30
 213 450 213 450 205.5 443 c 128,-1,31
 198 436 198 436 198 424 c 0,32,33
 198 413 198 413 205 396 c 2,34,-1
 308 149 l 1,35,-1
 373 368 l 2,36,37
 380 396 380 396 380 412 c 0,38,39
 380 427 380 427 372 438.5 c 128,-1,40
 364 450 364 450 349 450 c 2,41,-1
 323 450 l 1,42,-1
 323 474 l 1,43,-1
 488 474 l 1,44,-1
 488 450 l 1,45,-1
 466 450 l 2,46,47
 448 450 448 450 431.5 434.5 c 128,-1,48
 415 419 415 419 406 388 c 2,49,-1
 254 -117 l 2,50,51
 219 -238 219 -238 145 -238 c 0,52,0
 104 -238 104 -238 79 -212.5 c 128,-1,1
EndSplineSet
Validated: 1
EndChar

StartChar: z
Encoding: 122 122 93
Width: 421
GlyphClass: 1
Flags: W
LayerCount: 2
Fore
SplineSet
16 26 m 1,0,-1
 266 450 l 1,1,-1
 198 450 l 2,2,3
 138 450 138 450 104 398 c 0,4,5
 86 370 86 370 77 337.5 c 128,-1,6
 68 305 68 305 68 298 c 1,7,-1
 44 298 l 1,8,-1
 50 474 l 1,9,-1
 398 474 l 1,10,-1
 398 454 l 1,11,-1
 144 24 l 1,12,-1
 230 24 l 2,13,14
 266 24 266 24 299.5 51 c 128,-1,15
 333 78 333 78 350 116 c 0,16,17
 363 142 363 142 367.5 170 c 128,-1,18
 372 198 372 198 372 208 c 1,19,-1
 396 208 l 1,20,-1
 390 0 l 1,21,-1
 16 0 l 1,22,-1
 16 26 l 1,0,-1
EndSplineSet
Validated: 1
EndChar

StartChar: braceleft
Encoding: 123 123 94
Width: 420
GlyphClass: 1
Flags: W
LayerCount: 2
Fore
SplineSet
194.5 -141 m 128,-1,1
 140 -103 140 -103 140 -30 c 2,2,-1
 140 172 l 2,3,4
 140 222 140 222 116 237.5 c 128,-1,5
 92 253 92 253 42 253 c 1,6,-1
 42 279 l 1,7,8
 92 279 92 279 116 294.5 c 128,-1,9
 140 310 140 310 140 360 c 2,10,-1
 140 562 l 2,11,12
 140 635 140 635 194.5 673 c 128,-1,13
 249 711 249 711 346 730 c 1,14,-1
 354 702 l 1,15,16
 298 691 298 691 275 671 c 128,-1,17
 252 651 252 651 252 604 c 2,18,-1
 252 410 l 2,19,20
 252 345 252 345 220.5 312 c 128,-1,21
 189 279 189 279 137 267 c 1,22,-1
 137 265 l 1,23,24
 189 253 189 253 220.5 220 c 128,-1,25
 252 187 252 187 252 122 c 2,26,-1
 252 -72 l 2,27,28
 252 -119 252 -119 275 -139 c 128,-1,29
 298 -159 298 -159 354 -170 c 1,30,-1
 346 -198 l 1,31,0
 249 -179 249 -179 194.5 -141 c 128,-1,1
EndSplineSet
Validated: 1
EndChar

StartChar: bar
Encoding: 124 124 95
Width: 284
GlyphClass: 1
Flags: W
LayerCount: 2
Fore
SplineSet
108 -198 m 1,0,-1
 108 730 l 1,1,-1
 176 730 l 1,2,-1
 176 -198 l 1,3,-1
 108 -198 l 1,0,-1
EndSplineSet
Validated: 1
EndChar

StartChar: braceright
Encoding: 125 125 96
Width: 420
GlyphClass: 1
Flags: W
LayerCount: 2
Fore
SplineSet
66 -170 m 1,0,1
 122 -159 122 -159 145 -139 c 128,-1,2
 168 -119 168 -119 168 -72 c 2,3,-1
 168 122 l 2,4,5
 168 187 168 187 199.5 220 c 128,-1,6
 231 253 231 253 283 265 c 1,7,-1
 283 267 l 1,8,9
 231 279 231 279 199.5 312 c 128,-1,10
 168 345 168 345 168 410 c 2,11,-1
 168 604 l 2,12,13
 168 651 168 651 145 671 c 128,-1,14
 122 691 122 691 66 702 c 1,15,-1
 74 730 l 1,16,17
 171 711 171 711 225.5 673 c 128,-1,18
 280 635 280 635 280 562 c 2,19,-1
 280 360 l 2,20,21
 280 310 280 310 304 294.5 c 128,-1,22
 328 279 328 279 378 279 c 1,23,-1
 378 253 l 1,24,25
 328 253 328 253 304 237.5 c 128,-1,26
 280 222 280 222 280 172 c 2,27,-1
 280 -30 l 2,28,29
 280 -103 280 -103 225.5 -141 c 128,-1,30
 171 -179 171 -179 74 -198 c 1,31,-1
 66 -170 l 1,0,1
EndSplineSet
Validated: 1
EndChar

StartChar: asciitilde
Encoding: 126 126 97
Width: 660
GlyphClass: 1
Flags: W
LayerCount: 2
Fore
SplineSet
64.5 196.5 m 128,-1,1
 48 220 48 220 48 249 c 0,2,3
 48 294 48 294 79 328 c 128,-1,4
 110 362 110 362 164 362 c 0,5,6
 206 362 206 362 253 346 c 128,-1,7
 300 330 300 330 370 299 c 0,8,9
 429 272 429 272 469 258 c 128,-1,10
 509 244 509 244 538 244 c 0,11,12
 554 244 554 244 566 255 c 128,-1,13
 578 266 578 266 578 286 c 0,14,15
 578 307 578 307 567 321 c 128,-1,16
 556 335 556 335 536 346 c 1,17,-1
 550 367 l 1,18,19
 581 353 581 353 597.5 329.5 c 128,-1,20
 614 306 614 306 614 277 c 0,21,22
 614 232 614 232 583 198 c 128,-1,23
 552 164 552 164 498 164 c 0,24,25
 456 164 456 164 409 180 c 128,-1,26
 362 196 362 196 292 227 c 0,27,28
 233 254 233 254 193 268 c 128,-1,29
 153 282 153 282 124 282 c 0,30,31
 108 282 108 282 96 271 c 128,-1,32
 84 260 84 260 84 240 c 0,33,34
 84 219 84 219 95 205 c 128,-1,35
 106 191 106 191 126 180 c 1,36,-1
 112 159 l 1,37,0
 81 173 81 173 64.5 196.5 c 128,-1,1
EndSplineSet
Validated: 1
EndChar

StartChar: exclamdown
Encoding: 161 161 99
Width: 280
GlyphClass: 1
Flags: W
LayerCount: 2
Fore
SplineSet
84 370 m 128,-1,1
 62 392 62 392 62 426 c 256,2,3
 62 460 62 460 84 482 c 128,-1,4
 106 504 106 504 140 504 c 256,5,6
 174 504 174 504 196 482 c 128,-1,7
 218 460 218 460 218 426 c 256,8,9
 218 392 218 392 196 370 c 128,-1,10
 174 348 174 348 140 348 c 256,11,0
 106 348 106 348 84 370 c 128,-1,1
81 -212 m 128,-1,13
 58 -186 58 -186 58 -140 c 0,14,15
 58 -107 58 -107 65 -70.5 c 128,-1,16
 72 -34 72 -34 85 15 c 0,17,18
 107 100 107 100 112 142 c 2,19,-1
 128 287 l 1,20,-1
 152 287 l 1,21,-1
 168 142 l 2,22,23
 171 108 171 108 195 15 c 0,24,25
 208 -34 208 -34 215 -70.5 c 128,-1,26
 222 -107 222 -107 222 -140 c 0,27,28
 222 -186 222 -186 199 -212 c 128,-1,29
 176 -238 176 -238 140 -238 c 256,30,12
 104 -238 104 -238 81 -212 c 128,-1,13
EndSplineSet
Validated: 1
EndChar

StartChar: cent
Encoding: 162 162 100
Width: 580
GlyphClass: 1
Flags: W
LayerCount: 2
Fore
SplineSet
294 -11 m 1,0,1
 237 -5 237 -5 193.5 29.5 c 128,-1,2
 150 64 150 64 126 118.5 c 128,-1,3
 102 173 102 173 102 237 c 0,4,5
 102 302 102 302 126 356.5 c 128,-1,6
 150 411 150 411 194 445.5 c 128,-1,7
 238 480 238 480 294 485 c 1,8,-1
 294 594 l 1,9,-1
 334 594 l 1,10,-1
 334 485 l 1,11,12
 394 479 394 479 426 439 c 128,-1,13
 458 399 458 399 458 351 c 0,14,15
 458 324 458 324 442 302 c 128,-1,16
 426 280 426 280 398 280 c 0,17,18
 376 280 376 280 363 293.5 c 128,-1,19
 350 307 350 307 350 329 c 0,20,21
 350 349 350 349 373 375 c 0,22,23
 390 394 390 394 390 406 c 0,24,25
 390 424 390 424 376 441 c 128,-1,26
 362 458 362 458 334 461 c 1,27,-1
 334 18 l 1,28,29
 384 18 384 18 414 61 c 128,-1,30
 444 104 444 104 450 162 c 1,31,-1
 476 162 l 1,32,33
 470 98 470 98 436 47 c 128,-1,34
 402 -4 402 -4 334 -11 c 1,35,-1
 334 -120 l 1,36,-1
 294 -120 l 1,37,-1
 294 -11 l 1,0,1
294 456 m 1,38,39
 230 424 230 424 230 237 c 0,40,41
 230 184 230 184 232 154.5 c 128,-1,42
 234 125 234 125 241 99 c 0,43,44
 253 48 253 48 294 28 c 1,45,-1
 294 456 l 1,38,39
EndSplineSet
Validated: 1
EndChar

StartChar: sterling
Encoding: 163 163 101
Width: 720
GlyphClass: 1
Flags: W
LayerCount: 2
Fore
SplineSet
293 42 m 1,1,2
 229 -12 229 -12 162 -12 c 0,3,4
 120 -12 120 -12 92 6.5 c 128,-1,5
 64 25 64 25 64 65 c 0,6,7
 64 89 64 89 78 108.5 c 128,-1,8
 92 128 92 128 113.5 139 c 128,-1,9
 135 150 135 150 156 150 c 0,10,11
 188 150 188 150 217 142 c 128,-1,12
 246 134 246 134 290 117 c 1,13,14
 296 140 296 140 296 165 c 0,15,16
 296 224 296 224 271 299 c 0,17,18
 256 340 256 340 248 380 c 1,19,20
 226 382 226 382 215 382 c 0,21,22
 189 382 189 382 174.5 377 c 128,-1,23
 160 372 160 372 139 360 c 1,24,-1
 123 390 l 1,25,26
 138 403 138 403 156.5 410.5 c 128,-1,27
 175 418 175 418 205 418 c 0,28,29
 217 418 217 418 241 416 c 1,30,31
 236 451 236 451 236 484 c 0,32,33
 236 560 236 560 269.5 615.5 c 128,-1,34
 303 671 303 671 359 699.5 c 128,-1,35
 415 728 415 728 482 728 c 0,36,37
 535 728 535 728 574.5 707 c 128,-1,38
 614 686 614 686 634 653.5 c 128,-1,39
 654 621 654 621 654 589 c 0,40,41
 654 556 654 556 631 530 c 128,-1,42
 608 504 608 504 577 504 c 0,43,44
 555 504 555 504 536 519 c 128,-1,45
 517 534 517 534 517 557 c 0,46,47
 517 577 517 577 525 588.5 c 128,-1,48
 533 600 533 600 548 612 c 0,49,50
 560 623 560 623 564 632 c 128,-1,51
 568 641 568 641 568 653 c 0,52,53
 568 670 568 670 546 686 c 128,-1,54
 524 702 524 702 482 702 c 0,55,56
 431 702 431 702 407.5 653.5 c 128,-1,57
 384 605 384 605 384 536 c 0,58,59
 384 487 384 487 394 389 c 1,60,61
 426 384 426 384 449 384 c 0,62,63
 475 384 475 384 490.5 389.5 c 128,-1,64
 506 395 506 395 525 406 c 1,65,-1
 541 376 l 1,66,67
 513 348 513 348 459 348 c 0,68,69
 431 348 431 348 398 353 c 1,70,71
 402 305 402 305 402 274 c 0,72,73
 402 230 402 230 386.5 184.5 c 128,-1,74
 371 139 371 139 344 100 c 1,75,76
 383 89 383 89 417.5 84.5 c 128,-1,77
 452 80 452 80 492 80 c 0,78,79
 540 80 540 80 582.5 108 c 128,-1,80
 625 136 625 136 651 181 c 1,81,-1
 676 170 l 1,82,83
 647 96 647 96 588.5 39 c 128,-1,84
 530 -18 530 -18 445 -18 c 0,85,0
 385 -18 385 -18 293 42 c 1,1,2
215.5 25.5 m 128,-1,87
 242 39 242 39 262 63 c 1,88,89
 227 86 227 86 200.5 98 c 128,-1,90
 174 110 174 110 150 110 c 0,91,92
 124 110 124 110 108 96 c 128,-1,93
 92 82 92 82 92 59 c 0,94,95
 92 34 92 34 113.5 23 c 128,-1,96
 135 12 135 12 162 12 c 256,97,86
 189 12 189 12 215.5 25.5 c 128,-1,87
EndSplineSet
Validated: 1
EndChar

StartChar: currency
Encoding: 164 164 102
Width: 580
GlyphClass: 1
Flags: W
LayerCount: 2
Fore
SplineSet
38 133 m 1,0,-1
 106 201 l 1,1,2
 58 263 58 263 58 342 c 256,3,4
 58 421 58 421 106 485 c 1,5,-1
 38 553 l 1,6,-1
 80 595 l 1,7,-1
 148 527 l 1,8,9
 178 550 178 550 214.5 563 c 128,-1,10
 251 576 251 576 290 576 c 256,11,12
 329 576 329 576 365.5 563 c 128,-1,13
 402 550 402 550 432 527 c 1,14,-1
 500 595 l 1,15,-1
 542 553 l 1,16,-1
 474 485 l 1,17,18
 522 421 522 421 522 342 c 256,19,20
 522 263 522 263 474 201 c 1,21,-1
 542 133 l 1,22,-1
 500 91 l 1,23,-1
 432 159 l 1,24,25
 370 110 370 110 290 110 c 256,26,27
 210 110 210 110 148 159 c 1,28,-1
 80 91 l 1,29,-1
 38 133 l 1,0,-1
411.5 220.5 m 128,-1,31
 458 267 458 267 458 342 c 256,32,33
 458 417 458 417 411.5 464.5 c 128,-1,34
 365 512 365 512 290 512 c 256,35,36
 215 512 215 512 168.5 464.5 c 128,-1,37
 122 417 122 417 122 342 c 256,38,39
 122 267 122 267 168.5 220.5 c 128,-1,40
 215 174 215 174 290 174 c 256,41,30
 365 174 365 174 411.5 220.5 c 128,-1,31
EndSplineSet
Validated: 1
EndChar

StartChar: yen
Encoding: 165 165 103
Width: 580
GlyphClass: 1
Flags: W
LayerCount: 2
Fore
SplineSet
116 32 m 1,0,-1
 188 32 l 2,1,2
 212 32 212 32 212 56 c 2,3,-1
 212 228 l 1,4,-1
 72 228 l 1,5,-1
 72 260 l 1,6,-1
 212 260 l 1,7,-1
 212 326 l 1,8,-1
 72 326 l 1,9,-1
 72 358 l 1,10,-1
 203 358 l 1,11,-1
 80 641 l 2,12,13
 71 660 71 660 61 670 c 128,-1,14
 51 680 51 680 36 680 c 2,15,-1
 18 680 l 1,16,-1
 18 712 l 1,17,-1
 282 712 l 1,18,-1
 282 680 l 1,19,-1
 258 680 l 2,20,21
 249 680 249 680 244 673 c 128,-1,22
 239 666 239 666 239 656 c 256,23,24
 239 646 239 646 246 632 c 2,25,-1
 346 402 l 1,26,-1
 430 582 l 2,27,28
 435 592 435 592 438.5 608.5 c 128,-1,29
 442 625 442 625 442 638 c 256,30,31
 442 651 442 651 434 665.5 c 128,-1,32
 426 680 426 680 410 680 c 2,33,-1
 385 680 l 1,34,-1
 385 712 l 1,35,-1
 562 712 l 1,36,-1
 562 680 l 1,37,-1
 546 680 l 2,38,39
 525 680 525 680 509 659 c 128,-1,40
 493 638 493 638 477 605 c 2,41,-1
 360 358 l 1,42,-1
 500 358 l 1,43,-1
 500 326 l 1,44,-1
 360 326 l 1,45,-1
 360 260 l 1,46,-1
 500 260 l 1,47,-1
 500 228 l 1,48,-1
 360 228 l 1,49,-1
 360 56 l 2,50,51
 360 32 360 32 384 32 c 2,52,-1
 456 32 l 1,53,-1
 456 0 l 1,54,-1
 116 0 l 1,55,-1
 116 32 l 1,0,-1
EndSplineSet
Validated: 1
EndChar

StartChar: brokenbar
Encoding: 166 166 104
Width: 284
GlyphClass: 1
Flags: W
LayerCount: 2
Fore
SplineSet
108 370 m 1,0,-1
 108 730 l 1,1,-1
 176 730 l 1,2,-1
 176 370 l 1,3,-1
 108 370 l 1,0,-1
108 -168 m 1,4,-1
 108 192 l 1,5,-1
 176 192 l 1,6,-1
 176 -168 l 1,7,-1
 108 -168 l 1,4,-1
EndSplineSet
Validated: 1
EndChar

StartChar: section
Encoding: 167 167 105
Width: 640
GlyphClass: 1
Flags: W
LayerCount: 2
Fore
SplineSet
170 -178.5 m 128,-1,1
 131 -159 131 -159 111.5 -128 c 128,-1,2
 92 -97 92 -97 92 -64 c 0,3,4
 92 -21 92 -21 117.5 5.5 c 128,-1,5
 143 32 143 32 180 32 c 0,6,7
 208 32 208 32 225.5 16 c 128,-1,8
 243 0 243 0 243 -26 c 0,9,10
 243 -47 243 -47 233.5 -60 c 128,-1,11
 224 -73 224 -73 206 -83 c 0,12,13
 192 -91 192 -91 182 -102 c 128,-1,14
 172 -113 172 -113 172 -124 c 0,15,16
 172 -146 172 -146 202.5 -158 c 128,-1,17
 233 -170 233 -170 265 -170 c 0,18,19
 314 -170 314 -170 348 -141 c 128,-1,20
 382 -112 382 -112 382 -60 c 0,21,22
 382 -18 382 -18 363.5 7 c 128,-1,23
 345 32 345 32 307 50 c 2,24,-1
 156 121 l 2,25,26
 104 145 104 145 77 182.5 c 128,-1,27
 50 220 50 220 50 274 c 0,28,29
 50 319 50 319 72 357 c 128,-1,30
 94 395 94 395 127 419 c 1,31,32
 92 468 92 468 92 543 c 0,33,34
 92 595 92 595 118.5 636.5 c 128,-1,35
 145 678 145 678 190.5 701 c 128,-1,36
 236 724 236 724 291 724 c 0,37,38
 345 724 345 724 384 704.5 c 128,-1,39
 423 685 423 685 442.5 654 c 128,-1,40
 462 623 462 623 462 590 c 0,41,42
 462 547 462 547 436.5 520.5 c 128,-1,43
 411 494 411 494 374 494 c 0,44,45
 346 494 346 494 328.5 510 c 128,-1,46
 311 526 311 526 311 552 c 0,47,48
 311 573 311 573 320.5 586 c 128,-1,49
 330 599 330 599 348 609 c 0,50,51
 362 617 362 617 372 628 c 128,-1,52
 382 639 382 639 382 650 c 0,53,54
 382 672 382 672 352 684 c 128,-1,55
 322 696 322 696 289 696 c 0,56,57
 240 696 240 696 206 667 c 128,-1,58
 172 638 172 638 172 586 c 0,59,60
 172 544 172 544 190.5 519 c 128,-1,61
 209 494 209 494 247 476 c 2,62,-1
 398 405 l 2,63,64
 450 381 450 381 477 343.5 c 128,-1,65
 504 306 504 306 504 252 c 0,66,67
 504 207 504 207 482 169 c 128,-1,68
 460 131 460 131 427 107 c 1,69,70
 462 58 462 58 462 -17 c 0,71,72
 462 -69 462 -69 435.5 -110.5 c 128,-1,73
 409 -152 409 -152 363.5 -175 c 128,-1,74
 318 -198 318 -198 263 -198 c 0,75,0
 209 -198 209 -198 170 -178.5 c 128,-1,1
440.5 154 m 128,-1,77
 448 169 448 169 448 189 c 0,78,79
 448 212 448 212 439 229.5 c 128,-1,80
 430 247 430 247 412 256 c 2,81,-1
 212 352 l 2,82,83
 169 373 169 373 141 402 c 1,84,85
 121 387 121 387 113.5 372 c 128,-1,86
 106 357 106 357 106 337 c 0,87,88
 106 314 106 314 115 296.5 c 128,-1,89
 124 279 124 279 142 270 c 2,90,-1
 342 174 l 2,91,92
 385 153 385 153 413 124 c 1,93,76
 433 139 433 139 440.5 154 c 128,-1,77
EndSplineSet
Validated: 1
EndChar

StartChar: dieresis
Encoding: 168 168 106
Width: 512
GlyphClass: 1
Flags: W
LayerCount: 2
Fore
SplineSet
117.5 575.5 m 128,-1,1
 100 593 100 593 100 618 c 256,2,3
 100 643 100 643 117.5 660.5 c 128,-1,4
 135 678 135 678 160 678 c 256,5,6
 185 678 185 678 202.5 660.5 c 128,-1,7
 220 643 220 643 220 618 c 256,8,9
 220 593 220 593 202.5 575.5 c 128,-1,10
 185 558 185 558 160 558 c 256,11,0
 135 558 135 558 117.5 575.5 c 128,-1,1
309.5 575.5 m 128,-1,13
 292 593 292 593 292 618 c 256,14,15
 292 643 292 643 309.5 660.5 c 128,-1,16
 327 678 327 678 352 678 c 256,17,18
 377 678 377 678 394.5 660.5 c 128,-1,19
 412 643 412 643 412 618 c 256,20,21
 412 593 412 593 394.5 575.5 c 128,-1,22
 377 558 377 558 352 558 c 256,23,12
 327 558 327 558 309.5 575.5 c 128,-1,13
EndSplineSet
Validated: 1
EndChar

StartChar: copyright
Encoding: 169 169 107
Width: 820
GlyphClass: 1
Flags: W
LayerCount: 2
Fore
SplineSet
226 32.5 m 128,-1,1
 143 83 143 83 95.5 168.5 c 128,-1,2
 48 254 48 254 48 356 c 256,3,4
 48 458 48 458 95.5 543.5 c 128,-1,5
 143 629 143 629 226 679.5 c 128,-1,6
 309 730 309 730 410 730 c 256,7,8
 511 730 511 730 594 679.5 c 128,-1,9
 677 629 677 629 724.5 543.5 c 128,-1,10
 772 458 772 458 772 356 c 256,11,12
 772 254 772 254 724.5 168.5 c 128,-1,13
 677 83 677 83 594 32.5 c 128,-1,14
 511 -18 511 -18 410 -18 c 256,15,0
 309 -18 309 -18 226 32.5 c 128,-1,1
574 64 m 128,-1,17
 648 110 648 110 690 187.5 c 128,-1,18
 732 265 732 265 732 356 c 256,19,20
 732 447 732 447 690 524.5 c 128,-1,21
 648 602 648 602 574 648 c 128,-1,22
 500 694 500 694 410 694 c 256,23,24
 320 694 320 694 246 648 c 128,-1,25
 172 602 172 602 130 524.5 c 128,-1,26
 88 447 88 447 88 356 c 256,27,28
 88 265 88 265 130 187.5 c 128,-1,29
 172 110 172 110 246 64 c 128,-1,30
 320 18 320 18 410 18 c 256,31,16
 500 18 500 18 574 64 c 128,-1,17
306.5 144 m 128,-1,33
 263 178 263 178 241.5 233 c 128,-1,34
 220 288 220 288 220 351 c 0,35,36
 220 417 220 417 242 472.5 c 128,-1,37
 264 528 264 528 305 561 c 128,-1,38
 346 594 346 594 401 594 c 0,39,40
 448 594 448 594 489 564 c 0,41,42
 507 552 507 552 513 552 c 0,43,44
 523 552 523 552 528 565 c 2,45,-1
 537 588 l 1,46,-1
 562 588 l 1,47,-1
 562 390 l 1,48,-1
 538 390 l 1,49,50
 524 472 524 472 491.5 519 c 128,-1,51
 459 566 459 566 415 566 c 0,52,53
 387 566 387 566 367.5 538 c 128,-1,54
 348 510 348 510 348 447 c 2,55,-1
 348 256 l 2,56,57
 348 194 348 194 370 166 c 128,-1,58
 392 138 392 138 422 138 c 0,59,60
 492 138 492 138 526 205 c 0,61,62
 542 237 542 237 550 300 c 1,63,-1
 576 300 l 1,64,65
 573 238 573 238 549 192 c 0,66,67
 529 153 529 153 494 131.5 c 128,-1,68
 459 110 459 110 411 110 c 0,69,32
 350 110 350 110 306.5 144 c 128,-1,33
EndSplineSet
Validated: 1
EndChar

StartChar: ordfeminine
Encoding: 170 170 108
Width: 380
GlyphClass: 1
Flags: W
LayerCount: 2
Fore
SplineSet
69.5 427 m 128,-1,1
 44 444 44 444 44 483 c 0,2,3
 44 524 44 524 75 545.5 c 128,-1,4
 106 567 106 567 159 585 c 2,5,-1
 198 599 l 1,6,-1
 198 639 l 2,7,8
 198 694 198 694 156 694 c 0,9,10
 139 694 139 694 126.5 687 c 128,-1,11
 114 680 114 680 114 667 c 0,12,13
 114 656 114 656 125 650 c 0,14,15
 135 644 135 644 139 638.5 c 128,-1,16
 143 633 143 633 143 624 c 0,17,18
 143 609 143 609 131 601.5 c 128,-1,19
 119 594 119 594 104 594 c 0,20,21
 87 594 87 594 73.5 604.5 c 128,-1,22
 60 615 60 615 60 635 c 0,23,24
 60 670 60 670 92 691 c 128,-1,25
 124 712 124 712 163 712 c 0,26,27
 212 712 212 712 247 691 c 128,-1,28
 282 670 282 670 282 625 c 2,29,-1
 282 467 l 2,30,31
 282 446 282 446 295 446 c 0,32,33
 305 446 305 446 310.5 463.5 c 128,-1,34
 316 481 316 481 316 504 c 1,35,-1
 336 504 l 1,36,37
 336 457 336 457 321 435 c 0,38,39
 314 424 314 424 300 417 c 128,-1,40
 286 410 286 410 268 410 c 0,41,42
 241 410 241 410 226 419 c 128,-1,43
 211 428 211 428 201 447 c 1,44,-1
 200 447 l 1,45,46
 190 431 190 431 171.5 420.5 c 128,-1,47
 153 410 153 410 130 410 c 0,48,0
 95 410 95 410 69.5 427 c 128,-1,1
198 463 m 1,50,-1
 198 581 l 1,51,-1
 170 571 l 2,52,53
 132 557 132 557 132 490 c 0,54,55
 132 462 132 462 141.5 451 c 128,-1,56
 151 440 151 440 162 440 c 0,57,49
 184 440 184 440 198 463 c 1,50,-1
52 354 m 1,58,-1
 52 386 l 1,59,-1
 328 386 l 1,60,-1
 328 354 l 1,61,-1
 52 354 l 1,58,-1
EndSplineSet
Validated: 1
EndChar

StartChar: guillemotleft
Encoding: 171 171 109
Width: 480
GlyphClass: 1
Flags: W
LayerCount: 2
Fore
SplineSet
108 237 m 256,1,2
 108 371 108 371 232 446 c 1,3,-1
 248 430 l 1,4,5
 225 405 225 405 214.5 382.5 c 128,-1,6
 204 360 204 360 200 328 c 128,-1,7
 196 296 196 296 196 237 c 256,8,9
 196 178 196 178 200 146 c 128,-1,10
 204 114 204 114 214.5 91.5 c 128,-1,11
 225 69 225 69 248 44 c 1,12,-1
 232 28 l 1,13,0
 108 103 108 103 108 237 c 256,1,2
296 124.5 m 128,-1,15
 265 176 265 176 265 237 c 256,16,17
 265 298 265 298 290 342 c 128,-1,18
 315 386 315 386 360 428 c 1,19,-1
 376 412 l 1,20,21
 351 378 351 378 344 338.5 c 128,-1,22
 337 299 337 299 337 237 c 256,23,24
 337 175 337 175 344 135.5 c 128,-1,25
 351 96 351 96 376 62 c 1,26,-1
 360 46 l 1,27,14
 327 73 327 73 296 124.5 c 128,-1,15
EndSplineSet
Validated: 1
EndChar

StartChar: logicalnot
Encoding: 172 172 110
Width: 580
GlyphClass: 1
Flags: W
LayerCount: 2
Fore
SplineSet
472 137 m 1,0,-1
 472 345 l 1,1,-1
 40 345 l 1,2,-1
 40 409 l 1,3,-1
 540 409 l 1,4,-1
 540 137 l 1,5,-1
 472 137 l 1,0,-1
EndSplineSet
Validated: 1
EndChar

StartChar: uni00AD
Encoding: 173 173 111
Width: 370
GlyphClass: 1
Flags: W
LayerCount: 2
Fore
SplineSet
56 208 m 1,0,-1
 56 310 l 1,1,-1
 314 310 l 1,2,-1
 314 208 l 1,3,-1
 56 208 l 1,0,-1
EndSplineSet
Validated: 1
EndChar

StartChar: registered
Encoding: 174 174 112
Width: 820
GlyphClass: 1
Flags: W
LayerCount: 2
Fore
SplineSet
226 32.5 m 128,-1,1
 143 83 143 83 95.5 168.5 c 128,-1,2
 48 254 48 254 48 356 c 256,3,4
 48 458 48 458 95.5 543.5 c 128,-1,5
 143 629 143 629 226 679.5 c 128,-1,6
 309 730 309 730 410 730 c 256,7,8
 511 730 511 730 594 679.5 c 128,-1,9
 677 629 677 629 724.5 543.5 c 128,-1,10
 772 458 772 458 772 356 c 256,11,12
 772 254 772 254 724.5 168.5 c 128,-1,13
 677 83 677 83 594 32.5 c 128,-1,14
 511 -18 511 -18 410 -18 c 256,15,0
 309 -18 309 -18 226 32.5 c 128,-1,1
574 64 m 128,-1,17
 648 110 648 110 690 187.5 c 128,-1,18
 732 265 732 265 732 356 c 256,19,20
 732 447 732 447 690 524.5 c 128,-1,21
 648 602 648 602 574 648 c 128,-1,22
 500 694 500 694 410 694 c 256,23,24
 320 694 320 694 246 648 c 128,-1,25
 172 602 172 602 130 524.5 c 128,-1,26
 88 447 88 447 88 356 c 256,27,28
 88 265 88 265 130 187.5 c 128,-1,29
 172 110 172 110 246 64 c 128,-1,30
 320 18 320 18 410 18 c 256,31,16
 500 18 500 18 574 64 c 128,-1,17
490.5 136.5 m 128,-1,33
 464 161 464 161 464 208 c 2,34,-1
 464 287 l 2,35,36
 464 318 464 318 450 339 c 128,-1,37
 436 360 436 360 407 360 c 2,38,-1
 374 360 l 1,39,-1
 374 172 l 2,40,41
 374 154 374 154 392 154 c 2,42,-1
 440 154 l 1,43,-1
 440 130 l 1,44,-1
 204 130 l 1,45,-1
 204 154 l 1,46,-1
 244 154 l 2,47,48
 262 154 262 154 262 172 c 2,49,-1
 262 544 l 2,50,51
 262 562 262 562 244 562 c 2,52,-1
 204 562 l 1,53,-1
 204 586 l 1,54,-1
 428 586 l 2,55,56
 502 586 502 586 547 555.5 c 128,-1,57
 592 525 592 525 592 473 c 0,58,59
 592 429 592 429 554.5 402.5 c 128,-1,60
 517 376 517 376 456 370 c 1,61,-1
 456 365 l 1,62,63
 514 356 514 356 545 330 c 128,-1,64
 576 304 576 304 576 249 c 2,65,-1
 576 180 l 2,66,67
 576 166 576 166 580 160 c 128,-1,68
 584 154 584 154 592 154 c 0,69,70
 608 154 608 154 615 181 c 128,-1,71
 622 208 622 208 622 246 c 1,72,-1
 646 246 l 1,73,74
 646 182 646 182 627.5 147 c 128,-1,75
 609 112 609 112 562 112 c 0,76,32
 517 112 517 112 490.5 136.5 c 128,-1,33
414 385 m 2,77,78
 446 385 446 385 459 409.5 c 128,-1,79
 472 434 472 434 472 477 c 256,80,81
 472 520 472 520 459.5 541 c 128,-1,82
 447 562 447 562 414 562 c 2,83,-1
 392 562 l 2,84,85
 374 562 374 562 374 544 c 2,86,-1
 374 385 l 1,87,-1
 414 385 l 2,77,78
EndSplineSet
Validated: 1
EndChar

StartChar: macron
Encoding: 175 175 113
Width: 460
GlyphClass: 1
Flags: W
LayerCount: 2
Fore
SplineSet
100 584 m 1,0,-1
 100 648 l 1,1,-1
 360 648 l 1,2,-1
 360 584 l 1,3,-1
 100 584 l 1,0,-1
EndSplineSet
Validated: 1
EndChar

StartChar: degree
Encoding: 176 176 114
Width: 580
GlyphClass: 1
Flags: W
LayerCount: 2
Fore
SplineSet
210 429.5 m 128,-1,1
 173 451 173 451 151.5 488 c 128,-1,2
 130 525 130 525 130 568 c 256,3,4
 130 611 130 611 151.5 648 c 128,-1,5
 173 685 173 685 210 706.5 c 128,-1,6
 247 728 247 728 290 728 c 256,7,8
 333 728 333 728 370 706.5 c 128,-1,9
 407 685 407 685 428.5 648 c 128,-1,10
 450 611 450 611 450 568 c 256,11,12
 450 525 450 525 428.5 488 c 128,-1,13
 407 451 407 451 370 429.5 c 128,-1,14
 333 408 333 408 290 408 c 256,15,0
 247 408 247 408 210 429.5 c 128,-1,1
364.5 493.5 m 128,-1,17
 394 523 394 523 394 568 c 256,18,19
 394 613 394 613 364.5 642.5 c 128,-1,20
 335 672 335 672 290 672 c 256,21,22
 245 672 245 672 215.5 642.5 c 128,-1,23
 186 613 186 613 186 568 c 256,24,25
 186 523 186 523 215.5 493.5 c 128,-1,26
 245 464 245 464 290 464 c 256,27,16
 335 464 335 464 364.5 493.5 c 128,-1,17
EndSplineSet
Validated: 1
EndChar

StartChar: plusminus
Encoding: 177 177 115
Width: 940
GlyphClass: 1
Flags: W
LayerCount: 2
Fore
SplineSet
436 64 m 1,0,-1
 436 344 l 1,1,-1
 48 344 l 1,2,-1
 48 408 l 1,3,-1
 436 408 l 1,4,-1
 436 688 l 1,5,-1
 504 688 l 1,6,-1
 504 408 l 1,7,-1
 892 408 l 1,8,-1
 892 344 l 1,9,-1
 504 344 l 1,10,-1
 504 64 l 1,11,-1
 436 64 l 1,0,-1
48 -64 m 1,12,-1
 48 0 l 1,13,-1
 884 0 l 1,14,-1
 884 -64 l 1,15,-1
 48 -64 l 1,12,-1
EndSplineSet
Validated: 1
EndChar

StartChar: uni00B2
Encoding: 178 178 116
Width: 388
GlyphClass: 1
Flags: W
LayerCount: 2
Fore
SplineSet
145 320 m 0,1,2
 133 333 133 333 124.5 338.5 c 128,-1,3
 116 344 116 344 104 344 c 0,4,5
 95 344 95 344 88.5 338 c 128,-1,6
 82 332 82 332 82 323 c 2,7,-1
 82 286 l 1,8,-1
 54 286 l 1,9,-1
 54 314 l 2,10,11
 54 351 54 351 69 387.5 c 128,-1,12
 84 424 84 424 136 470 c 0,13,14
 185 514 185 514 209.5 546.5 c 128,-1,15
 234 579 234 579 234 619 c 0,16,17
 234 652 234 652 220 674.5 c 128,-1,18
 206 697 206 697 173 697 c 0,19,20
 150 697 150 697 135 683 c 128,-1,21
 120 669 120 669 120 650 c 0,22,23
 120 627 120 627 137 616 c 0,24,25
 151 606 151 606 157.5 597.5 c 128,-1,26
 164 589 164 589 164 576 c 0,27,28
 164 561 164 561 151 551 c 128,-1,29
 138 541 138 541 119 541 c 0,30,31
 90 541 90 541 69 559.5 c 128,-1,32
 48 578 48 578 48 609 c 256,33,34
 48 640 48 640 67 666.5 c 128,-1,35
 86 693 86 693 119 708.5 c 128,-1,36
 152 724 152 724 192 724 c 0,37,38
 266 724 266 724 304 695.5 c 128,-1,39
 342 667 342 667 342 620 c 0,40,41
 342 544 342 544 179 466 c 0,42,43
 153 454 153 454 126 428.5 c 128,-1,44
 99 403 99 403 92 374 c 1,45,-1
 96 372 l 1,46,47
 120 396 120 396 146 396 c 0,48,49
 167 396 167 396 202 391 c 0,50,51
 232 386 232 386 261 386 c 0,52,53
 285 386 285 386 300.5 397 c 128,-1,54
 316 408 316 408 316 423 c 0,55,56
 316 441 316 441 312 457 c 1,57,-1
 335 457 l 1,58,59
 339 433 339 433 339 407 c 0,60,61
 339 355 339 355 312.5 314.5 c 128,-1,62
 286 274 286 274 231 274 c 0,63,0
 189 274 189 274 145 320 c 0,1,2
EndSplineSet
Validated: 1
EndChar

StartChar: uni00B3
Encoding: 179 179 117
Width: 388
GlyphClass: 1
Flags: W
LayerCount: 2
Fore
SplineSet
75 299.5 m 128,-1,1
 36 325 36 325 36 368 c 0,2,3
 36 393 36 393 55 411.5 c 128,-1,4
 74 430 74 430 103 430 c 0,5,6
 127 430 127 430 141 419 c 128,-1,7
 155 408 155 408 155 391 c 0,8,9
 155 363 155 363 124 351 c 0,10,11
 117 348 117 348 111.5 343 c 128,-1,12
 106 338 106 338 106 332 c 0,13,14
 106 316 106 316 123 307 c 128,-1,15
 140 298 140 298 170 298 c 0,16,17
 205 298 205 298 222.5 323.5 c 128,-1,18
 240 349 240 349 240 401 c 0,19,20
 240 449 240 449 221 472 c 128,-1,21
 202 495 202 495 174 495 c 2,22,-1
 107 495 l 1,23,-1
 107 523 l 1,24,-1
 172 523 l 2,25,26
 203 523 203 523 217.5 543.5 c 128,-1,27
 232 564 232 564 232 608 c 0,28,29
 232 661 232 661 217.5 680.5 c 128,-1,30
 203 700 203 700 175 700 c 0,31,32
 150 700 150 700 132 687.5 c 128,-1,33
 114 675 114 675 114 655 c 0,34,35
 114 648 114 648 120 641.5 c 128,-1,36
 126 635 126 635 134 631 c 0,37,38
 157 618 157 618 157 596 c 0,39,40
 157 582 157 582 144.5 571.5 c 128,-1,41
 132 561 132 561 112 561 c 0,42,43
 87 561 87 561 68.5 579 c 128,-1,44
 50 597 50 597 50 623 c 0,45,46
 50 668 50 668 89 696 c 128,-1,47
 128 724 128 724 184 724 c 0,48,49
 253 724 253 724 296.5 695 c 128,-1,50
 340 666 340 666 340 616 c 0,51,52
 340 573 340 573 305.5 548 c 128,-1,53
 271 523 271 523 222 514 c 1,54,-1
 222 507 l 1,55,56
 274 503 274 503 315 472.5 c 128,-1,57
 356 442 356 442 356 398 c 0,58,59
 356 338 356 338 306 306 c 128,-1,60
 256 274 256 274 173 274 c 0,61,0
 114 274 114 274 75 299.5 c 128,-1,1
EndSplineSet
Validated: 1
EndChar

StartChar: acute
Encoding: 180 180 118
Width: 380
GlyphClass: 1
Flags: W
LayerCount: 2
Fore
SplineSet
100 542 m 1,0,-1
 189 680 l 2,1,2
 200 698 200 698 212 705 c 128,-1,3
 224 712 224 712 238 712 c 0,4,5
 256 712 256 712 268 701 c 128,-1,6
 280 690 280 690 280 672 c 0,7,8
 280 645 280 645 252 624 c 2,9,-1
 120 524 l 1,10,-1
 100 542 l 1,0,-1
EndSplineSet
Validated: 1
EndChar

StartChar: uni00B5
Encoding: 181 181 119
Width: 606
GlyphClass: 1
Flags: W
LayerCount: 2
Fore
SplineSet
92.5 -252.5 m 128,-1,1
 74 -223 74 -223 74 -185 c 0,2,3
 74 -108 74 -108 94 -21 c 0,4,5
 105 33 105 33 109 92 c 1,6,7
 90 146 90 146 75 216 c 128,-1,8
 60 286 60 286 60 354 c 0,9,10
 60 405 60 405 81.5 444.5 c 128,-1,11
 103 484 103 484 135 484 c 0,12,13
 166 484 166 484 181 454 c 128,-1,14
 196 424 196 424 196 389 c 0,15,16
 196 364 196 364 189.5 326 c 128,-1,17
 183 288 183 288 174 259 c 0,18,19
 149 179 149 179 138 107 c 1,20,21
 159 49 159 49 239 49 c 0,22,23
 272 49 272 49 299.5 69.5 c 128,-1,24
 327 90 327 90 342.5 116.5 c 128,-1,25
 358 143 358 143 358 158 c 1,26,27
 326 251 326 251 326 362 c 0,28,29
 326 407 326 407 342 445.5 c 128,-1,30
 358 484 358 484 390 484 c 256,31,32
 422 484 422 484 442 446.5 c 128,-1,33
 462 409 462 409 462 355 c 0,34,35
 462 302 462 302 448 233.5 c 128,-1,36
 434 165 434 165 410 115 c 1,37,38
 434 91 434 91 460 91 c 0,39,40
 497 91 497 91 518.5 116 c 128,-1,41
 540 141 540 141 554 192 c 1,42,-1
 572 188 l 1,43,44
 572 107 572 107 553 46 c 128,-1,45
 534 -15 534 -15 485 -15 c 0,46,47
 450 -15 450 -15 430 8 c 128,-1,48
 410 31 410 31 392 72 c 1,49,-1
 387 71 l 1,50,51
 370 40 370 40 337 15 c 128,-1,52
 304 -10 304 -10 265 -10 c 0,53,54
 192 -10 192 -10 134 53 c 1,55,-1
 131 52 l 1,56,57
 128 31 128 31 128 16 c 0,58,59
 128 -13 128 -13 137.5 -39 c 128,-1,60
 147 -65 147 -65 166 -100 c 0,61,62
 186 -139 186 -139 196.5 -164.5 c 128,-1,63
 207 -190 207 -190 207 -211 c 0,64,65
 207 -239 207 -239 191 -260.5 c 128,-1,66
 175 -282 175 -282 146 -282 c 0,67,0
 111 -282 111 -282 92.5 -252.5 c 128,-1,1
EndSplineSet
Validated: 1
EndChar

StartChar: paragraph
Encoding: 182 182 120
Width: 600
GlyphClass: 1
Flags: W
LayerCount: 2
Fore
SplineSet
258 321 m 1,0,1
 201 321 201 321 155 344.5 c 128,-1,2
 109 368 109 368 82.5 411 c 128,-1,3
 56 454 56 454 56 510 c 0,4,5
 56 567 56 567 82.5 613 c 128,-1,6
 109 659 109 659 155 685.5 c 128,-1,7
 201 712 201 712 258 712 c 2,8,-1
 544 712 l 1,9,-1
 544 678 l 1,10,-1
 474 678 l 1,11,-1
 474 -156 l 1,12,-1
 406 -156 l 1,13,-1
 406 678 l 1,14,-1
 326 678 l 1,15,-1
 326 -156 l 1,16,-1
 258 -156 l 1,17,-1
 258 321 l 1,0,1
EndSplineSet
Validated: 1
EndChar

StartChar: periodcentered
Encoding: 183 183 121
Width: 280
GlyphClass: 1
Flags: W
LayerCount: 2
Fore
SplineSet
84 274 m 128,-1,1
 62 296 62 296 62 330 c 256,2,3
 62 364 62 364 84 386 c 128,-1,4
 106 408 106 408 140 408 c 256,5,6
 174 408 174 408 196 386 c 128,-1,7
 218 364 218 364 218 330 c 256,8,9
 218 296 218 296 196 274 c 128,-1,10
 174 252 174 252 140 252 c 256,11,0
 106 252 106 252 84 274 c 128,-1,1
EndSplineSet
Validated: 1
EndChar

StartChar: cedilla
Encoding: 184 184 122
Width: 404
GlyphClass: 1
Flags: W
LayerCount: 2
Fore
SplineSet
130 -191 m 128,-1,1
 100 -174 100 -174 100 -143 c 0,2,3
 100 -128 100 -128 107.5 -119.5 c 128,-1,4
 115 -111 115 -111 129 -111 c 0,5,6
 144 -111 144 -111 150 -120 c 128,-1,7
 156 -129 156 -129 160 -148 c 0,8,9
 168 -186 168 -186 209 -186 c 0,10,11
 231 -186 231 -186 243.5 -173 c 128,-1,12
 256 -160 256 -160 256 -140 c 0,13,14
 256 -121 256 -121 244 -109.5 c 128,-1,15
 232 -98 232 -98 208 -98 c 2,16,-1
 161 -98 l 1,17,-1
 177 0 l 1,18,-1
 202 0 l 1,19,-1
 195 -42 l 1,20,-1
 220 -42 l 2,21,22
 256 -42 256 -42 280 -63.5 c 128,-1,23
 304 -85 304 -85 304 -117 c 0,24,25
 304 -155 304 -155 277.5 -181.5 c 128,-1,26
 251 -208 251 -208 195 -208 c 0,27,0
 160 -208 160 -208 130 -191 c 128,-1,1
EndSplineSet
Validated: 1
EndChar

StartChar: uni00B9
Encoding: 185 185 123
Width: 388
GlyphClass: 1
Flags: W
LayerCount: 2
Fore
SplineSet
88 310 m 1,0,-1
 132 310 l 2,1,2
 141 310 141 310 144.5 313.5 c 128,-1,3
 148 317 148 317 148 326 c 2,4,-1
 148 636 l 1,5,-1
 88 636 l 1,6,-1
 88 664 l 1,7,-1
 115 664 l 2,8,9
 143 664 143 664 167.5 676.5 c 128,-1,10
 192 689 192 689 201 712 c 1,11,-1
 256 712 l 1,12,-1
 256 326 l 2,13,14
 256 317 256 317 259.5 313.5 c 128,-1,15
 263 310 263 310 272 310 c 2,16,-1
 316 310 l 1,17,-1
 316 286 l 1,18,-1
 88 286 l 1,19,-1
 88 310 l 1,0,-1
EndSplineSet
Validated: 1
EndChar

StartChar: ordmasculine
Encoding: 186 186 124
Width: 380
GlyphClass: 1
Flags: W
LayerCount: 2
Fore
SplineSet
122 430.5 m 128,-1,1
 91 451 91 451 73.5 485.5 c 128,-1,2
 56 520 56 520 56 561 c 256,3,4
 56 602 56 602 73.5 636.5 c 128,-1,5
 91 671 91 671 122 691.5 c 128,-1,6
 153 712 153 712 190 712 c 256,7,8
 227 712 227 712 258 691.5 c 128,-1,9
 289 671 289 671 306.5 636.5 c 128,-1,10
 324 602 324 602 324 561 c 256,11,12
 324 520 324 520 306.5 485.5 c 128,-1,13
 289 451 289 451 258 430.5 c 128,-1,14
 227 410 227 410 190 410 c 256,15,0
 153 410 153 410 122 430.5 c 128,-1,1
223.5 461 m 128,-1,17
 232 494 232 494 232 561 c 256,18,19
 232 628 232 628 223.5 661 c 128,-1,20
 215 694 215 694 190 694 c 0,21,22
 164 694 164 694 156 661.5 c 128,-1,23
 148 629 148 629 148 561 c 256,24,25
 148 493 148 493 156 460.5 c 128,-1,26
 164 428 164 428 190 428 c 0,27,16
 215 428 215 428 223.5 461 c 128,-1,17
56 354 m 1,28,-1
 56 386 l 1,29,-1
 324 386 l 1,30,-1
 324 354 l 1,31,-1
 56 354 l 1,28,-1
EndSplineSet
Validated: 1
EndChar

StartChar: guillemotright
Encoding: 187 187 125
Width: 480
GlyphClass: 1
Flags: W
LayerCount: 2
Fore
SplineSet
232 44 m 1,0,1
 255 69 255 69 265.5 91.5 c 128,-1,2
 276 114 276 114 280 146 c 128,-1,3
 284 178 284 178 284 237 c 256,4,5
 284 296 284 296 280 328 c 128,-1,6
 276 360 276 360 265.5 382.5 c 128,-1,7
 255 405 255 405 232 430 c 1,8,-1
 248 446 l 1,9,10
 372 371 372 371 372 237 c 256,11,12
 372 103 372 103 248 28 c 1,13,-1
 232 44 l 1,0,1
104 62 m 1,14,15
 129 96 129 96 136 135.5 c 128,-1,16
 143 175 143 175 143 237 c 256,17,18
 143 299 143 299 136 338.5 c 128,-1,19
 129 378 129 378 104 412 c 1,20,-1
 120 428 l 1,21,22
 165 386 165 386 190 342 c 128,-1,23
 215 298 215 298 215 237 c 256,24,25
 215 176 215 176 184 124.5 c 128,-1,26
 153 73 153 73 120 46 c 1,27,-1
 104 62 l 1,14,15
EndSplineSet
Validated: 1
EndChar

StartChar: onequarter
Encoding: 188 188 126
Width: 860
GlyphClass: 1
Flags: W
LayerCount: 2
Fore
SplineSet
188 -18 m 1,0,-1
 622 730 l 1,1,-1
 672 730 l 1,2,-1
 238 -18 l 1,3,-1
 188 -18 l 1,0,-1
88 310 m 1,4,-1
 132 310 l 2,5,6
 141 310 141 310 144.5 313.5 c 128,-1,7
 148 317 148 317 148 326 c 2,8,-1
 148 636 l 1,9,-1
 88 636 l 1,10,-1
 88 664 l 1,11,-1
 115 664 l 2,12,13
 143 664 143 664 167.5 676.5 c 128,-1,14
 192 689 192 689 201 712 c 1,15,-1
 256 712 l 1,16,-1
 256 326 l 2,17,18
 256 317 256 317 259.5 313.5 c 128,-1,19
 263 310 263 310 272 310 c 2,20,-1
 316 310 l 1,21,-1
 316 286 l 1,22,-1
 88 286 l 1,23,-1
 88 310 l 1,4,-1
570 24 m 1,24,-1
 634 24 l 2,25,26
 643 24 643 24 646.5 27.5 c 128,-1,27
 650 31 650 31 650 40 c 2,28,-1
 650 118 l 1,29,-1
 502 118 l 1,30,-1
 502 147 l 1,31,-1
 684 426 l 1,32,-1
 758 426 l 1,33,-1
 758 146 l 1,34,-1
 828 146 l 1,35,-1
 828 118 l 1,36,-1
 758 118 l 1,37,-1
 758 40 l 2,38,39
 758 31 758 31 761.5 27.5 c 128,-1,40
 765 24 765 24 774 24 c 2,41,-1
 818 24 l 1,42,-1
 818 0 l 1,43,-1
 570 0 l 1,44,-1
 570 24 l 1,24,-1
540 146 m 1,45,-1
 650 146 l 1,46,-1
 650 314 l 1,47,-1
 540 146 l 1,45,-1
EndSplineSet
Validated: 1
EndChar

StartChar: onehalf
Encoding: 189 189 127
Width: 860
GlyphClass: 1
Flags: W
LayerCount: 2
Fore
SplineSet
188 -18 m 1,0,-1
 622 730 l 1,1,-1
 672 730 l 1,2,-1
 238 -18 l 1,3,-1
 188 -18 l 1,0,-1
88 310 m 1,4,-1
 132 310 l 2,5,6
 141 310 141 310 144.5 313.5 c 128,-1,7
 148 317 148 317 148 326 c 2,8,-1
 148 636 l 1,9,-1
 88 636 l 1,10,-1
 88 664 l 1,11,-1
 115 664 l 2,12,13
 143 664 143 664 167.5 676.5 c 128,-1,14
 192 689 192 689 201 712 c 1,15,-1
 256 712 l 1,16,-1
 256 326 l 2,17,18
 256 317 256 317 259.5 313.5 c 128,-1,19
 263 310 263 310 272 310 c 2,20,-1
 316 310 l 1,21,-1
 316 286 l 1,22,-1
 88 286 l 1,23,-1
 88 310 l 1,4,-1
617 34 m 0,25,26
 605 47 605 47 596.5 52.5 c 128,-1,27
 588 58 588 58 576 58 c 0,28,29
 567 58 567 58 560.5 52 c 128,-1,30
 554 46 554 46 554 37 c 2,31,-1
 554 0 l 1,32,-1
 526 0 l 1,33,-1
 526 28 l 2,34,35
 526 65 526 65 541 101.5 c 128,-1,36
 556 138 556 138 608 184 c 0,37,38
 657 228 657 228 681.5 260.5 c 128,-1,39
 706 293 706 293 706 333 c 0,40,41
 706 366 706 366 692 388.5 c 128,-1,42
 678 411 678 411 645 411 c 0,43,44
 622 411 622 411 607 397 c 128,-1,45
 592 383 592 383 592 364 c 0,46,47
 592 341 592 341 609 330 c 0,48,49
 623 320 623 320 629.5 311.5 c 128,-1,50
 636 303 636 303 636 290 c 0,51,52
 636 275 636 275 623 265 c 128,-1,53
 610 255 610 255 591 255 c 0,54,55
 562 255 562 255 541 273.5 c 128,-1,56
 520 292 520 292 520 323 c 256,57,58
 520 354 520 354 539 380.5 c 128,-1,59
 558 407 558 407 591 422.5 c 128,-1,60
 624 438 624 438 664 438 c 0,61,62
 738 438 738 438 776 409.5 c 128,-1,63
 814 381 814 381 814 334 c 0,64,65
 814 258 814 258 651 180 c 0,66,67
 625 168 625 168 598 142.5 c 128,-1,68
 571 117 571 117 564 88 c 1,69,-1
 568 86 l 1,70,71
 592 110 592 110 618 110 c 0,72,73
 639 110 639 110 674 105 c 0,74,75
 704 100 704 100 733 100 c 0,76,77
 757 100 757 100 772.5 111 c 128,-1,78
 788 122 788 122 788 137 c 0,79,80
 788 155 788 155 784 171 c 1,81,-1
 807 171 l 1,82,83
 811 147 811 147 811 121 c 0,84,85
 811 69 811 69 784.5 28.5 c 128,-1,86
 758 -12 758 -12 703 -12 c 0,87,24
 661 -12 661 -12 617 34 c 0,25,26
EndSplineSet
Validated: 1
EndChar

StartChar: threequarters
Encoding: 190 190 128
Width: 860
GlyphClass: 1
Flags: W
LayerCount: 2
Fore
SplineSet
188 -18 m 1,0,-1
 622 730 l 1,1,-1
 672 730 l 1,2,-1
 238 -18 l 1,3,-1
 188 -18 l 1,0,-1
75 299.5 m 128,-1,5
 36 325 36 325 36 368 c 0,6,7
 36 393 36 393 55 411.5 c 128,-1,8
 74 430 74 430 103 430 c 0,9,10
 127 430 127 430 141 419 c 128,-1,11
 155 408 155 408 155 391 c 0,12,13
 155 363 155 363 124 351 c 0,14,15
 117 348 117 348 111.5 343 c 128,-1,16
 106 338 106 338 106 332 c 0,17,18
 106 316 106 316 123 307 c 128,-1,19
 140 298 140 298 170 298 c 0,20,21
 205 298 205 298 222.5 323.5 c 128,-1,22
 240 349 240 349 240 401 c 0,23,24
 240 449 240 449 221 472 c 128,-1,25
 202 495 202 495 174 495 c 2,26,-1
 107 495 l 1,27,-1
 107 523 l 1,28,-1
 172 523 l 2,29,30
 203 523 203 523 217.5 543.5 c 128,-1,31
 232 564 232 564 232 608 c 0,32,33
 232 661 232 661 217.5 680.5 c 128,-1,34
 203 700 203 700 175 700 c 0,35,36
 150 700 150 700 132 687.5 c 128,-1,37
 114 675 114 675 114 655 c 0,38,39
 114 648 114 648 120 641.5 c 128,-1,40
 126 635 126 635 134 631 c 0,41,42
 157 618 157 618 157 596 c 0,43,44
 157 582 157 582 144.5 571.5 c 128,-1,45
 132 561 132 561 112 561 c 0,46,47
 87 561 87 561 68.5 579 c 128,-1,48
 50 597 50 597 50 623 c 0,49,50
 50 668 50 668 89 696 c 128,-1,51
 128 724 128 724 184 724 c 0,52,53
 253 724 253 724 296.5 695 c 128,-1,54
 340 666 340 666 340 616 c 0,55,56
 340 573 340 573 305.5 548 c 128,-1,57
 271 523 271 523 222 514 c 1,58,-1
 222 507 l 1,59,60
 274 503 274 503 315 472.5 c 128,-1,61
 356 442 356 442 356 398 c 0,62,63
 356 338 356 338 306 306 c 128,-1,64
 256 274 256 274 173 274 c 0,65,4
 114 274 114 274 75 299.5 c 128,-1,5
570 24 m 1,66,-1
 634 24 l 2,67,68
 643 24 643 24 646.5 27.5 c 128,-1,69
 650 31 650 31 650 40 c 2,70,-1
 650 118 l 1,71,-1
 502 118 l 1,72,-1
 502 147 l 1,73,-1
 684 426 l 1,74,-1
 758 426 l 1,75,-1
 758 146 l 1,76,-1
 828 146 l 1,77,-1
 828 118 l 1,78,-1
 758 118 l 1,79,-1
 758 40 l 2,80,81
 758 31 758 31 761.5 27.5 c 128,-1,82
 765 24 765 24 774 24 c 2,83,-1
 818 24 l 1,84,-1
 818 0 l 1,85,-1
 570 0 l 1,86,-1
 570 24 l 1,66,-1
540 146 m 1,87,-1
 650 146 l 1,88,-1
 650 314 l 1,89,-1
 540 146 l 1,87,-1
EndSplineSet
Validated: 1
EndChar

StartChar: questiondown
Encoding: 191 191 129
Width: 470
GlyphClass: 1
Flags: W
LayerCount: 2
Fore
SplineSet
160 372 m 128,-1,1
 138 394 138 394 138 428 c 256,2,3
 138 462 138 462 160 484 c 128,-1,4
 182 506 182 506 216 506 c 256,5,6
 250 506 250 506 272 484 c 128,-1,7
 294 462 294 462 294 428 c 256,8,9
 294 394 294 394 272 372 c 128,-1,10
 250 350 250 350 216 350 c 256,11,0
 182 350 182 350 160 372 c 128,-1,1
151 -219 m 128,-1,13
 114 -200 114 -200 93 -167.5 c 128,-1,14
 72 -135 72 -135 72 -94 c 0,15,16
 72 -47 72 -47 106 1 c 128,-1,17
 140 49 140 49 195 100 c 0,18,19
 237 139 237 139 258.5 169.5 c 128,-1,20
 280 200 280 200 280 238 c 0,21,22
 280 263 280 263 262 275.5 c 128,-1,23
 244 288 244 288 219 288 c 0,24,25
 193 288 193 288 178 269.5 c 128,-1,26
 163 251 163 251 163 222 c 0,27,28
 163 210 163 210 168 196 c 1,29,-1
 144 186 l 1,30,31
 139 197 139 197 137 204.5 c 128,-1,32
 135 212 135 212 135 223 c 0,33,34
 135 265 135 265 159.5 291.5 c 128,-1,35
 184 318 184 318 219 318 c 0,36,37
 259 318 259 318 286.5 297 c 128,-1,38
 314 276 314 276 314 237 c 0,39,40
 314 202 314 202 300.5 169 c 128,-1,41
 287 136 287 136 262 97 c 0,42,43
 227 43 227 43 210.5 -0.5 c 128,-1,44
 194 -44 194 -44 194 -107 c 0,45,46
 194 -146 194 -146 213 -172 c 128,-1,47
 232 -198 232 -198 266 -198 c 0,48,49
 306 -198 306 -198 332 -165.5 c 128,-1,50
 358 -133 358 -133 358 -90 c 0,51,52
 358 -53 358 -53 349.5 -31 c 128,-1,53
 341 -9 341 -9 320 18 c 1,54,-1
 343 35 l 1,55,56
 368 4 368 4 380 -24 c 128,-1,57
 392 -52 392 -52 392 -92 c 0,58,59
 392 -130 392 -130 373.5 -163.5 c 128,-1,60
 355 -197 355 -197 319.5 -217.5 c 128,-1,61
 284 -238 284 -238 235 -238 c 0,62,12
 188 -238 188 -238 151 -219 c 128,-1,13
EndSplineSet
Validated: 1
EndChar

StartChar: Agrave
Encoding: 192 192 130
Width: 754
GlyphClass: 1
Flags: W
LayerCount: 2
Fore
SplineSet
275 860 m 2,0,1
 247 881 247 881 247 908 c 0,2,3
 247 926 247 926 259 937 c 128,-1,4
 271 948 271 948 289 948 c 0,5,6
 303 948 303 948 315 941 c 128,-1,7
 327 934 327 934 338 916 c 2,8,-1
 427 778 l 1,9,-1
 407 760 l 1,10,-1
 275 860 l 2,0,1
44 32 m 1,11,-1
 78 32 l 2,12,13
 108 32 108 32 131 55.5 c 128,-1,14
 154 79 154 79 166 113 c 2,15,-1
 377 730 l 1,16,-1
 419 730 l 1,17,-1
 633 83 l 2,18,19
 650 32 650 32 692 32 c 2,20,-1
 732 32 l 1,21,-1
 732 0 l 1,22,-1
 381 0 l 1,23,-1
 381 32 l 1,24,-1
 453 32 l 2,25,26
 465 32 465 32 472.5 41.5 c 128,-1,27
 480 51 480 51 480 64 c 0,28,29
 480 75 480 75 474 93 c 2,30,-1
 442 189 l 1,31,-1
 232 189 l 1,32,-1
 211 128 l 2,33,34
 200 100 200 100 200 77 c 0,35,36
 200 59 200 59 214.5 45.5 c 128,-1,37
 229 32 229 32 252 32 c 2,38,-1
 299 32 l 1,39,-1
 299 0 l 1,40,-1
 44 0 l 1,41,-1
 44 32 l 1,11,-1
245 226 m 1,42,-1
 430 226 l 1,43,-1
 339 501 l 1,44,-1
 245 226 l 1,42,-1
EndSplineSet
Validated: 1
EndChar

StartChar: Aacute
Encoding: 193 193 131
Width: 754
GlyphClass: 1
Flags: W
LayerCount: 2
Fore
SplineSet
364 778 m 1,0,-1
 453 916 l 2,1,2
 464 934 464 934 476 941 c 128,-1,3
 488 948 488 948 502 948 c 0,4,5
 520 948 520 948 532 937 c 128,-1,6
 544 926 544 926 544 908 c 0,7,8
 544 881 544 881 516 860 c 2,9,-1
 384 760 l 1,10,-1
 364 778 l 1,0,-1
44 32 m 1,11,-1
 78 32 l 2,12,13
 108 32 108 32 131 55.5 c 128,-1,14
 154 79 154 79 166 113 c 2,15,-1
 377 730 l 1,16,-1
 419 730 l 1,17,-1
 633 83 l 2,18,19
 650 32 650 32 692 32 c 2,20,-1
 732 32 l 1,21,-1
 732 0 l 1,22,-1
 381 0 l 1,23,-1
 381 32 l 1,24,-1
 453 32 l 2,25,26
 465 32 465 32 472.5 41.5 c 128,-1,27
 480 51 480 51 480 64 c 0,28,29
 480 75 480 75 474 93 c 2,30,-1
 442 189 l 1,31,-1
 232 189 l 1,32,-1
 211 128 l 2,33,34
 200 100 200 100 200 77 c 0,35,36
 200 59 200 59 214.5 45.5 c 128,-1,37
 229 32 229 32 252 32 c 2,38,-1
 299 32 l 1,39,-1
 299 0 l 1,40,-1
 44 0 l 1,41,-1
 44 32 l 1,11,-1
245 226 m 1,42,-1
 430 226 l 1,43,-1
 339 501 l 1,44,-1
 245 226 l 1,42,-1
EndSplineSet
Validated: 1
EndChar

StartChar: Acircumflex
Encoding: 194 194 132
Width: 754
GlyphClass: 1
Flags: W
LayerCount: 2
Fore
SplineSet
228 786 m 1,0,1
 325 837 325 837 376 930 c 1,2,-1
 416 930 l 1,3,4
 465 836 465 836 564 786 c 1,5,-1
 552 762 l 1,6,7
 509 777 509 777 476 794.5 c 128,-1,8
 443 812 443 812 396 842 c 1,9,10
 349 812 349 812 316 794.5 c 128,-1,11
 283 777 283 777 240 762 c 1,12,-1
 228 786 l 1,0,1
44 32 m 1,13,-1
 78 32 l 2,14,15
 108 32 108 32 131 55.5 c 128,-1,16
 154 79 154 79 166 113 c 2,17,-1
 377 730 l 1,18,-1
 419 730 l 1,19,-1
 633 83 l 2,20,21
 650 32 650 32 692 32 c 2,22,-1
 732 32 l 1,23,-1
 732 0 l 1,24,-1
 381 0 l 1,25,-1
 381 32 l 1,26,-1
 453 32 l 2,27,28
 465 32 465 32 472.5 41.5 c 128,-1,29
 480 51 480 51 480 64 c 0,30,31
 480 75 480 75 474 93 c 2,32,-1
 442 189 l 1,33,-1
 232 189 l 1,34,-1
 211 128 l 2,35,36
 200 100 200 100 200 77 c 0,37,38
 200 59 200 59 214.5 45.5 c 128,-1,39
 229 32 229 32 252 32 c 2,40,-1
 299 32 l 1,41,-1
 299 0 l 1,42,-1
 44 0 l 1,43,-1
 44 32 l 1,13,-1
245 226 m 1,44,-1
 430 226 l 1,45,-1
 339 501 l 1,46,-1
 245 226 l 1,44,-1
EndSplineSet
Validated: 1
EndChar

StartChar: Atilde
Encoding: 195 195 133
Width: 754
GlyphClass: 1
Flags: W
LayerCount: 2
Fore
SplineSet
259 850 m 128,-1,1
 270 875 270 875 290 891.5 c 128,-1,2
 310 908 310 908 336 908 c 0,3,4
 358 908 358 908 375 903 c 128,-1,5
 392 898 392 898 418 887 c 0,6,7
 453 872 453 872 482 872 c 0,8,9
 515 872 515 872 522 912 c 1,10,-1
 544 912 l 1,11,12
 544 887 544 887 533 862 c 128,-1,13
 522 837 522 837 502 820.5 c 128,-1,14
 482 804 482 804 456 804 c 0,15,16
 434 804 434 804 417 809 c 128,-1,17
 400 814 400 814 374 825 c 0,18,19
 339 840 339 840 310 840 c 0,20,21
 277 840 277 840 270 800 c 1,22,-1
 248 800 l 1,23,0
 248 825 248 825 259 850 c 128,-1,1
44 32 m 1,24,-1
 78 32 l 2,25,26
 108 32 108 32 131 55.5 c 128,-1,27
 154 79 154 79 166 113 c 2,28,-1
 377 730 l 1,29,-1
 419 730 l 1,30,-1
 633 83 l 2,31,32
 650 32 650 32 692 32 c 2,33,-1
 732 32 l 1,34,-1
 732 0 l 1,35,-1
 381 0 l 1,36,-1
 381 32 l 1,37,-1
 453 32 l 2,38,39
 465 32 465 32 472.5 41.5 c 128,-1,40
 480 51 480 51 480 64 c 0,41,42
 480 75 480 75 474 93 c 2,43,-1
 442 189 l 1,44,-1
 232 189 l 1,45,-1
 211 128 l 2,46,47
 200 100 200 100 200 77 c 0,48,49
 200 59 200 59 214.5 45.5 c 128,-1,50
 229 32 229 32 252 32 c 2,51,-1
 299 32 l 1,52,-1
 299 0 l 1,53,-1
 44 0 l 1,54,-1
 44 32 l 1,24,-1
245 226 m 1,55,-1
 430 226 l 1,56,-1
 339 501 l 1,57,-1
 245 226 l 1,55,-1
EndSplineSet
Validated: 1
EndChar

StartChar: Adieresis
Encoding: 196 196 134
Width: 754
GlyphClass: 1
Flags: W
LayerCount: 2
Fore
SplineSet
247.5 811.5 m 128,-1,1
 230 829 230 829 230 854 c 256,2,3
 230 879 230 879 247.5 896.5 c 128,-1,4
 265 914 265 914 290 914 c 256,5,6
 315 914 315 914 332.5 896.5 c 128,-1,7
 350 879 350 879 350 854 c 256,8,9
 350 829 350 829 332.5 811.5 c 128,-1,10
 315 794 315 794 290 794 c 256,11,0
 265 794 265 794 247.5 811.5 c 128,-1,1
459.5 811.5 m 128,-1,13
 442 829 442 829 442 854 c 256,14,15
 442 879 442 879 459.5 896.5 c 128,-1,16
 477 914 477 914 502 914 c 256,17,18
 527 914 527 914 544.5 896.5 c 128,-1,19
 562 879 562 879 562 854 c 256,20,21
 562 829 562 829 544.5 811.5 c 128,-1,22
 527 794 527 794 502 794 c 256,23,12
 477 794 477 794 459.5 811.5 c 128,-1,13
44 32 m 1,24,-1
 78 32 l 2,25,26
 108 32 108 32 131 55.5 c 128,-1,27
 154 79 154 79 166 113 c 2,28,-1
 377 730 l 1,29,-1
 419 730 l 1,30,-1
 633 83 l 2,31,32
 650 32 650 32 692 32 c 2,33,-1
 732 32 l 1,34,-1
 732 0 l 1,35,-1
 381 0 l 1,36,-1
 381 32 l 1,37,-1
 453 32 l 2,38,39
 465 32 465 32 472.5 41.5 c 128,-1,40
 480 51 480 51 480 64 c 0,41,42
 480 75 480 75 474 93 c 2,43,-1
 442 189 l 1,44,-1
 232 189 l 1,45,-1
 211 128 l 2,46,47
 200 100 200 100 200 77 c 0,48,49
 200 59 200 59 214.5 45.5 c 128,-1,50
 229 32 229 32 252 32 c 2,51,-1
 299 32 l 1,52,-1
 299 0 l 1,53,-1
 44 0 l 1,54,-1
 44 32 l 1,24,-1
245 226 m 1,55,-1
 430 226 l 1,56,-1
 339 501 l 1,57,-1
 245 226 l 1,55,-1
EndSplineSet
Validated: 1
EndChar

StartChar: Aring
Encoding: 197 197 135
Width: 754
GlyphClass: 1
Flags: W
LayerCount: 2
Fore
SplineSet
316 781 m 128,-1,1
 285 808 285 808 285 850 c 256,2,3
 285 892 285 892 316 919 c 128,-1,4
 347 946 347 946 396 946 c 256,5,6
 445 946 445 946 476 919 c 128,-1,7
 507 892 507 892 507 850 c 256,8,9
 507 808 507 808 476 781 c 128,-1,10
 445 754 445 754 396 754 c 256,11,0
 347 754 347 754 316 781 c 128,-1,1
444 812 m 128,-1,13
 463 826 463 826 463 850 c 256,14,15
 463 874 463 874 444 888 c 128,-1,16
 425 902 425 902 396 902 c 256,17,18
 367 902 367 902 348 888 c 128,-1,19
 329 874 329 874 329 850 c 256,20,21
 329 826 329 826 348 812 c 128,-1,22
 367 798 367 798 396 798 c 256,23,12
 425 798 425 798 444 812 c 128,-1,13
44 32 m 1,24,-1
 78 32 l 2,25,26
 108 32 108 32 131 55.5 c 128,-1,27
 154 79 154 79 166 113 c 2,28,-1
 377 730 l 1,29,-1
 419 730 l 1,30,-1
 633 83 l 2,31,32
 650 32 650 32 692 32 c 2,33,-1
 732 32 l 1,34,-1
 732 0 l 1,35,-1
 381 0 l 1,36,-1
 381 32 l 1,37,-1
 453 32 l 2,38,39
 465 32 465 32 472.5 41.5 c 128,-1,40
 480 51 480 51 480 64 c 0,41,42
 480 75 480 75 474 93 c 2,43,-1
 442 189 l 1,44,-1
 232 189 l 1,45,-1
 211 128 l 2,46,47
 200 100 200 100 200 77 c 0,48,49
 200 59 200 59 214.5 45.5 c 128,-1,50
 229 32 229 32 252 32 c 2,51,-1
 299 32 l 1,52,-1
 299 0 l 1,53,-1
 44 0 l 1,54,-1
 44 32 l 1,24,-1
245 226 m 1,55,-1
 430 226 l 1,56,-1
 339 501 l 1,57,-1
 245 226 l 1,55,-1
EndSplineSet
Validated: 1
EndChar

StartChar: AE
Encoding: 198 198 136
Width: 1004
GlyphClass: 1
Flags: W
LayerCount: 2
Fore
SplineSet
26 32 m 1,0,-1
 49 32 l 2,1,2
 85 32 85 32 118 57 c 128,-1,3
 151 82 151 82 171 120 c 2,4,-1
 412 591 l 2,5,6
 424 615 424 615 429 628 c 128,-1,7
 434 641 434 641 434 654 c 0,8,9
 434 665 434 665 426.5 672.5 c 128,-1,10
 419 680 419 680 405 680 c 2,11,-1
 376 680 l 1,12,-1
 376 712 l 1,13,-1
 944 712 l 1,14,-1
 950 480 l 1,15,-1
 918 480 l 1,16,17
 918 487 918 487 907.5 525 c 128,-1,18
 897 563 897 563 878 594 c 0,19,20
 855 634 855 634 825 657 c 128,-1,21
 795 680 795 680 758 680 c 2,22,-1
 648 680 l 2,23,24
 635 680 635 680 629.5 675 c 128,-1,25
 624 670 624 670 624 656 c 2,26,-1
 624 380 l 1,27,-1
 675 380 l 2,28,29
 702 380 702 380 725 402 c 128,-1,30
 748 424 748 424 761.5 456.5 c 128,-1,31
 775 489 775 489 775 518 c 1,32,-1
 807 518 l 1,33,-1
 807 205 l 1,34,-1
 775 205 l 1,35,36
 775 235 775 235 761.5 267.5 c 128,-1,37
 748 300 748 300 725 322 c 128,-1,38
 702 344 702 344 675 344 c 2,39,-1
 624 344 l 1,40,-1
 624 56 l 2,41,42
 624 43 624 43 629.5 37.5 c 128,-1,43
 635 32 635 32 648 32 c 2,44,-1
 757 32 l 2,45,46
 812 32 812 32 849 76 c 128,-1,47
 886 120 886 120 905 174 c 0,48,49
 913 197 913 197 919 231 c 128,-1,50
 925 265 925 265 926 276 c 1,51,-1
 958 276 l 1,52,-1
 952 0 l 1,53,-1
 381 0 l 1,54,-1
 381 32 l 1,55,-1
 451 32 l 2,56,57
 465 32 465 32 470 37.5 c 128,-1,58
 475 43 475 43 475 56 c 2,59,-1
 475 210 l 1,60,-1
 266 210 l 1,61,-1
 243 166 l 2,62,63
 232 146 232 146 223 120.5 c 128,-1,64
 214 95 214 95 214 83 c 0,65,66
 214 32 214 32 263 32 c 2,67,-1
 296 32 l 1,68,-1
 296 0 l 1,69,-1
 26 0 l 1,70,-1
 26 32 l 1,0,-1
283 246 m 1,71,-1
 475 246 l 1,72,-1
 475 620 l 1,73,-1
 283 246 l 1,71,-1
EndSplineSet
Validated: 1
EndChar

StartChar: Ccedilla
Encoding: 199 199 137
Width: 660
GlyphClass: 1
Flags: W
LayerCount: 2
Fore
SplineSet
280 -219.5 m 128,-1,1
 245 -201 245 -201 245 -170 c 0,2,3
 245 -153 245 -153 253.5 -142 c 128,-1,4
 262 -131 262 -131 278 -131 c 0,5,6
 296 -131 296 -131 303.5 -141 c 128,-1,7
 311 -151 311 -151 315 -168 c 0,8,9
 324 -214 324 -214 369 -214 c 0,10,11
 397 -214 397 -214 412 -200 c 128,-1,12
 427 -186 427 -186 427 -161 c 0,13,14
 427 -139 427 -139 412.5 -125 c 128,-1,15
 398 -111 398 -111 369 -111 c 2,16,-1
 316 -111 l 1,17,-1
 330 -17 l 1,18,19
 247 -8 247 -8 188 46 c 128,-1,20
 129 100 129 100 99.5 182 c 128,-1,21
 70 264 70 264 70 356 c 0,22,23
 70 457 70 457 104 542.5 c 128,-1,24
 138 628 138 628 201.5 679 c 128,-1,25
 265 730 265 730 350 730 c 0,26,27
 387 730 387 730 418.5 717.5 c 128,-1,28
 450 705 450 705 485 681 c 0,29,30
 508 666 508 666 519 666 c 0,31,32
 527 666 527 666 532 670.5 c 128,-1,33
 537 675 537 675 541 685 c 2,34,-1
 559 722 l 1,35,-1
 592 722 l 1,36,-1
 592 415 l 1,37,-1
 560 415 l 1,38,39
 537 544 537 544 480.5 621 c 128,-1,40
 424 698 424 698 350 698 c 0,41,42
 303 698 303 698 271.5 652 c 128,-1,43
 240 606 240 606 240 506 c 2,44,-1
 240 206 l 2,45,46
 240 107 240 107 275.5 60.5 c 128,-1,47
 311 14 311 14 360 14 c 0,48,49
 479 14 479 14 537 123 c 0,50,51
 566 176 566 176 576 275 c 1,52,-1
 612 275 l 1,53,54
 609 231 609 231 598.5 186.5 c 128,-1,55
 588 142 588 142 571 109 c 0,56,57
 545 58 545 58 494.5 20 c 128,-1,58
 444 -18 444 -18 359 -18 c 1,59,-1
 355 -47 l 1,60,-1
 388 -47 l 2,61,62
 427 -47 427 -47 453 -72 c 128,-1,63
 479 -97 479 -97 479 -132 c 0,64,65
 479 -178 479 -178 448.5 -208 c 128,-1,66
 418 -238 418 -238 353 -238 c 0,67,0
 315 -238 315 -238 280 -219.5 c 128,-1,1
EndSplineSet
Validated: 1
EndChar

StartChar: Egrave
Encoding: 200 200 138
Width: 690
GlyphClass: 1
Flags: W
LayerCount: 2
Fore
SplineSet
252 860 m 2,0,1
 224 881 224 881 224 908 c 0,2,3
 224 926 224 926 236 937 c 128,-1,4
 248 948 248 948 266 948 c 0,5,6
 280 948 280 948 292 941 c 128,-1,7
 304 934 304 934 315 916 c 2,8,-1
 404 778 l 1,9,-1
 384 760 l 1,10,-1
 252 860 l 2,0,1
62 32 m 1,11,-1
 132 32 l 2,12,13
 146 32 146 32 151 37.5 c 128,-1,14
 156 43 156 43 156 56 c 2,15,-1
 156 656 l 2,16,17
 156 670 156 670 151 675 c 128,-1,18
 146 680 146 680 132 680 c 2,19,-1
 62 680 l 1,20,-1
 62 712 l 1,21,-1
 624 712 l 1,22,-1
 630 480 l 1,23,-1
 598 480 l 1,24,25
 598 487 598 487 587.5 525 c 128,-1,26
 577 563 577 563 558 594 c 0,27,28
 535 634 535 634 505 657 c 128,-1,29
 475 680 475 680 438 680 c 2,30,-1
 328 680 l 2,31,32
 315 680 315 680 309.5 675 c 128,-1,33
 304 670 304 670 304 656 c 2,34,-1
 304 380 l 1,35,-1
 355 380 l 2,36,37
 382 380 382 380 405 402 c 128,-1,38
 428 424 428 424 441.5 456.5 c 128,-1,39
 455 489 455 489 455 518 c 1,40,-1
 487 518 l 1,41,-1
 487 205 l 1,42,-1
 455 205 l 1,43,44
 455 235 455 235 441.5 267.5 c 128,-1,45
 428 300 428 300 405 322 c 128,-1,46
 382 344 382 344 355 344 c 2,47,-1
 304 344 l 1,48,-1
 304 56 l 2,49,50
 304 43 304 43 309.5 37.5 c 128,-1,51
 315 32 315 32 328 32 c 2,52,-1
 437 32 l 2,53,54
 492 32 492 32 529 76 c 128,-1,55
 566 120 566 120 585 174 c 0,56,57
 593 197 593 197 599 231 c 128,-1,58
 605 265 605 265 606 276 c 1,59,-1
 638 276 l 1,60,-1
 632 0 l 1,61,-1
 62 0 l 1,62,-1
 62 32 l 1,11,-1
EndSplineSet
Validated: 1
EndChar

StartChar: Eacute
Encoding: 201 201 139
Width: 690
GlyphClass: 1
Flags: W
LayerCount: 2
Fore
SplineSet
340 778 m 1,0,-1
 429 916 l 2,1,2
 440 934 440 934 452 941 c 128,-1,3
 464 948 464 948 478 948 c 0,4,5
 496 948 496 948 508 937 c 128,-1,6
 520 926 520 926 520 908 c 0,7,8
 520 881 520 881 492 860 c 2,9,-1
 360 760 l 1,10,-1
 340 778 l 1,0,-1
62 32 m 1,11,-1
 132 32 l 2,12,13
 146 32 146 32 151 37.5 c 128,-1,14
 156 43 156 43 156 56 c 2,15,-1
 156 656 l 2,16,17
 156 670 156 670 151 675 c 128,-1,18
 146 680 146 680 132 680 c 2,19,-1
 62 680 l 1,20,-1
 62 712 l 1,21,-1
 624 712 l 1,22,-1
 630 480 l 1,23,-1
 598 480 l 1,24,25
 598 487 598 487 587.5 525 c 128,-1,26
 577 563 577 563 558 594 c 0,27,28
 535 634 535 634 505 657 c 128,-1,29
 475 680 475 680 438 680 c 2,30,-1
 328 680 l 2,31,32
 315 680 315 680 309.5 675 c 128,-1,33
 304 670 304 670 304 656 c 2,34,-1
 304 380 l 1,35,-1
 355 380 l 2,36,37
 382 380 382 380 405 402 c 128,-1,38
 428 424 428 424 441.5 456.5 c 128,-1,39
 455 489 455 489 455 518 c 1,40,-1
 487 518 l 1,41,-1
 487 205 l 1,42,-1
 455 205 l 1,43,44
 455 235 455 235 441.5 267.5 c 128,-1,45
 428 300 428 300 405 322 c 128,-1,46
 382 344 382 344 355 344 c 2,47,-1
 304 344 l 1,48,-1
 304 56 l 2,49,50
 304 43 304 43 309.5 37.5 c 128,-1,51
 315 32 315 32 328 32 c 2,52,-1
 437 32 l 2,53,54
 492 32 492 32 529 76 c 128,-1,55
 566 120 566 120 585 174 c 0,56,57
 593 197 593 197 599 231 c 128,-1,58
 605 265 605 265 606 276 c 1,59,-1
 638 276 l 1,60,-1
 632 0 l 1,61,-1
 62 0 l 1,62,-1
 62 32 l 1,11,-1
EndSplineSet
Validated: 1
EndChar

StartChar: Ecircumflex
Encoding: 202 202 140
Width: 690
GlyphClass: 1
Flags: W
LayerCount: 2
Fore
SplineSet
204 786 m 1,0,1
 301 837 301 837 352 930 c 1,2,-1
 392 930 l 1,3,4
 441 836 441 836 540 786 c 1,5,-1
 528 762 l 1,6,7
 485 777 485 777 452 794.5 c 128,-1,8
 419 812 419 812 372 842 c 1,9,10
 325 812 325 812 292 794.5 c 128,-1,11
 259 777 259 777 216 762 c 1,12,-1
 204 786 l 1,0,1
62 32 m 1,13,-1
 132 32 l 2,14,15
 146 32 146 32 151 37.5 c 128,-1,16
 156 43 156 43 156 56 c 2,17,-1
 156 656 l 2,18,19
 156 670 156 670 151 675 c 128,-1,20
 146 680 146 680 132 680 c 2,21,-1
 62 680 l 1,22,-1
 62 712 l 1,23,-1
 624 712 l 1,24,-1
 630 480 l 1,25,-1
 598 480 l 1,26,27
 598 487 598 487 587.5 525 c 128,-1,28
 577 563 577 563 558 594 c 0,29,30
 535 634 535 634 505 657 c 128,-1,31
 475 680 475 680 438 680 c 2,32,-1
 328 680 l 2,33,34
 315 680 315 680 309.5 675 c 128,-1,35
 304 670 304 670 304 656 c 2,36,-1
 304 380 l 1,37,-1
 355 380 l 2,38,39
 382 380 382 380 405 402 c 128,-1,40
 428 424 428 424 441.5 456.5 c 128,-1,41
 455 489 455 489 455 518 c 1,42,-1
 487 518 l 1,43,-1
 487 205 l 1,44,-1
 455 205 l 1,45,46
 455 235 455 235 441.5 267.5 c 128,-1,47
 428 300 428 300 405 322 c 128,-1,48
 382 344 382 344 355 344 c 2,49,-1
 304 344 l 1,50,-1
 304 56 l 2,51,52
 304 43 304 43 309.5 37.5 c 128,-1,53
 315 32 315 32 328 32 c 2,54,-1
 437 32 l 2,55,56
 492 32 492 32 529 76 c 128,-1,57
 566 120 566 120 585 174 c 0,58,59
 593 197 593 197 599 231 c 128,-1,60
 605 265 605 265 606 276 c 1,61,-1
 638 276 l 1,62,-1
 632 0 l 1,63,-1
 62 0 l 1,64,-1
 62 32 l 1,13,-1
EndSplineSet
Validated: 1
EndChar

StartChar: Edieresis
Encoding: 203 203 141
Width: 690
GlyphClass: 1
Flags: W
LayerCount: 2
Fore
SplineSet
223.5 811.5 m 128,-1,1
 206 829 206 829 206 854 c 256,2,3
 206 879 206 879 223.5 896.5 c 128,-1,4
 241 914 241 914 266 914 c 256,5,6
 291 914 291 914 308.5 896.5 c 128,-1,7
 326 879 326 879 326 854 c 256,8,9
 326 829 326 829 308.5 811.5 c 128,-1,10
 291 794 291 794 266 794 c 256,11,0
 241 794 241 794 223.5 811.5 c 128,-1,1
435.5 811.5 m 128,-1,13
 418 829 418 829 418 854 c 256,14,15
 418 879 418 879 435.5 896.5 c 128,-1,16
 453 914 453 914 478 914 c 256,17,18
 503 914 503 914 520.5 896.5 c 128,-1,19
 538 879 538 879 538 854 c 256,20,21
 538 829 538 829 520.5 811.5 c 128,-1,22
 503 794 503 794 478 794 c 256,23,12
 453 794 453 794 435.5 811.5 c 128,-1,13
62 32 m 1,24,-1
 132 32 l 2,25,26
 146 32 146 32 151 37.5 c 128,-1,27
 156 43 156 43 156 56 c 2,28,-1
 156 656 l 2,29,30
 156 670 156 670 151 675 c 128,-1,31
 146 680 146 680 132 680 c 2,32,-1
 62 680 l 1,33,-1
 62 712 l 1,34,-1
 624 712 l 1,35,-1
 630 480 l 1,36,-1
 598 480 l 1,37,38
 598 487 598 487 587.5 525 c 128,-1,39
 577 563 577 563 558 594 c 0,40,41
 535 634 535 634 505 657 c 128,-1,42
 475 680 475 680 438 680 c 2,43,-1
 328 680 l 2,44,45
 315 680 315 680 309.5 675 c 128,-1,46
 304 670 304 670 304 656 c 2,47,-1
 304 380 l 1,48,-1
 355 380 l 2,49,50
 382 380 382 380 405 402 c 128,-1,51
 428 424 428 424 441.5 456.5 c 128,-1,52
 455 489 455 489 455 518 c 1,53,-1
 487 518 l 1,54,-1
 487 205 l 1,55,-1
 455 205 l 1,56,57
 455 235 455 235 441.5 267.5 c 128,-1,58
 428 300 428 300 405 322 c 128,-1,59
 382 344 382 344 355 344 c 2,60,-1
 304 344 l 1,61,-1
 304 56 l 2,62,63
 304 43 304 43 309.5 37.5 c 128,-1,64
 315 32 315 32 328 32 c 2,65,-1
 437 32 l 2,66,67
 492 32 492 32 529 76 c 128,-1,68
 566 120 566 120 585 174 c 0,69,70
 593 197 593 197 599 231 c 128,-1,71
 605 265 605 265 606 276 c 1,72,-1
 638 276 l 1,73,-1
 632 0 l 1,74,-1
 62 0 l 1,75,-1
 62 32 l 1,24,-1
EndSplineSet
Validated: 1
EndChar

StartChar: Igrave
Encoding: 204 204 142
Width: 440
GlyphClass: 1
Flags: W
LayerCount: 2
Fore
SplineSet
110 860 m 2,0,1
 82 881 82 881 82 908 c 0,2,3
 82 926 82 926 94 937 c 128,-1,4
 106 948 106 948 124 948 c 0,5,6
 138 948 138 948 150 941 c 128,-1,7
 162 934 162 934 173 916 c 2,8,-1
 262 778 l 1,9,-1
 242 760 l 1,10,-1
 110 860 l 2,0,1
62 32 m 1,11,-1
 132 32 l 2,12,13
 146 32 146 32 151 37.5 c 128,-1,14
 156 43 156 43 156 56 c 2,15,-1
 156 656 l 2,16,17
 156 670 156 670 151 675 c 128,-1,18
 146 680 146 680 132 680 c 2,19,-1
 62 680 l 1,20,-1
 62 712 l 1,21,-1
 398 712 l 1,22,-1
 398 680 l 1,23,-1
 328 680 l 2,24,25
 315 680 315 680 309.5 675 c 128,-1,26
 304 670 304 670 304 656 c 2,27,-1
 304 56 l 2,28,29
 304 43 304 43 309.5 37.5 c 128,-1,30
 315 32 315 32 328 32 c 2,31,-1
 398 32 l 1,32,-1
 398 0 l 1,33,-1
 62 0 l 1,34,-1
 62 32 l 1,11,-1
EndSplineSet
Validated: 1
EndChar

StartChar: Iacute
Encoding: 205 205 143
Width: 440
GlyphClass: 1
Flags: W
LayerCount: 2
Fore
SplineSet
198 778 m 1,0,-1
 287 916 l 2,1,2
 298 934 298 934 310 941 c 128,-1,3
 322 948 322 948 336 948 c 0,4,5
 354 948 354 948 366 937 c 128,-1,6
 378 926 378 926 378 908 c 0,7,8
 378 881 378 881 350 860 c 2,9,-1
 218 760 l 1,10,-1
 198 778 l 1,0,-1
62 32 m 1,11,-1
 132 32 l 2,12,13
 146 32 146 32 151 37.5 c 128,-1,14
 156 43 156 43 156 56 c 2,15,-1
 156 656 l 2,16,17
 156 670 156 670 151 675 c 128,-1,18
 146 680 146 680 132 680 c 2,19,-1
 62 680 l 1,20,-1
 62 712 l 1,21,-1
 398 712 l 1,22,-1
 398 680 l 1,23,-1
 328 680 l 2,24,25
 315 680 315 680 309.5 675 c 128,-1,26
 304 670 304 670 304 656 c 2,27,-1
 304 56 l 2,28,29
 304 43 304 43 309.5 37.5 c 128,-1,30
 315 32 315 32 328 32 c 2,31,-1
 398 32 l 1,32,-1
 398 0 l 1,33,-1
 62 0 l 1,34,-1
 62 32 l 1,11,-1
EndSplineSet
Validated: 1
EndChar

StartChar: Icircumflex
Encoding: 206 206 144
Width: 440
GlyphClass: 1
Flags: W
LayerCount: 2
Fore
SplineSet
62 786 m 1,0,1
 159 837 159 837 210 930 c 1,2,-1
 250 930 l 1,3,4
 299 836 299 836 398 786 c 1,5,-1
 386 762 l 1,6,7
 343 777 343 777 310 794.5 c 128,-1,8
 277 812 277 812 230 842 c 1,9,10
 183 812 183 812 150 794.5 c 128,-1,11
 117 777 117 777 74 762 c 1,12,-1
 62 786 l 1,0,1
62 32 m 1,13,-1
 132 32 l 2,14,15
 146 32 146 32 151 37.5 c 128,-1,16
 156 43 156 43 156 56 c 2,17,-1
 156 656 l 2,18,19
 156 670 156 670 151 675 c 128,-1,20
 146 680 146 680 132 680 c 2,21,-1
 62 680 l 1,22,-1
 62 712 l 1,23,-1
 398 712 l 1,24,-1
 398 680 l 1,25,-1
 328 680 l 2,26,27
 315 680 315 680 309.5 675 c 128,-1,28
 304 670 304 670 304 656 c 2,29,-1
 304 56 l 2,30,31
 304 43 304 43 309.5 37.5 c 128,-1,32
 315 32 315 32 328 32 c 2,33,-1
 398 32 l 1,34,-1
 398 0 l 1,35,-1
 62 0 l 1,36,-1
 62 32 l 1,13,-1
EndSplineSet
Validated: 1
EndChar

StartChar: Idieresis
Encoding: 207 207 145
Width: 440
GlyphClass: 1
Flags: W
LayerCount: 2
Fore
SplineSet
81.5 811.5 m 128,-1,1
 64 829 64 829 64 854 c 256,2,3
 64 879 64 879 81.5 896.5 c 128,-1,4
 99 914 99 914 124 914 c 256,5,6
 149 914 149 914 166.5 896.5 c 128,-1,7
 184 879 184 879 184 854 c 256,8,9
 184 829 184 829 166.5 811.5 c 128,-1,10
 149 794 149 794 124 794 c 256,11,0
 99 794 99 794 81.5 811.5 c 128,-1,1
293.5 811.5 m 128,-1,13
 276 829 276 829 276 854 c 256,14,15
 276 879 276 879 293.5 896.5 c 128,-1,16
 311 914 311 914 336 914 c 256,17,18
 361 914 361 914 378.5 896.5 c 128,-1,19
 396 879 396 879 396 854 c 256,20,21
 396 829 396 829 378.5 811.5 c 128,-1,22
 361 794 361 794 336 794 c 256,23,12
 311 794 311 794 293.5 811.5 c 128,-1,13
62 32 m 1,24,-1
 132 32 l 2,25,26
 146 32 146 32 151 37.5 c 128,-1,27
 156 43 156 43 156 56 c 2,28,-1
 156 656 l 2,29,30
 156 670 156 670 151 675 c 128,-1,31
 146 680 146 680 132 680 c 2,32,-1
 62 680 l 1,33,-1
 62 712 l 1,34,-1
 398 712 l 1,35,-1
 398 680 l 1,36,-1
 328 680 l 2,37,38
 315 680 315 680 309.5 675 c 128,-1,39
 304 670 304 670 304 656 c 2,40,-1
 304 56 l 2,41,42
 304 43 304 43 309.5 37.5 c 128,-1,43
 315 32 315 32 328 32 c 2,44,-1
 398 32 l 1,45,-1
 398 0 l 1,46,-1
 62 0 l 1,47,-1
 62 32 l 1,24,-1
EndSplineSet
Validated: 1
EndChar

StartChar: Eth
Encoding: 208 208 146
Width: 786
GlyphClass: 1
Flags: W
LayerCount: 2
Fore
SplineSet
62 32 m 1,0,-1
 132 32 l 2,1,2
 146 32 146 32 151 37.5 c 128,-1,3
 156 43 156 43 156 56 c 2,4,-1
 156 356 l 1,5,-1
 62 356 l 1,6,-1
 62 392 l 1,7,-1
 156 392 l 1,8,-1
 156 656 l 2,9,10
 156 670 156 670 151 675 c 128,-1,11
 146 680 146 680 132 680 c 2,12,-1
 62 680 l 1,13,-1
 62 712 l 1,14,-1
 434 712 l 2,15,16
 517 712 517 712 586 667.5 c 128,-1,17
 655 623 655 623 695.5 543.5 c 128,-1,18
 736 464 736 464 736 362 c 256,19,20
 736 260 736 260 695.5 177 c 128,-1,21
 655 94 655 94 585.5 47 c 128,-1,22
 516 0 516 0 434 0 c 2,23,-1
 62 0 l 1,24,-1
 62 32 l 1,0,-1
417 32 m 2,25,26
 481 32 481 32 523.5 76.5 c 128,-1,27
 566 121 566 121 566 206 c 2,28,-1
 566 506 l 2,29,30
 566 591 566 591 523.5 635.5 c 128,-1,31
 481 680 481 680 417 680 c 2,32,-1
 328 680 l 2,33,34
 315 680 315 680 309.5 675 c 128,-1,35
 304 670 304 670 304 656 c 2,36,-1
 304 392 l 1,37,-1
 398 392 l 1,38,-1
 398 356 l 1,39,-1
 304 356 l 1,40,-1
 304 56 l 2,41,42
 304 43 304 43 309.5 37.5 c 128,-1,43
 315 32 315 32 328 32 c 2,44,-1
 417 32 l 2,25,26
EndSplineSet
Validated: 1
EndChar

StartChar: Ntilde
Encoding: 209 209 147
Width: 764
GlyphClass: 1
Flags: W
LayerCount: 2
Fore
SplineSet
281 850 m 128,-1,1
 292 875 292 875 312 891.5 c 128,-1,2
 332 908 332 908 358 908 c 0,3,4
 380 908 380 908 397 903 c 128,-1,5
 414 898 414 898 440 887 c 0,6,7
 475 872 475 872 504 872 c 0,8,9
 537 872 537 872 544 912 c 1,10,-1
 566 912 l 1,11,12
 566 887 566 887 555 862 c 128,-1,13
 544 837 544 837 524 820.5 c 128,-1,14
 504 804 504 804 478 804 c 0,15,16
 456 804 456 804 439 809 c 128,-1,17
 422 814 422 814 396 825 c 0,18,19
 361 840 361 840 332 840 c 0,20,21
 299 840 299 840 292 800 c 1,22,-1
 270 800 l 1,23,0
 270 825 270 825 281 850 c 128,-1,1
218 517 m 1,24,-1
 214 517 l 1,25,-1
 214 136 l 2,26,27
 214 90 214 90 249.5 61 c 128,-1,28
 285 32 285 32 340 32 c 1,29,-1
 340 0 l 1,30,-1
 48 0 l 1,31,-1
 48 32 l 1,32,33
 103 32 103 32 138.5 61 c 128,-1,34
 174 90 174 90 174 136 c 2,35,-1
 174 563 l 2,36,37
 174 574 174 574 172 579 c 128,-1,38
 170 584 170 584 163 594 c 2,39,-1
 123 654 l 2,40,41
 113 669 113 669 101 674.5 c 128,-1,42
 89 680 89 680 66 680 c 2,43,-1
 48 680 l 1,44,-1
 48 712 l 1,45,-1
 270 712 l 1,46,-1
 590 255 l 1,47,-1
 590 576 l 2,48,49
 590 622 590 622 554.5 651 c 128,-1,50
 519 680 519 680 464 680 c 1,51,-1
 464 712 l 1,52,-1
 756 712 l 1,53,-1
 756 680 l 1,54,55
 701 680 701 680 665.5 651 c 128,-1,56
 630 622 630 622 630 576 c 2,57,-1
 630 -18 l 1,58,-1
 592 -18 l 1,59,-1
 218 517 l 1,24,-1
EndSplineSet
Validated: 1
EndChar

StartChar: Ograve
Encoding: 210 210 148
Width: 712
GlyphClass: 1
Flags: W
LayerCount: 2
Fore
SplineSet
246 860 m 2,0,1
 218 881 218 881 218 908 c 0,2,3
 218 926 218 926 230 937 c 128,-1,4
 242 948 242 948 260 948 c 0,5,6
 274 948 274 948 286 941 c 128,-1,7
 298 934 298 934 309 916 c 2,8,-1
 398 778 l 1,9,-1
 378 760 l 1,10,-1
 246 860 l 2,0,1
220.5 35 m 128,-1,12
 152 88 152 88 111 174.5 c 128,-1,13
 70 261 70 261 70 356 c 256,14,15
 70 451 70 451 111 537.5 c 128,-1,16
 152 624 152 624 220.5 677 c 128,-1,17
 289 730 289 730 366 730 c 256,18,19
 443 730 443 730 511.5 677 c 128,-1,20
 580 624 580 624 621 537.5 c 128,-1,21
 662 451 662 451 662 356 c 256,22,23
 662 261 662 261 621 174.5 c 128,-1,24
 580 88 580 88 511.5 35 c 128,-1,25
 443 -18 443 -18 366 -18 c 256,26,11
 289 -18 289 -18 220.5 35 c 128,-1,12
459.5 58.5 m 128,-1,28
 492 103 492 103 492 206 c 2,29,-1
 492 506 l 2,30,31
 492 609 492 609 459.5 653.5 c 128,-1,32
 427 698 427 698 366 698 c 256,33,34
 305 698 305 698 272.5 653.5 c 128,-1,35
 240 609 240 609 240 506 c 2,36,-1
 240 206 l 2,37,38
 240 103 240 103 272.5 58.5 c 128,-1,39
 305 14 305 14 366 14 c 256,40,27
 427 14 427 14 459.5 58.5 c 128,-1,28
EndSplineSet
Validated: 1
EndChar

StartChar: Oacute
Encoding: 211 211 149
Width: 712
GlyphClass: 1
Flags: W
LayerCount: 2
Fore
SplineSet
334 778 m 1,0,-1
 423 916 l 2,1,2
 434 934 434 934 446 941 c 128,-1,3
 458 948 458 948 472 948 c 0,4,5
 490 948 490 948 502 937 c 128,-1,6
 514 926 514 926 514 908 c 0,7,8
 514 881 514 881 486 860 c 2,9,-1
 354 760 l 1,10,-1
 334 778 l 1,0,-1
220.5 35 m 128,-1,12
 152 88 152 88 111 174.5 c 128,-1,13
 70 261 70 261 70 356 c 256,14,15
 70 451 70 451 111 537.5 c 128,-1,16
 152 624 152 624 220.5 677 c 128,-1,17
 289 730 289 730 366 730 c 256,18,19
 443 730 443 730 511.5 677 c 128,-1,20
 580 624 580 624 621 537.5 c 128,-1,21
 662 451 662 451 662 356 c 256,22,23
 662 261 662 261 621 174.5 c 128,-1,24
 580 88 580 88 511.5 35 c 128,-1,25
 443 -18 443 -18 366 -18 c 256,26,11
 289 -18 289 -18 220.5 35 c 128,-1,12
459.5 58.5 m 128,-1,28
 492 103 492 103 492 206 c 2,29,-1
 492 506 l 2,30,31
 492 609 492 609 459.5 653.5 c 128,-1,32
 427 698 427 698 366 698 c 256,33,34
 305 698 305 698 272.5 653.5 c 128,-1,35
 240 609 240 609 240 506 c 2,36,-1
 240 206 l 2,37,38
 240 103 240 103 272.5 58.5 c 128,-1,39
 305 14 305 14 366 14 c 256,40,27
 427 14 427 14 459.5 58.5 c 128,-1,28
EndSplineSet
Validated: 1
EndChar

StartChar: Ocircumflex
Encoding: 212 212 150
Width: 712
GlyphClass: 1
Flags: W
LayerCount: 2
Fore
SplineSet
198 786 m 1,0,1
 295 837 295 837 346 930 c 1,2,-1
 386 930 l 1,3,4
 435 836 435 836 534 786 c 1,5,-1
 522 762 l 1,6,7
 479 777 479 777 446 794.5 c 128,-1,8
 413 812 413 812 366 842 c 1,9,10
 319 812 319 812 286 794.5 c 128,-1,11
 253 777 253 777 210 762 c 1,12,-1
 198 786 l 1,0,1
220.5 35 m 128,-1,14
 152 88 152 88 111 174.5 c 128,-1,15
 70 261 70 261 70 356 c 256,16,17
 70 451 70 451 111 537.5 c 128,-1,18
 152 624 152 624 220.5 677 c 128,-1,19
 289 730 289 730 366 730 c 256,20,21
 443 730 443 730 511.5 677 c 128,-1,22
 580 624 580 624 621 537.5 c 128,-1,23
 662 451 662 451 662 356 c 256,24,25
 662 261 662 261 621 174.5 c 128,-1,26
 580 88 580 88 511.5 35 c 128,-1,27
 443 -18 443 -18 366 -18 c 256,28,13
 289 -18 289 -18 220.5 35 c 128,-1,14
459.5 58.5 m 128,-1,30
 492 103 492 103 492 206 c 2,31,-1
 492 506 l 2,32,33
 492 609 492 609 459.5 653.5 c 128,-1,34
 427 698 427 698 366 698 c 256,35,36
 305 698 305 698 272.5 653.5 c 128,-1,37
 240 609 240 609 240 506 c 2,38,-1
 240 206 l 2,39,40
 240 103 240 103 272.5 58.5 c 128,-1,41
 305 14 305 14 366 14 c 256,42,29
 427 14 427 14 459.5 58.5 c 128,-1,30
EndSplineSet
Validated: 1
EndChar

StartChar: Otilde
Encoding: 213 213 151
Width: 712
GlyphClass: 1
Flags: W
LayerCount: 2
Fore
SplineSet
229 850 m 128,-1,1
 240 875 240 875 260 891.5 c 128,-1,2
 280 908 280 908 306 908 c 0,3,4
 328 908 328 908 345 903 c 128,-1,5
 362 898 362 898 388 887 c 0,6,7
 423 872 423 872 452 872 c 0,8,9
 485 872 485 872 492 912 c 1,10,-1
 514 912 l 1,11,12
 514 887 514 887 503 862 c 128,-1,13
 492 837 492 837 472 820.5 c 128,-1,14
 452 804 452 804 426 804 c 0,15,16
 404 804 404 804 387 809 c 128,-1,17
 370 814 370 814 344 825 c 0,18,19
 309 840 309 840 280 840 c 0,20,21
 247 840 247 840 240 800 c 1,22,-1
 218 800 l 1,23,0
 218 825 218 825 229 850 c 128,-1,1
220.5 35 m 128,-1,25
 152 88 152 88 111 174.5 c 128,-1,26
 70 261 70 261 70 356 c 256,27,28
 70 451 70 451 111 537.5 c 128,-1,29
 152 624 152 624 220.5 677 c 128,-1,30
 289 730 289 730 366 730 c 256,31,32
 443 730 443 730 511.5 677 c 128,-1,33
 580 624 580 624 621 537.5 c 128,-1,34
 662 451 662 451 662 356 c 256,35,36
 662 261 662 261 621 174.5 c 128,-1,37
 580 88 580 88 511.5 35 c 128,-1,38
 443 -18 443 -18 366 -18 c 256,39,24
 289 -18 289 -18 220.5 35 c 128,-1,25
459.5 58.5 m 128,-1,41
 492 103 492 103 492 206 c 2,42,-1
 492 506 l 2,43,44
 492 609 492 609 459.5 653.5 c 128,-1,45
 427 698 427 698 366 698 c 256,46,47
 305 698 305 698 272.5 653.5 c 128,-1,48
 240 609 240 609 240 506 c 2,49,-1
 240 206 l 2,50,51
 240 103 240 103 272.5 58.5 c 128,-1,52
 305 14 305 14 366 14 c 256,53,40
 427 14 427 14 459.5 58.5 c 128,-1,41
EndSplineSet
Validated: 1
EndChar

StartChar: Odieresis
Encoding: 214 214 152
Width: 712
GlyphClass: 1
Flags: W
LayerCount: 2
Fore
SplineSet
217.5 811.5 m 128,-1,1
 200 829 200 829 200 854 c 256,2,3
 200 879 200 879 217.5 896.5 c 128,-1,4
 235 914 235 914 260 914 c 256,5,6
 285 914 285 914 302.5 896.5 c 128,-1,7
 320 879 320 879 320 854 c 256,8,9
 320 829 320 829 302.5 811.5 c 128,-1,10
 285 794 285 794 260 794 c 256,11,0
 235 794 235 794 217.5 811.5 c 128,-1,1
429.5 811.5 m 128,-1,13
 412 829 412 829 412 854 c 256,14,15
 412 879 412 879 429.5 896.5 c 128,-1,16
 447 914 447 914 472 914 c 256,17,18
 497 914 497 914 514.5 896.5 c 128,-1,19
 532 879 532 879 532 854 c 256,20,21
 532 829 532 829 514.5 811.5 c 128,-1,22
 497 794 497 794 472 794 c 256,23,12
 447 794 447 794 429.5 811.5 c 128,-1,13
220.5 35 m 128,-1,25
 152 88 152 88 111 174.5 c 128,-1,26
 70 261 70 261 70 356 c 256,27,28
 70 451 70 451 111 537.5 c 128,-1,29
 152 624 152 624 220.5 677 c 128,-1,30
 289 730 289 730 366 730 c 256,31,32
 443 730 443 730 511.5 677 c 128,-1,33
 580 624 580 624 621 537.5 c 128,-1,34
 662 451 662 451 662 356 c 256,35,36
 662 261 662 261 621 174.5 c 128,-1,37
 580 88 580 88 511.5 35 c 128,-1,38
 443 -18 443 -18 366 -18 c 256,39,24
 289 -18 289 -18 220.5 35 c 128,-1,25
459.5 58.5 m 128,-1,41
 492 103 492 103 492 206 c 2,42,-1
 492 506 l 2,43,44
 492 609 492 609 459.5 653.5 c 128,-1,45
 427 698 427 698 366 698 c 256,46,47
 305 698 305 698 272.5 653.5 c 128,-1,48
 240 609 240 609 240 506 c 2,49,-1
 240 206 l 2,50,51
 240 103 240 103 272.5 58.5 c 128,-1,52
 305 14 305 14 366 14 c 256,53,40
 427 14 427 14 459.5 58.5 c 128,-1,41
EndSplineSet
Validated: 1
EndChar

StartChar: multiply
Encoding: 215 215 153
Width: 940
GlyphClass: 1
Flags: W
LayerCount: 2
Fore
SplineSet
190 -60 m 1,0,-1
 144 -15 l 1,1,-1
 424 265 l 1,2,-1
 144 545 l 1,3,-1
 190 590 l 1,4,-1
 470 310 l 1,5,-1
 750 590 l 1,6,-1
 796 545 l 1,7,-1
 516 265 l 1,8,-1
 796 -15 l 1,9,-1
 750 -60 l 1,10,-1
 470 220 l 1,11,-1
 190 -60 l 1,0,-1
EndSplineSet
Validated: 1
EndChar

StartChar: Oslash
Encoding: 216 216 154
Width: 712
GlyphClass: 1
Flags: W
LayerCount: 2
Fore
SplineSet
70 6 m 1,0,-1
 150 109 l 1,1,2
 112 161 112 161 91 225 c 128,-1,3
 70 289 70 289 70 356 c 0,4,5
 70 451 70 451 111 537.5 c 128,-1,6
 152 624 152 624 220.5 677 c 128,-1,7
 289 730 289 730 366 730 c 0,8,9
 418 730 418 730 467.5 704.5 c 128,-1,10
 517 679 517 679 557 634 c 1,11,-1
 631 730 l 1,12,-1
 662 706 l 1,13,-1
 582 603 l 1,14,15
 620 551 620 551 641 487 c 128,-1,16
 662 423 662 423 662 356 c 0,17,18
 662 261 662 261 621 174.5 c 128,-1,19
 580 88 580 88 511.5 35 c 128,-1,20
 443 -18 443 -18 366 -18 c 0,21,22
 314 -18 314 -18 264.5 7.5 c 128,-1,23
 215 33 215 33 175 78 c 1,24,-1
 101 -18 l 1,25,-1
 70 6 l 1,0,-1
490 548 m 1,26,27
 484 628 484 628 452 663 c 128,-1,28
 420 698 420 698 366 698 c 0,29,30
 305 698 305 698 272.5 653.5 c 128,-1,31
 240 609 240 609 240 506 c 2,32,-1
 240 225 l 1,33,-1
 490 548 l 1,26,27
459.5 58.5 m 128,-1,35
 492 103 492 103 492 206 c 2,36,-1
 492 487 l 1,37,-1
 242 164 l 1,38,39
 248 84 248 84 280 49 c 128,-1,40
 312 14 312 14 366 14 c 0,41,34
 427 14 427 14 459.5 58.5 c 128,-1,35
EndSplineSet
Validated: 1
EndChar

StartChar: Ugrave
Encoding: 217 217 155
Width: 794
GlyphClass: 1
Flags: W
LayerCount: 2
Fore
SplineSet
310 860 m 2,0,1
 282 881 282 881 282 908 c 0,2,3
 282 926 282 926 294 937 c 128,-1,4
 306 948 306 948 324 948 c 0,5,6
 338 948 338 948 350 941 c 128,-1,7
 362 934 362 934 373 916 c 2,8,-1
 462 778 l 1,9,-1
 442 760 l 1,10,-1
 310 860 l 2,0,1
270 17.5 m 128,-1,12
 211 53 211 53 183.5 110.5 c 128,-1,13
 156 168 156 168 156 237 c 2,14,-1
 156 656 l 2,15,16
 156 670 156 670 151 675 c 128,-1,17
 146 680 146 680 132 680 c 2,18,-1
 68 680 l 1,19,-1
 68 712 l 1,20,-1
 392 712 l 1,21,-1
 392 680 l 1,22,-1
 328 680 l 2,23,24
 315 680 315 680 309.5 675 c 128,-1,25
 304 670 304 670 304 656 c 2,26,-1
 304 198 l 2,27,28
 304 106 304 106 339 64 c 128,-1,29
 374 22 374 22 447 22 c 0,30,31
 496 22 496 22 535 46 c 128,-1,32
 574 70 574 70 596 110 c 128,-1,33
 618 150 618 150 618 198 c 2,34,-1
 618 590 l 2,35,36
 618 635 618 635 587.5 657.5 c 128,-1,37
 557 680 557 680 514 680 c 1,38,-1
 514 712 l 1,39,-1
 762 712 l 1,40,-1
 762 680 l 1,41,42
 719 680 719 680 688.5 657.5 c 128,-1,43
 658 635 658 635 658 590 c 2,44,-1
 658 208 l 2,45,46
 658 145 658 145 629.5 93.5 c 128,-1,47
 601 42 601 42 546.5 12 c 128,-1,48
 492 -18 492 -18 419 -18 c 0,49,11
 329 -18 329 -18 270 17.5 c 128,-1,12
EndSplineSet
Validated: 1
EndChar

StartChar: Uacute
Encoding: 218 218 156
Width: 794
GlyphClass: 1
Flags: W
LayerCount: 2
Fore
SplineSet
398 778 m 1,0,-1
 487 916 l 2,1,2
 498 934 498 934 510 941 c 128,-1,3
 522 948 522 948 536 948 c 0,4,5
 554 948 554 948 566 937 c 128,-1,6
 578 926 578 926 578 908 c 0,7,8
 578 881 578 881 550 860 c 2,9,-1
 418 760 l 1,10,-1
 398 778 l 1,0,-1
270 17.5 m 128,-1,12
 211 53 211 53 183.5 110.5 c 128,-1,13
 156 168 156 168 156 237 c 2,14,-1
 156 656 l 2,15,16
 156 670 156 670 151 675 c 128,-1,17
 146 680 146 680 132 680 c 2,18,-1
 68 680 l 1,19,-1
 68 712 l 1,20,-1
 392 712 l 1,21,-1
 392 680 l 1,22,-1
 328 680 l 2,23,24
 315 680 315 680 309.5 675 c 128,-1,25
 304 670 304 670 304 656 c 2,26,-1
 304 198 l 2,27,28
 304 106 304 106 339 64 c 128,-1,29
 374 22 374 22 447 22 c 0,30,31
 496 22 496 22 535 46 c 128,-1,32
 574 70 574 70 596 110 c 128,-1,33
 618 150 618 150 618 198 c 2,34,-1
 618 590 l 2,35,36
 618 635 618 635 587.5 657.5 c 128,-1,37
 557 680 557 680 514 680 c 1,38,-1
 514 712 l 1,39,-1
 762 712 l 1,40,-1
 762 680 l 1,41,42
 719 680 719 680 688.5 657.5 c 128,-1,43
 658 635 658 635 658 590 c 2,44,-1
 658 208 l 2,45,46
 658 145 658 145 629.5 93.5 c 128,-1,47
 601 42 601 42 546.5 12 c 128,-1,48
 492 -18 492 -18 419 -18 c 0,49,11
 329 -18 329 -18 270 17.5 c 128,-1,12
EndSplineSet
Validated: 1
EndChar

StartChar: Ucircumflex
Encoding: 219 219 157
Width: 794
GlyphClass: 1
Flags: W
LayerCount: 2
Fore
SplineSet
262 786 m 1,0,1
 359 837 359 837 410 930 c 1,2,-1
 450 930 l 1,3,4
 499 836 499 836 598 786 c 1,5,-1
 586 762 l 1,6,7
 543 777 543 777 510 794.5 c 128,-1,8
 477 812 477 812 430 842 c 1,9,10
 383 812 383 812 350 794.5 c 128,-1,11
 317 777 317 777 274 762 c 1,12,-1
 262 786 l 1,0,1
270 17.5 m 128,-1,14
 211 53 211 53 183.5 110.5 c 128,-1,15
 156 168 156 168 156 237 c 2,16,-1
 156 656 l 2,17,18
 156 670 156 670 151 675 c 128,-1,19
 146 680 146 680 132 680 c 2,20,-1
 68 680 l 1,21,-1
 68 712 l 1,22,-1
 392 712 l 1,23,-1
 392 680 l 1,24,-1
 328 680 l 2,25,26
 315 680 315 680 309.5 675 c 128,-1,27
 304 670 304 670 304 656 c 2,28,-1
 304 198 l 2,29,30
 304 106 304 106 339 64 c 128,-1,31
 374 22 374 22 447 22 c 0,32,33
 496 22 496 22 535 46 c 128,-1,34
 574 70 574 70 596 110 c 128,-1,35
 618 150 618 150 618 198 c 2,36,-1
 618 590 l 2,37,38
 618 635 618 635 587.5 657.5 c 128,-1,39
 557 680 557 680 514 680 c 1,40,-1
 514 712 l 1,41,-1
 762 712 l 1,42,-1
 762 680 l 1,43,44
 719 680 719 680 688.5 657.5 c 128,-1,45
 658 635 658 635 658 590 c 2,46,-1
 658 208 l 2,47,48
 658 145 658 145 629.5 93.5 c 128,-1,49
 601 42 601 42 546.5 12 c 128,-1,50
 492 -18 492 -18 419 -18 c 0,51,13
 329 -18 329 -18 270 17.5 c 128,-1,14
EndSplineSet
Validated: 1
EndChar

StartChar: Udieresis
Encoding: 220 220 158
Width: 794
GlyphClass: 1
Flags: W
LayerCount: 2
Fore
SplineSet
281.5 811.5 m 128,-1,1
 264 829 264 829 264 854 c 256,2,3
 264 879 264 879 281.5 896.5 c 128,-1,4
 299 914 299 914 324 914 c 256,5,6
 349 914 349 914 366.5 896.5 c 128,-1,7
 384 879 384 879 384 854 c 256,8,9
 384 829 384 829 366.5 811.5 c 128,-1,10
 349 794 349 794 324 794 c 256,11,0
 299 794 299 794 281.5 811.5 c 128,-1,1
493.5 811.5 m 128,-1,13
 476 829 476 829 476 854 c 256,14,15
 476 879 476 879 493.5 896.5 c 128,-1,16
 511 914 511 914 536 914 c 256,17,18
 561 914 561 914 578.5 896.5 c 128,-1,19
 596 879 596 879 596 854 c 256,20,21
 596 829 596 829 578.5 811.5 c 128,-1,22
 561 794 561 794 536 794 c 256,23,12
 511 794 511 794 493.5 811.5 c 128,-1,13
270 17.5 m 128,-1,25
 211 53 211 53 183.5 110.5 c 128,-1,26
 156 168 156 168 156 237 c 2,27,-1
 156 656 l 2,28,29
 156 670 156 670 151 675 c 128,-1,30
 146 680 146 680 132 680 c 2,31,-1
 68 680 l 1,32,-1
 68 712 l 1,33,-1
 392 712 l 1,34,-1
 392 680 l 1,35,-1
 328 680 l 2,36,37
 315 680 315 680 309.5 675 c 128,-1,38
 304 670 304 670 304 656 c 2,39,-1
 304 198 l 2,40,41
 304 106 304 106 339 64 c 128,-1,42
 374 22 374 22 447 22 c 0,43,44
 496 22 496 22 535 46 c 128,-1,45
 574 70 574 70 596 110 c 128,-1,46
 618 150 618 150 618 198 c 2,47,-1
 618 590 l 2,48,49
 618 635 618 635 587.5 657.5 c 128,-1,50
 557 680 557 680 514 680 c 1,51,-1
 514 712 l 1,52,-1
 762 712 l 1,53,-1
 762 680 l 1,54,55
 719 680 719 680 688.5 657.5 c 128,-1,56
 658 635 658 635 658 590 c 2,57,-1
 658 208 l 2,58,59
 658 145 658 145 629.5 93.5 c 128,-1,60
 601 42 601 42 546.5 12 c 128,-1,61
 492 -18 492 -18 419 -18 c 0,62,24
 329 -18 329 -18 270 17.5 c 128,-1,25
EndSplineSet
Validated: 1
EndChar

StartChar: Yacute
Encoding: 221 221 159
Width: 736
GlyphClass: 1
Flags: W
LayerCount: 2
Fore
SplineSet
372 778 m 1,0,-1
 461 916 l 2,1,2
 472 934 472 934 484 941 c 128,-1,3
 496 948 496 948 510 948 c 0,4,5
 528 948 528 948 540 937 c 128,-1,6
 552 926 552 926 552 908 c 0,7,8
 552 881 552 881 524 860 c 2,9,-1
 392 760 l 1,10,-1
 372 778 l 1,0,-1
222 32 m 1,11,-1
 286 32 l 2,12,13
 300 32 300 32 305 37.5 c 128,-1,14
 310 43 310 43 310 56 c 2,15,-1
 310 269 l 1,16,-1
 140 636 l 2,17,18
 128 661 128 661 115 670.5 c 128,-1,19
 102 680 102 680 81 680 c 2,20,-1
 46 680 l 1,21,-1
 46 712 l 1,22,-1
 360 712 l 1,23,-1
 360 680 l 1,24,-1
 332 680 l 2,25,26
 318 680 318 680 311 670 c 128,-1,27
 304 660 304 660 304 648 c 0,28,29
 304 632 304 632 310 620 c 2,30,-1
 442 333 l 1,31,-1
 534 562 l 2,32,33
 548 594 548 594 548 619 c 0,34,35
 548 643 548 643 535 661.5 c 128,-1,36
 522 680 522 680 494 680 c 2,37,-1
 466 680 l 1,38,-1
 466 712 l 1,39,-1
 714 712 l 1,40,-1
 714 680 l 1,41,-1
 684 680 l 2,42,43
 650 680 650 680 627.5 658.5 c 128,-1,44
 605 637 605 637 593 607 c 2,45,-1
 458 278 l 1,46,-1
 458 56 l 2,47,48
 458 43 458 43 463.5 37.5 c 128,-1,49
 469 32 469 32 482 32 c 2,50,-1
 546 32 l 1,51,-1
 546 0 l 1,52,-1
 222 0 l 1,53,-1
 222 32 l 1,11,-1
EndSplineSet
Validated: 1
EndChar

StartChar: Thorn
Encoding: 222 222 160
Width: 702
GlyphClass: 1
Flags: W
LayerCount: 2
Fore
SplineSet
62 32 m 1,0,-1
 132 32 l 2,1,2
 146 32 146 32 151 37.5 c 128,-1,3
 156 43 156 43 156 56 c 2,4,-1
 156 656 l 2,5,6
 156 670 156 670 151 675 c 128,-1,7
 146 680 146 680 132 680 c 2,8,-1
 62 680 l 1,9,-1
 62 712 l 1,10,-1
 416 712 l 1,11,-1
 416 680 l 1,12,-1
 328 680 l 2,13,14
 315 680 315 680 309.5 675 c 128,-1,15
 304 670 304 670 304 656 c 2,16,-1
 304 586 l 1,17,-1
 418 586 l 2,18,19
 488 586 488 586 542.5 562.5 c 128,-1,20
 597 539 597 539 627.5 496.5 c 128,-1,21
 658 454 658 454 658 400 c 0,22,23
 658 345 658 345 627.5 302 c 128,-1,24
 597 259 597 259 542.5 234.5 c 128,-1,25
 488 210 488 210 418 210 c 2,26,-1
 304 210 l 1,27,-1
 304 56 l 2,28,29
 304 43 304 43 309.5 37.5 c 128,-1,30
 315 32 315 32 328 32 c 2,31,-1
 416 32 l 1,32,-1
 416 0 l 1,33,-1
 62 0 l 1,34,-1
 62 32 l 1,0,-1
403 242 m 2,35,36
 455 242 455 242 476.5 284 c 128,-1,37
 498 326 498 326 498 400 c 0,38,39
 498 473 498 473 477 513.5 c 128,-1,40
 456 554 456 554 403 554 c 2,41,-1
 328 554 l 2,42,43
 315 554 315 554 309.5 549 c 128,-1,44
 304 544 304 544 304 530 c 2,45,-1
 304 242 l 1,46,-1
 403 242 l 2,35,36
EndSplineSet
Validated: 1
EndChar

StartChar: germandbls
Encoding: 223 223 161
Width: 556
GlyphClass: 1
Flags: W
LayerCount: 2
Fore
SplineSet
254.5 15 m 128,-1,1
 222 42 222 42 222 84 c 0,2,3
 222 113 222 113 240.5 130.5 c 128,-1,4
 259 148 259 148 282 148 c 0,5,6
 304 148 304 148 316 134 c 128,-1,7
 328 120 328 120 328 102 c 256,8,9
 328 84 328 84 311 67 c 0,10,11
 298 54 298 54 298 40 c 0,12,13
 298 12 298 12 335 12 c 0,14,15
 359 12 359 12 369.5 58 c 128,-1,16
 380 104 380 104 380 206 c 0,17,18
 380 313 380 313 360 364 c 128,-1,19
 340 415 340 415 286 415 c 2,20,-1
 251 415 l 1,21,-1
 251 444 l 1,22,-1
 286 444 l 2,23,24
 322 444 322 444 332 478.5 c 128,-1,25
 342 513 342 513 342 580 c 0,26,27
 342 634 342 634 329 664 c 128,-1,28
 316 694 316 694 282 694 c 0,29,30
 249 694 249 694 229.5 653.5 c 128,-1,31
 210 613 210 613 210 513 c 2,32,-1
 210 0 l 1,33,-1
 22 0 l 1,34,-1
 22 24 l 1,35,-1
 78 24 l 2,36,37
 87 24 87 24 90.5 27.5 c 128,-1,38
 94 31 94 31 94 40 c 2,39,-1
 94 456 l 2,40,41
 94 547 94 547 122 605.5 c 128,-1,42
 150 664 150 664 194.5 691 c 128,-1,43
 239 718 239 718 291 718 c 0,44,45
 342 718 342 718 378.5 698.5 c 128,-1,46
 415 679 415 679 433.5 646.5 c 128,-1,47
 452 614 452 614 452 576 c 0,48,49
 452 515 452 515 416.5 479.5 c 128,-1,50
 381 444 381 444 327 433 c 1,51,-1
 327 428 l 1,52,53
 405 408 405 408 456.5 353.5 c 128,-1,54
 508 299 508 299 508 200 c 0,55,56
 508 108 508 108 463 48 c 128,-1,57
 418 -12 418 -12 338 -12 c 0,58,0
 287 -12 287 -12 254.5 15 c 128,-1,1
EndSplineSet
Validated: 1
EndChar

StartChar: agrave
Encoding: 224 224 162
Width: 508
GlyphClass: 1
Flags: W
LayerCount: 2
Fore
SplineSet
124 624 m 2,0,1
 96 645 96 645 96 672 c 0,2,3
 96 690 96 690 108 701 c 128,-1,4
 120 712 120 712 138 712 c 0,5,6
 152 712 152 712 164 705 c 128,-1,7
 176 698 176 698 187 680 c 2,8,-1
 276 542 l 1,9,-1
 256 524 l 1,10,-1
 124 624 l 2,0,1
84.5 15 m 128,-1,12
 46 42 46 42 46 106 c 0,13,14
 46 171 46 171 93.5 208.5 c 128,-1,15
 141 246 141 246 214 271 c 2,16,-1
 288 297 l 1,17,-1
 288 365 l 2,18,19
 288 416 288 416 267 439 c 128,-1,20
 246 462 246 462 213 462 c 0,21,22
 185 462 185 462 164.5 449.5 c 128,-1,23
 144 437 144 437 144 415 c 0,24,25
 144 409 144 409 147.5 400.5 c 128,-1,26
 151 392 151 392 160 386 c 0,27,28
 175 377 175 377 181.5 367 c 128,-1,29
 188 357 188 357 188 341 c 0,30,31
 188 317 188 317 170.5 303.5 c 128,-1,32
 153 290 153 290 132 290 c 0,33,34
 106 290 106 290 87.5 307.5 c 128,-1,35
 69 325 69 325 69 358 c 0,36,37
 69 396 69 396 92 425.5 c 128,-1,38
 115 455 115 455 151 470.5 c 128,-1,39
 187 486 187 486 224 486 c 0,40,41
 296 486 296 486 350 447.5 c 128,-1,42
 404 409 404 409 404 325 c 2,43,-1
 404 72 l 2,44,45
 404 36 404 36 424 36 c 0,46,47
 442 36 442 36 451 66 c 128,-1,48
 460 96 460 96 460 135 c 1,49,-1
 488 135 l 1,50,51
 488 62 488 62 466 28 c 0,52,53
 455 10 455 10 435 -1 c 128,-1,54
 415 -12 415 -12 389 -12 c 0,55,56
 348 -12 348 -12 327 0.5 c 128,-1,57
 306 13 306 13 292 42 c 1,58,-1
 290 42 l 1,59,60
 250 -12 250 -12 178 -12 c 0,61,11
 123 -12 123 -12 84.5 15 c 128,-1,12
288 72 m 1,63,-1
 288 270 l 1,64,-1
 232 250 l 2,65,66
 199 238 199 238 183.5 204.5 c 128,-1,67
 168 171 168 171 168 115 c 0,68,69
 168 66 168 66 186 47 c 128,-1,70
 204 28 204 28 227 28 c 0,71,62
 266 28 266 28 288 72 c 1,63,-1
EndSplineSet
Validated: 1
EndChar

StartChar: aacute
Encoding: 225 225 163
Width: 508
GlyphClass: 1
Flags: W
LayerCount: 2
Fore
SplineSet
188 542 m 1,0,-1
 277 680 l 2,1,2
 288 698 288 698 300 705 c 128,-1,3
 312 712 312 712 326 712 c 0,4,5
 344 712 344 712 356 701 c 128,-1,6
 368 690 368 690 368 672 c 0,7,8
 368 645 368 645 340 624 c 2,9,-1
 208 524 l 1,10,-1
 188 542 l 1,0,-1
84.5 15 m 128,-1,12
 46 42 46 42 46 106 c 0,13,14
 46 171 46 171 93.5 208.5 c 128,-1,15
 141 246 141 246 214 271 c 2,16,-1
 288 297 l 1,17,-1
 288 365 l 2,18,19
 288 416 288 416 267 439 c 128,-1,20
 246 462 246 462 213 462 c 0,21,22
 185 462 185 462 164.5 449.5 c 128,-1,23
 144 437 144 437 144 415 c 0,24,25
 144 409 144 409 147.5 400.5 c 128,-1,26
 151 392 151 392 160 386 c 0,27,28
 175 377 175 377 181.5 367 c 128,-1,29
 188 357 188 357 188 341 c 0,30,31
 188 317 188 317 170.5 303.5 c 128,-1,32
 153 290 153 290 132 290 c 0,33,34
 106 290 106 290 87.5 307.5 c 128,-1,35
 69 325 69 325 69 358 c 0,36,37
 69 396 69 396 92 425.5 c 128,-1,38
 115 455 115 455 151 470.5 c 128,-1,39
 187 486 187 486 224 486 c 0,40,41
 296 486 296 486 350 447.5 c 128,-1,42
 404 409 404 409 404 325 c 2,43,-1
 404 72 l 2,44,45
 404 36 404 36 424 36 c 0,46,47
 442 36 442 36 451 66 c 128,-1,48
 460 96 460 96 460 135 c 1,49,-1
 488 135 l 1,50,51
 488 62 488 62 466 28 c 0,52,53
 455 10 455 10 435 -1 c 128,-1,54
 415 -12 415 -12 389 -12 c 0,55,56
 348 -12 348 -12 327 0.5 c 128,-1,57
 306 13 306 13 292 42 c 1,58,-1
 290 42 l 1,59,60
 250 -12 250 -12 178 -12 c 0,61,11
 123 -12 123 -12 84.5 15 c 128,-1,12
288 72 m 1,63,-1
 288 270 l 1,64,-1
 232 250 l 2,65,66
 199 238 199 238 183.5 204.5 c 128,-1,67
 168 171 168 171 168 115 c 0,68,69
 168 66 168 66 186 47 c 128,-1,70
 204 28 204 28 227 28 c 0,71,62
 266 28 266 28 288 72 c 1,63,-1
EndSplineSet
Validated: 1
EndChar

StartChar: acircumflex
Encoding: 226 226 164
Width: 508
GlyphClass: 1
Flags: W
LayerCount: 2
Fore
SplineSet
82 548 m 1,0,1
 132 580 132 580 156.5 619.5 c 128,-1,2
 181 659 181 659 198 708 c 1,3,-1
 266 708 l 1,4,5
 283 659 283 659 307.5 619.5 c 128,-1,6
 332 580 332 580 382 548 c 1,7,-1
 366 524 l 1,8,9
 331 541 331 541 293.5 568 c 128,-1,10
 256 595 256 595 232 620 c 1,11,12
 208 595 208 595 170.5 568 c 128,-1,13
 133 541 133 541 98 524 c 1,14,-1
 82 548 l 1,0,1
84.5 15 m 128,-1,16
 46 42 46 42 46 106 c 0,17,18
 46 171 46 171 93.5 208.5 c 128,-1,19
 141 246 141 246 214 271 c 2,20,-1
 288 297 l 1,21,-1
 288 365 l 2,22,23
 288 416 288 416 267 439 c 128,-1,24
 246 462 246 462 213 462 c 0,25,26
 185 462 185 462 164.5 449.5 c 128,-1,27
 144 437 144 437 144 415 c 0,28,29
 144 409 144 409 147.5 400.5 c 128,-1,30
 151 392 151 392 160 386 c 0,31,32
 175 377 175 377 181.5 367 c 128,-1,33
 188 357 188 357 188 341 c 0,34,35
 188 317 188 317 170.5 303.5 c 128,-1,36
 153 290 153 290 132 290 c 0,37,38
 106 290 106 290 87.5 307.5 c 128,-1,39
 69 325 69 325 69 358 c 0,40,41
 69 396 69 396 92 425.5 c 128,-1,42
 115 455 115 455 151 470.5 c 128,-1,43
 187 486 187 486 224 486 c 0,44,45
 296 486 296 486 350 447.5 c 128,-1,46
 404 409 404 409 404 325 c 2,47,-1
 404 72 l 2,48,49
 404 36 404 36 424 36 c 0,50,51
 442 36 442 36 451 66 c 128,-1,52
 460 96 460 96 460 135 c 1,53,-1
 488 135 l 1,54,55
 488 62 488 62 466 28 c 0,56,57
 455 10 455 10 435 -1 c 128,-1,58
 415 -12 415 -12 389 -12 c 0,59,60
 348 -12 348 -12 327 0.5 c 128,-1,61
 306 13 306 13 292 42 c 1,62,-1
 290 42 l 1,63,64
 250 -12 250 -12 178 -12 c 0,65,15
 123 -12 123 -12 84.5 15 c 128,-1,16
288 72 m 1,67,-1
 288 270 l 1,68,-1
 232 250 l 2,69,70
 199 238 199 238 183.5 204.5 c 128,-1,71
 168 171 168 171 168 115 c 0,72,73
 168 66 168 66 186 47 c 128,-1,74
 204 28 204 28 227 28 c 0,75,66
 266 28 266 28 288 72 c 1,67,-1
EndSplineSet
Validated: 1
EndChar

StartChar: atilde
Encoding: 227 227 165
Width: 508
GlyphClass: 1
Flags: W
LayerCount: 2
Fore
SplineSet
95 614 m 128,-1,1
 106 639 106 639 126 655.5 c 128,-1,2
 146 672 146 672 172 672 c 0,3,4
 194 672 194 672 211 667 c 128,-1,5
 228 662 228 662 254 651 c 0,6,7
 289 636 289 636 318 636 c 0,8,9
 351 636 351 636 358 676 c 1,10,-1
 380 676 l 1,11,12
 380 651 380 651 369 626 c 128,-1,13
 358 601 358 601 338 584.5 c 128,-1,14
 318 568 318 568 292 568 c 0,15,16
 270 568 270 568 253 573 c 128,-1,17
 236 578 236 578 210 589 c 0,18,19
 175 604 175 604 146 604 c 0,20,21
 113 604 113 604 106 564 c 1,22,-1
 84 564 l 1,23,0
 84 589 84 589 95 614 c 128,-1,1
84.5 15 m 128,-1,25
 46 42 46 42 46 106 c 0,26,27
 46 171 46 171 93.5 208.5 c 128,-1,28
 141 246 141 246 214 271 c 2,29,-1
 288 297 l 1,30,-1
 288 365 l 2,31,32
 288 416 288 416 267 439 c 128,-1,33
 246 462 246 462 213 462 c 0,34,35
 185 462 185 462 164.5 449.5 c 128,-1,36
 144 437 144 437 144 415 c 0,37,38
 144 409 144 409 147.5 400.5 c 128,-1,39
 151 392 151 392 160 386 c 0,40,41
 175 377 175 377 181.5 367 c 128,-1,42
 188 357 188 357 188 341 c 0,43,44
 188 317 188 317 170.5 303.5 c 128,-1,45
 153 290 153 290 132 290 c 0,46,47
 106 290 106 290 87.5 307.5 c 128,-1,48
 69 325 69 325 69 358 c 0,49,50
 69 396 69 396 92 425.5 c 128,-1,51
 115 455 115 455 151 470.5 c 128,-1,52
 187 486 187 486 224 486 c 0,53,54
 296 486 296 486 350 447.5 c 128,-1,55
 404 409 404 409 404 325 c 2,56,-1
 404 72 l 2,57,58
 404 36 404 36 424 36 c 0,59,60
 442 36 442 36 451 66 c 128,-1,61
 460 96 460 96 460 135 c 1,62,-1
 488 135 l 1,63,64
 488 62 488 62 466 28 c 0,65,66
 455 10 455 10 435 -1 c 128,-1,67
 415 -12 415 -12 389 -12 c 0,68,69
 348 -12 348 -12 327 0.5 c 128,-1,70
 306 13 306 13 292 42 c 1,71,-1
 290 42 l 1,72,73
 250 -12 250 -12 178 -12 c 0,74,24
 123 -12 123 -12 84.5 15 c 128,-1,25
288 72 m 1,76,-1
 288 270 l 1,77,-1
 232 250 l 2,78,79
 199 238 199 238 183.5 204.5 c 128,-1,80
 168 171 168 171 168 115 c 0,81,82
 168 66 168 66 186 47 c 128,-1,83
 204 28 204 28 227 28 c 0,84,75
 266 28 266 28 288 72 c 1,76,-1
EndSplineSet
Validated: 1
EndChar

StartChar: adieresis
Encoding: 228 228 166
Width: 508
GlyphClass: 1
Flags: W
LayerCount: 2
Fore
SplineSet
93.5 575.5 m 128,-1,1
 76 593 76 593 76 618 c 256,2,3
 76 643 76 643 93.5 660.5 c 128,-1,4
 111 678 111 678 136 678 c 256,5,6
 161 678 161 678 178.5 660.5 c 128,-1,7
 196 643 196 643 196 618 c 256,8,9
 196 593 196 593 178.5 575.5 c 128,-1,10
 161 558 161 558 136 558 c 256,11,0
 111 558 111 558 93.5 575.5 c 128,-1,1
285.5 575.5 m 128,-1,13
 268 593 268 593 268 618 c 256,14,15
 268 643 268 643 285.5 660.5 c 128,-1,16
 303 678 303 678 328 678 c 256,17,18
 353 678 353 678 370.5 660.5 c 128,-1,19
 388 643 388 643 388 618 c 256,20,21
 388 593 388 593 370.5 575.5 c 128,-1,22
 353 558 353 558 328 558 c 256,23,12
 303 558 303 558 285.5 575.5 c 128,-1,13
84.5 15 m 128,-1,25
 46 42 46 42 46 106 c 0,26,27
 46 171 46 171 93.5 208.5 c 128,-1,28
 141 246 141 246 214 271 c 2,29,-1
 288 297 l 1,30,-1
 288 365 l 2,31,32
 288 416 288 416 267 439 c 128,-1,33
 246 462 246 462 213 462 c 0,34,35
 185 462 185 462 164.5 449.5 c 128,-1,36
 144 437 144 437 144 415 c 0,37,38
 144 409 144 409 147.5 400.5 c 128,-1,39
 151 392 151 392 160 386 c 0,40,41
 175 377 175 377 181.5 367 c 128,-1,42
 188 357 188 357 188 341 c 0,43,44
 188 317 188 317 170.5 303.5 c 128,-1,45
 153 290 153 290 132 290 c 0,46,47
 106 290 106 290 87.5 307.5 c 128,-1,48
 69 325 69 325 69 358 c 0,49,50
 69 396 69 396 92 425.5 c 128,-1,51
 115 455 115 455 151 470.5 c 128,-1,52
 187 486 187 486 224 486 c 0,53,54
 296 486 296 486 350 447.5 c 128,-1,55
 404 409 404 409 404 325 c 2,56,-1
 404 72 l 2,57,58
 404 36 404 36 424 36 c 0,59,60
 442 36 442 36 451 66 c 128,-1,61
 460 96 460 96 460 135 c 1,62,-1
 488 135 l 1,63,64
 488 62 488 62 466 28 c 0,65,66
 455 10 455 10 435 -1 c 128,-1,67
 415 -12 415 -12 389 -12 c 0,68,69
 348 -12 348 -12 327 0.5 c 128,-1,70
 306 13 306 13 292 42 c 1,71,-1
 290 42 l 1,72,73
 250 -12 250 -12 178 -12 c 0,74,24
 123 -12 123 -12 84.5 15 c 128,-1,25
288 72 m 1,76,-1
 288 270 l 1,77,-1
 232 250 l 2,78,79
 199 238 199 238 183.5 204.5 c 128,-1,80
 168 171 168 171 168 115 c 0,81,82
 168 66 168 66 186 47 c 128,-1,83
 204 28 204 28 227 28 c 0,84,75
 266 28 266 28 288 72 c 1,76,-1
EndSplineSet
Validated: 1
EndChar

StartChar: aring
Encoding: 229 229 167
Width: 508
GlyphClass: 1
Flags: W
LayerCount: 2
Fore
SplineSet
156 547 m 128,-1,1
 125 578 125 578 125 623 c 256,2,3
 125 668 125 668 156 699 c 128,-1,4
 187 730 187 730 232 730 c 256,5,6
 277 730 277 730 308 699 c 128,-1,7
 339 668 339 668 339 623 c 256,8,9
 339 578 339 578 308 547 c 128,-1,10
 277 516 277 516 232 516 c 256,11,0
 187 516 187 516 156 547 c 128,-1,1
278 577.5 m 128,-1,13
 295 595 295 595 295 623 c 0,14,15
 295 652 295 652 278 669 c 128,-1,16
 261 686 261 686 232 686 c 0,17,18
 204 686 204 686 186.5 669 c 128,-1,19
 169 652 169 652 169 623 c 0,20,21
 169 595 169 595 186.5 577.5 c 128,-1,22
 204 560 204 560 232 560 c 0,23,12
 261 560 261 560 278 577.5 c 128,-1,13
84.5 15 m 128,-1,25
 46 42 46 42 46 106 c 0,26,27
 46 171 46 171 93.5 208.5 c 128,-1,28
 141 246 141 246 214 271 c 2,29,-1
 288 297 l 1,30,-1
 288 365 l 2,31,32
 288 416 288 416 267 439 c 128,-1,33
 246 462 246 462 213 462 c 0,34,35
 185 462 185 462 164.5 449.5 c 128,-1,36
 144 437 144 437 144 415 c 0,37,38
 144 409 144 409 147.5 400.5 c 128,-1,39
 151 392 151 392 160 386 c 0,40,41
 175 377 175 377 181.5 367 c 128,-1,42
 188 357 188 357 188 341 c 0,43,44
 188 317 188 317 170.5 303.5 c 128,-1,45
 153 290 153 290 132 290 c 0,46,47
 106 290 106 290 87.5 307.5 c 128,-1,48
 69 325 69 325 69 358 c 0,49,50
 69 396 69 396 92 425.5 c 128,-1,51
 115 455 115 455 151 470.5 c 128,-1,52
 187 486 187 486 224 486 c 0,53,54
 296 486 296 486 350 447.5 c 128,-1,55
 404 409 404 409 404 325 c 2,56,-1
 404 72 l 2,57,58
 404 36 404 36 424 36 c 0,59,60
 442 36 442 36 451 66 c 128,-1,61
 460 96 460 96 460 135 c 1,62,-1
 488 135 l 1,63,64
 488 62 488 62 466 28 c 0,65,66
 455 10 455 10 435 -1 c 128,-1,67
 415 -12 415 -12 389 -12 c 0,68,69
 348 -12 348 -12 327 0.5 c 128,-1,70
 306 13 306 13 292 42 c 1,71,-1
 290 42 l 1,72,73
 250 -12 250 -12 178 -12 c 0,74,24
 123 -12 123 -12 84.5 15 c 128,-1,25
288 72 m 1,76,-1
 288 270 l 1,77,-1
 232 250 l 2,78,79
 199 238 199 238 183.5 204.5 c 128,-1,80
 168 171 168 171 168 115 c 0,81,82
 168 66 168 66 186 47 c 128,-1,83
 204 28 204 28 227 28 c 0,84,75
 266 28 266 28 288 72 c 1,76,-1
EndSplineSet
Validated: 1
EndChar

StartChar: ae
Encoding: 230 230 168
Width: 700
GlyphClass: 1
Flags: W
LayerCount: 2
Fore
SplineSet
84 16 m 128,-1,1
 46 44 46 44 46 107 c 0,2,3
 46 173 46 173 94 209.5 c 128,-1,4
 142 246 142 246 214 271 c 2,5,-1
 288 297 l 1,6,-1
 288 365 l 2,7,8
 288 416 288 416 266 439 c 128,-1,9
 244 462 244 462 211 462 c 0,10,11
 184 462 184 462 164 449.5 c 128,-1,12
 144 437 144 437 144 415 c 0,13,14
 144 409 144 409 147.5 400.5 c 128,-1,15
 151 392 151 392 160 386 c 0,16,17
 175 377 175 377 181.5 367 c 128,-1,18
 188 357 188 357 188 341 c 0,19,20
 188 317 188 317 170.5 303.5 c 128,-1,21
 153 290 153 290 132 290 c 0,22,23
 106 290 106 290 87.5 307.5 c 128,-1,24
 69 325 69 325 69 358 c 0,25,26
 69 397 69 397 91 426 c 128,-1,27
 113 455 113 455 147 470.5 c 128,-1,28
 181 486 181 486 218 486 c 0,29,30
 298 486 298 486 350 442 c 1,31,32
 375 465 375 465 409 475.5 c 128,-1,33
 443 486 443 486 478 486 c 0,34,35
 539 486 539 486 583 442.5 c 128,-1,36
 627 399 627 399 641 328 c 0,37,38
 648 296 648 296 648 228 c 1,39,-1
 404 228 l 1,40,41
 404 180 404 180 406 152.5 c 128,-1,42
 408 125 408 125 415 99 c 0,43,44
 424 62 424 62 449.5 40 c 128,-1,45
 475 18 475 18 509 18 c 0,46,47
 558 18 558 18 588 61 c 128,-1,48
 618 104 618 104 624 162 c 1,49,-1
 650 162 l 1,50,51
 644 93 644 93 605 40.5 c 128,-1,52
 566 -12 566 -12 489 -12 c 0,53,54
 440 -12 440 -12 396.5 8.5 c 128,-1,55
 353 29 353 29 328 66 c 1,56,57
 301 29 301 29 264.5 8.5 c 128,-1,58
 228 -12 228 -12 174 -12 c 0,59,0
 122 -12 122 -12 84 16 c 128,-1,1
532 256 m 1,60,61
 532 361 532 361 518.5 411.5 c 128,-1,62
 505 462 505 462 468 462 c 256,63,64
 431 462 431 462 417.5 411.5 c 128,-1,65
 404 361 404 361 404 256 c 1,66,-1
 532 256 l 1,60,61
288 66 m 1,68,-1
 288 269 l 1,69,-1
 232 250 l 2,70,71
 168 228 168 228 168 115 c 0,72,73
 168 66 168 66 186 47 c 128,-1,74
 204 28 204 28 224 28 c 0,75,67
 263 28 263 28 288 66 c 1,68,-1
EndSplineSet
Validated: 1
EndChar

StartChar: ccedilla
Encoding: 231 231 169
Width: 468
GlyphClass: 1
Flags: W
LayerCount: 2
Fore
SplineSet
186 -191 m 128,-1,1
 156 -174 156 -174 156 -143 c 0,2,3
 156 -128 156 -128 163.5 -119.5 c 128,-1,4
 171 -111 171 -111 185 -111 c 0,5,6
 200 -111 200 -111 206 -120 c 128,-1,7
 212 -129 212 -129 216 -148 c 0,8,9
 224 -186 224 -186 265 -186 c 0,10,11
 287 -186 287 -186 299.5 -173 c 128,-1,12
 312 -160 312 -160 312 -140 c 0,13,14
 312 -121 312 -121 300 -109.5 c 128,-1,15
 288 -98 288 -98 264 -98 c 2,16,-1
 217 -98 l 1,17,-1
 231 -10 l 1,18,19
 177 -2 177 -2 135 32.5 c 128,-1,20
 93 67 93 67 70.5 120.5 c 128,-1,21
 48 174 48 174 48 237 c 0,22,23
 48 305 48 305 74.5 362 c 128,-1,24
 101 419 101 419 149.5 452.5 c 128,-1,25
 198 486 198 486 259 486 c 0,26,27
 307 486 307 486 339.5 466 c 128,-1,28
 372 446 372 446 388 415 c 128,-1,29
 404 384 404 384 404 351 c 0,30,31
 404 315 404 315 382 288.5 c 128,-1,32
 360 262 360 262 329 262 c 0,33,34
 306 262 306 262 291 275.5 c 128,-1,35
 276 289 276 289 276 312 c 0,36,37
 276 339 276 339 308 365 c 0,38,39
 332 385 332 385 332 406 c 256,40,41
 332 427 332 427 316.5 444.5 c 128,-1,42
 301 462 301 462 267 462 c 0,43,44
 220 462 220 462 198 402.5 c 128,-1,45
 176 343 176 343 176 237 c 0,46,47
 176 184 176 184 178 154.5 c 128,-1,48
 180 125 180 125 187 99 c 0,49,50
 196 62 196 62 221.5 40 c 128,-1,51
 247 18 247 18 281 18 c 0,52,53
 330 18 330 18 360 61 c 128,-1,54
 390 104 390 104 396 162 c 1,55,-1
 422 162 l 1,56,57
 416 93 416 93 377 40.5 c 128,-1,58
 338 -12 338 -12 261 -12 c 2,59,-1
 255 -12 l 1,60,-1
 251 -42 l 1,61,-1
 276 -42 l 2,62,63
 312 -42 312 -42 336 -63.5 c 128,-1,64
 360 -85 360 -85 360 -117 c 0,65,66
 360 -155 360 -155 333.5 -181.5 c 128,-1,67
 307 -208 307 -208 251 -208 c 0,68,0
 216 -208 216 -208 186 -191 c 128,-1,1
EndSplineSet
Validated: 1
EndChar

StartChar: egrave
Encoding: 232 232 170
Width: 472
GlyphClass: 1
Flags: W
LayerCount: 2
Fore
SplineSet
132 624 m 2,0,1
 104 645 104 645 104 672 c 0,2,3
 104 690 104 690 116 701 c 128,-1,4
 128 712 128 712 146 712 c 0,5,6
 160 712 160 712 172 705 c 128,-1,7
 184 698 184 698 195 680 c 2,8,-1
 284 542 l 1,9,-1
 264 524 l 1,10,-1
 132 624 l 2,0,1
150.5 21.5 m 128,-1,12
 102 55 102 55 75 112 c 128,-1,13
 48 169 48 169 48 237 c 0,14,15
 48 307 48 307 75 364 c 128,-1,16
 102 421 102 421 148.5 453.5 c 128,-1,17
 195 486 195 486 250 486 c 0,18,19
 311 486 311 486 355 442.5 c 128,-1,20
 399 399 399 399 413 328 c 0,21,22
 420 296 420 296 420 228 c 1,23,-1
 176 228 l 1,24,25
 176 180 176 180 178 152.5 c 128,-1,26
 180 125 180 125 187 99 c 0,27,28
 196 62 196 62 221.5 40 c 128,-1,29
 247 18 247 18 281 18 c 0,30,31
 330 18 330 18 360 61 c 128,-1,32
 390 104 390 104 396 162 c 1,33,-1
 422 162 l 1,34,35
 416 93 416 93 377 40.5 c 128,-1,36
 338 -12 338 -12 261 -12 c 0,37,11
 199 -12 199 -12 150.5 21.5 c 128,-1,12
304 256 m 1,38,39
 304 361 304 361 290.5 411.5 c 128,-1,40
 277 462 277 462 240 462 c 256,41,42
 203 462 203 462 189.5 411.5 c 128,-1,43
 176 361 176 361 176 256 c 1,44,-1
 304 256 l 1,38,39
EndSplineSet
Validated: 1
EndChar

StartChar: eacute
Encoding: 233 233 171
Width: 472
GlyphClass: 1
Flags: W
LayerCount: 2
Fore
SplineSet
196 542 m 1,0,-1
 285 680 l 2,1,2
 296 698 296 698 308 705 c 128,-1,3
 320 712 320 712 334 712 c 0,4,5
 352 712 352 712 364 701 c 128,-1,6
 376 690 376 690 376 672 c 0,7,8
 376 645 376 645 348 624 c 2,9,-1
 216 524 l 1,10,-1
 196 542 l 1,0,-1
150.5 21.5 m 128,-1,12
 102 55 102 55 75 112 c 128,-1,13
 48 169 48 169 48 237 c 0,14,15
 48 307 48 307 75 364 c 128,-1,16
 102 421 102 421 148.5 453.5 c 128,-1,17
 195 486 195 486 250 486 c 0,18,19
 311 486 311 486 355 442.5 c 128,-1,20
 399 399 399 399 413 328 c 0,21,22
 420 296 420 296 420 228 c 1,23,-1
 176 228 l 1,24,25
 176 180 176 180 178 152.5 c 128,-1,26
 180 125 180 125 187 99 c 0,27,28
 196 62 196 62 221.5 40 c 128,-1,29
 247 18 247 18 281 18 c 0,30,31
 330 18 330 18 360 61 c 128,-1,32
 390 104 390 104 396 162 c 1,33,-1
 422 162 l 1,34,35
 416 93 416 93 377 40.5 c 128,-1,36
 338 -12 338 -12 261 -12 c 0,37,11
 199 -12 199 -12 150.5 21.5 c 128,-1,12
304 256 m 1,38,39
 304 361 304 361 290.5 411.5 c 128,-1,40
 277 462 277 462 240 462 c 256,41,42
 203 462 203 462 189.5 411.5 c 128,-1,43
 176 361 176 361 176 256 c 1,44,-1
 304 256 l 1,38,39
EndSplineSet
Validated: 1
EndChar

StartChar: ecircumflex
Encoding: 234 234 172
Width: 472
GlyphClass: 1
Flags: W
LayerCount: 2
Fore
SplineSet
90 548 m 1,0,1
 140 580 140 580 164.5 619.5 c 128,-1,2
 189 659 189 659 206 708 c 1,3,-1
 274 708 l 1,4,5
 291 659 291 659 315.5 619.5 c 128,-1,6
 340 580 340 580 390 548 c 1,7,-1
 374 524 l 1,8,9
 339 541 339 541 301.5 568 c 128,-1,10
 264 595 264 595 240 620 c 1,11,12
 216 595 216 595 178.5 568 c 128,-1,13
 141 541 141 541 106 524 c 1,14,-1
 90 548 l 1,0,1
150.5 21.5 m 128,-1,16
 102 55 102 55 75 112 c 128,-1,17
 48 169 48 169 48 237 c 0,18,19
 48 307 48 307 75 364 c 128,-1,20
 102 421 102 421 148.5 453.5 c 128,-1,21
 195 486 195 486 250 486 c 0,22,23
 311 486 311 486 355 442.5 c 128,-1,24
 399 399 399 399 413 328 c 0,25,26
 420 296 420 296 420 228 c 1,27,-1
 176 228 l 1,28,29
 176 180 176 180 178 152.5 c 128,-1,30
 180 125 180 125 187 99 c 0,31,32
 196 62 196 62 221.5 40 c 128,-1,33
 247 18 247 18 281 18 c 0,34,35
 330 18 330 18 360 61 c 128,-1,36
 390 104 390 104 396 162 c 1,37,-1
 422 162 l 1,38,39
 416 93 416 93 377 40.5 c 128,-1,40
 338 -12 338 -12 261 -12 c 0,41,15
 199 -12 199 -12 150.5 21.5 c 128,-1,16
304 256 m 1,42,43
 304 361 304 361 290.5 411.5 c 128,-1,44
 277 462 277 462 240 462 c 256,45,46
 203 462 203 462 189.5 411.5 c 128,-1,47
 176 361 176 361 176 256 c 1,48,-1
 304 256 l 1,42,43
EndSplineSet
Validated: 1
EndChar

